<svg id="Layer_1" data-name="Layer 1" xmlns="http://www.w3.org/2000/svg" xmlns:xlink="http://www.w3.org/1999/xlink" viewBox="0 0 1920 1080"><defs><style>.cls-1{fill:none;}.cls-2{clip-path:url(#clip-path);}.cls-3{fill:#ffb1f7;}.cls-4{fill:#3a506b;}.cls-5{fill:#5bc0be;}</style><clipPath id="clip-path"><rect class="cls-1" width="1920" height="1080"/></clipPath></defs><title>Instructions</title><g class="cls-2"><circle class="cls-3" cx="2.5" cy="-11" r="29"/><circle class="cls-3" cx="2.5" cy="105" r="29"/><circle class="cls-3" cx="60.5" cy="47" r="29"/><circle class="cls-3" cx="176.5" cy="47" r="29"/><circle class="cls-3" cx="234.5" cy="-11" r="29"/><circle class="cls-3" cx="234.5" cy="105" r="29"/><circle class="cls-3" cx="350.5" cy="-11" r="29"/><circle class="cls-3" cx="350.5" cy="105" r="29"/><circle class="cls-3" cx="292.5" cy="47" r="29"/><circle class="cls-3" cx="408.5" cy="47" r="29"/><circle class="cls-3" cx="466.5" cy="-11" r="29"/><circle class="cls-3" cx="466.5" cy="105" r="29"/><circle class="cls-3" cx="582.5" cy="-11" r="29"/><circle class="cls-3" cx="582.5" cy="105" r="29"/><circle class="cls-3" cx="640.5" cy="47" r="29"/><circle class="cls-3" cx="698.5" cy="-11" r="29"/><circle class="cls-3" cx="698.5" cy="105" r="29"/><circle class="cls-3" cx="814.5" cy="105" r="29"/><circle class="cls-3" cx="756.5" cy="47" r="29"/><circle class="cls-3" cx="872.5" cy="47" r="29"/><circle class="cls-3" cx="930.5" cy="-11" r="29"/><circle class="cls-3" cx="930.5" cy="105" r="29"/><circle class="cls-3" cx="1046.5" cy="-11" r="29"/><circle class="cls-3" cx="1046.5" cy="105" r="29"/><circle class="cls-3" cx="988.5" cy="47" r="29"/><circle class="cls-3" cx="1104.5" cy="47" r="29"/><circle class="cls-3" cx="1162.5" cy="-11" r="29"/><circle class="cls-3" cx="1162.5" cy="105" r="29"/><circle class="cls-3" cx="1278.5" cy="-11" r="29"/><circle class="cls-3" cx="1278.5" cy="105" r="29"/><circle class="cls-3" cx="1220.5" cy="47" r="29"/><circle class="cls-3" cx="1336.5" cy="47" r="29"/><circle class="cls-3" cx="1394.5" cy="-11" r="29"/><circle class="cls-3" cx="1394.5" cy="105" r="29"/><circle class="cls-3" cx="1510.5" cy="-11" r="29"/><circle class="cls-3" cx="1452.5" cy="47" r="29"/><circle class="cls-3" cx="1568.5" cy="47" r="29"/><circle class="cls-3" cx="1626.5" cy="-11" r="29"/><circle class="cls-3" cx="1626.5" cy="105" r="29"/><circle class="cls-3" cx="1742.5" cy="-11" r="29"/><circle class="cls-3" cx="1742.5" cy="105" r="29"/><circle class="cls-3" cx="1684.5" cy="47" r="29"/><circle class="cls-3" cx="1800.5" cy="47" r="29"/><circle class="cls-3" cx="1858.5" cy="105" r="29"/><circle class="cls-3" cx="60.5" cy="163" r="29"/><circle class="cls-3" cx="60.5" cy="279" r="29"/><circle class="cls-3" cx="2.5" cy="221" r="29"/><circle class="cls-3" cx="118.5" cy="221" r="29"/><circle class="cls-3" cx="176.5" cy="163" r="29"/><circle class="cls-3" cx="176.5" cy="279" r="29"/><circle class="cls-3" cx="292.5" cy="163" r="29"/><circle class="cls-3" cx="292.5" cy="279" r="29"/><circle class="cls-3" cx="234.5" cy="221" r="29"/><circle class="cls-3" cx="350.5" cy="221" r="29"/><circle class="cls-3" cx="408.5" cy="163" r="29"/><circle class="cls-3" cx="408.5" cy="279" r="29"/><circle class="cls-3" cx="524.5" cy="163" r="29"/><circle class="cls-3" cx="524.5" cy="279" r="29"/><circle class="cls-3" cx="466.5" cy="221" r="29"/><circle class="cls-3" cx="582.5" cy="221" r="29"/><circle class="cls-3" cx="640.5" cy="279" r="29"/><circle class="cls-3" cx="756.5" cy="163" r="29"/><circle class="cls-3" cx="756.5" cy="279" r="29"/><circle class="cls-3" cx="698.5" cy="221" r="29"/><circle class="cls-3" cx="814.5" cy="221" r="29"/><circle class="cls-3" cx="872.5" cy="163" r="29"/><circle class="cls-3" cx="872.5" cy="279" r="29"/><circle class="cls-3" cx="988.5" cy="163" r="29"/><circle class="cls-3" cx="988.5" cy="279" r="29"/><circle class="cls-3" cx="1046.5" cy="221" r="29"/><circle class="cls-3" cx="1104.5" cy="163" r="29"/><circle class="cls-3" cx="1104.5" cy="279" r="29"/><circle class="cls-3" cx="1220.5" cy="163" r="29"/><circle class="cls-3" cx="1220.5" cy="279" r="29"/><circle class="cls-3" cx="1162.5" cy="221" r="29"/><circle class="cls-3" cx="1278.5" cy="221" r="29"/><circle class="cls-3" cx="1336.5" cy="163" r="29"/><circle class="cls-3" cx="1452.5" cy="163" r="29"/><circle class="cls-3" cx="1452.5" cy="279" r="29"/><circle class="cls-3" cx="1394.5" cy="221" r="29"/><circle class="cls-3" cx="1510.5" cy="221" r="29"/><circle class="cls-3" cx="1568.5" cy="163" r="29"/><circle class="cls-3" cx="1568.5" cy="279" r="29"/><circle class="cls-3" cx="1684.5" cy="163" r="29"/><circle class="cls-3" cx="1684.5" cy="279" r="29"/><circle class="cls-3" cx="1626.5" cy="221" r="29"/><circle class="cls-3" cx="1742.5" cy="221" r="29"/><circle class="cls-3" cx="1800.5" cy="163" r="29"/><circle class="cls-3" cx="1800.5" cy="279" r="29"/><circle class="cls-3" cx="1916.5" cy="163" r="29"/><circle class="cls-3" cx="1916.5" cy="279" r="29"/><circle class="cls-3" cx="1858.5" cy="221" r="29"/><circle class="cls-3" cx="1858.5" cy="453" r="29"/><circle class="cls-3" cx="1858.5" cy="337" r="29"/><circle class="cls-3" cx="1916.5" cy="395" r="29"/><circle class="cls-3" cx="1800.5" cy="395" r="29"/><circle class="cls-3" cx="1742.5" cy="453" r="29"/><circle class="cls-3" cx="1626.5" cy="453" r="29"/><circle class="cls-3" cx="1626.5" cy="337" r="29"/><circle class="cls-3" cx="1684.5" cy="395" r="29"/><circle class="cls-3" cx="1568.5" cy="395" r="29"/><circle class="cls-3" cx="1510.5" cy="337" r="29"/><circle class="cls-3" cx="1394.5" cy="453" r="29"/><circle class="cls-3" cx="1394.5" cy="337" r="29"/><circle class="cls-3" cx="1452.5" cy="395" r="29"/><circle class="cls-3" cx="1336.5" cy="395" r="29"/><circle class="cls-3" cx="1278.5" cy="453" r="29"/><circle class="cls-3" cx="1278.5" cy="337" r="29"/><circle class="cls-3" cx="1162.5" cy="337" r="29"/><circle class="cls-3" cx="1220.5" cy="395" r="29"/><circle class="cls-3" cx="1104.5" cy="395" r="29"/><circle class="cls-3" cx="1046.5" cy="453" r="29"/><circle class="cls-3" cx="1046.5" cy="337" r="29"/><circle class="cls-3" cx="930.5" cy="453" r="29"/><circle class="cls-3" cx="930.5" cy="337" r="29"/><circle class="cls-3" cx="872.5" cy="395" r="29"/><circle class="cls-3" cx="814.5" cy="453" r="29"/><circle class="cls-3" cx="814.5" cy="337" r="29"/><circle class="cls-3" cx="698.5" cy="453" r="29"/><circle class="cls-3" cx="698.5" cy="337" r="29"/><circle class="cls-3" cx="756.5" cy="395" r="29"/><circle class="cls-3" cx="640.5" cy="395" r="29"/><circle class="cls-3" cx="582.5" cy="453" r="29"/><circle class="cls-3" cx="582.5" cy="337" r="29"/><circle class="cls-3" cx="466.5" cy="453" r="29"/><circle class="cls-3" cx="524.5" cy="395" r="29"/><circle class="cls-3" cx="408.5" cy="395" r="29"/><circle class="cls-3" cx="350.5" cy="453" r="29"/><circle class="cls-3" cx="350.5" cy="337" r="29"/><circle class="cls-3" cx="234.5" cy="453" r="29"/><circle class="cls-3" cx="292.5" cy="395" r="29"/><circle class="cls-3" cx="176.5" cy="395" r="29"/><circle class="cls-3" cx="118.5" cy="337" r="29"/><circle class="cls-3" cx="2.5" cy="453" r="29"/><circle class="cls-3" cx="2.5" cy="337" r="29"/><circle class="cls-3" cx="60.5" cy="395" r="29"/><circle class="cls-3" cx="1916.5" cy="511" r="29"/><circle class="cls-3" cx="1858.5" cy="569" r="29"/><circle class="cls-3" cx="1800.5" cy="627" r="29"/><circle class="cls-3" cx="1800.5" cy="511" r="29"/><circle class="cls-3" cx="1684.5" cy="627" r="29"/><circle class="cls-3" cx="1684.5" cy="511" r="29"/><circle class="cls-3" cx="1742.5" cy="569" r="29"/><circle class="cls-3" cx="1626.5" cy="569" r="29"/><circle class="cls-3" cx="1568.5" cy="627" r="29"/><circle class="cls-3" cx="1568.5" cy="511" r="29"/><circle class="cls-3" cx="1452.5" cy="627" r="29"/><circle class="cls-3" cx="1452.5" cy="511" r="29"/><circle class="cls-3" cx="1510.5" cy="569" r="29"/><circle class="cls-3" cx="1394.5" cy="569" r="29"/><circle class="cls-3" cx="1336.5" cy="627" r="29"/><circle class="cls-3" cx="1336.5" cy="511" r="29"/><circle class="cls-3" cx="1220.5" cy="511" r="29"/><circle class="cls-3" cx="1278.5" cy="569" r="29"/><circle class="cls-3" cx="1162.5" cy="569" r="29"/><circle class="cls-3" cx="1104.5" cy="627" r="29"/><circle class="cls-3" cx="1104.5" cy="511" r="29"/><circle class="cls-3" cx="988.5" cy="627" r="29"/><circle class="cls-3" cx="988.5" cy="511" r="29"/><circle class="cls-3" cx="1046.5" cy="569" r="29"/><circle class="cls-3" cx="930.5" cy="569" r="29"/><circle class="cls-3" cx="872.5" cy="511" r="29"/><circle class="cls-3" cx="756.5" cy="627" r="29"/><circle class="cls-3" cx="756.5" cy="511" r="29"/><circle class="cls-3" cx="814.5" cy="569" r="29"/><circle class="cls-3" cx="698.5" cy="569" r="29"/><circle class="cls-3" cx="640.5" cy="627" r="29"/><circle class="cls-3" cx="640.5" cy="511" r="29"/><circle class="cls-3" cx="524.5" cy="627" r="29"/><circle class="cls-3" cx="582.5" cy="569" r="29"/><circle class="cls-3" cx="466.5" cy="569" r="29"/><circle class="cls-3" cx="408.5" cy="627" r="29"/><circle class="cls-3" cx="408.5" cy="511" r="29"/><circle class="cls-3" cx="292.5" cy="627" r="29"/><circle class="cls-3" cx="292.5" cy="511" r="29"/><circle class="cls-3" cx="350.5" cy="569" r="29"/><circle class="cls-3" cx="234.5" cy="569" r="29"/><circle class="cls-3" cx="176.5" cy="627" r="29"/><circle class="cls-3" cx="176.5" cy="511" r="29"/><circle class="cls-3" cx="60.5" cy="627" r="29"/><circle class="cls-3" cx="60.5" cy="511" r="29"/><circle class="cls-3" cx="118.5" cy="569" r="29"/><circle class="cls-3" cx="2.5" cy="569" r="29"/><circle class="cls-3" cx="1859.5" cy="801" r="29"/><circle class="cls-3" cx="1917.5" cy="743" r="29"/><circle class="cls-3" cx="1801.5" cy="743" r="29"/><circle class="cls-3" cx="1743.5" cy="801" r="29"/><circle class="cls-3" cx="1743.5" cy="685" r="29"/><circle class="cls-3" cx="1627.5" cy="801" r="29"/><circle class="cls-3" cx="1627.5" cy="685" r="29"/><circle class="cls-3" cx="1685.5" cy="743" r="29"/><circle class="cls-3" cx="1511.5" cy="801" r="29"/><circle class="cls-3" cx="1511.5" cy="685" r="29"/><circle class="cls-3" cx="1395.5" cy="685" r="29"/><circle class="cls-3" cx="1453.5" cy="743" r="29"/><circle class="cls-3" cx="1337.5" cy="743" r="29"/><circle class="cls-3" cx="1279.5" cy="801" r="29"/><circle class="cls-3" cx="1279.5" cy="685" r="29"/><circle class="cls-3" cx="1163.5" cy="801" r="29"/><circle class="cls-3" cx="1163.5" cy="685" r="29"/><circle class="cls-3" cx="1221.5" cy="743" r="29"/><circle class="cls-3" cx="1105.5" cy="743" r="29"/><circle class="cls-3" cx="1047.5" cy="801" r="29"/><circle class="cls-3" cx="1047.5" cy="685" r="29"/><circle class="cls-3" cx="931.5" cy="801" r="29"/><circle class="cls-3" cx="931.5" cy="685" r="29"/><circle class="cls-3" cx="989.5" cy="743" r="29"/><circle class="cls-3" cx="873.5" cy="743" r="29"/><circle class="cls-3" cx="815.5" cy="801" r="29"/><circle class="cls-3" cx="815.5" cy="685" r="29"/><circle class="cls-3" cx="699.5" cy="801" r="29"/><circle class="cls-3" cx="699.5" cy="685" r="29"/><circle class="cls-3" cx="757.5" cy="743" r="29"/><circle class="cls-3" cx="641.5" cy="743" r="29"/><circle class="cls-3" cx="583.5" cy="801" r="29"/><circle class="cls-3" cx="467.5" cy="801" r="29"/><circle class="cls-3" cx="467.5" cy="685" r="29"/><circle class="cls-3" cx="525.5" cy="743" r="29"/><circle class="cls-3" cx="409.5" cy="743" r="29"/><circle class="cls-3" cx="351.5" cy="801" r="29"/><circle class="cls-3" cx="351.5" cy="685" r="29"/><circle class="cls-3" cx="235.5" cy="801" r="29"/><circle class="cls-3" cx="235.5" cy="685" r="29"/><circle class="cls-3" cx="293.5" cy="743" r="29"/><circle class="cls-3" cx="119.5" cy="801" r="29"/><circle class="cls-3" cx="119.5" cy="685" r="29"/><circle class="cls-3" cx="3.5" cy="801" r="29"/><circle class="cls-3" cx="61.5" cy="743" r="29"/><circle class="cls-3" cx="1917.5" cy="975" r="29"/><circle class="cls-3" cx="1917.5" cy="859" r="29"/><circle class="cls-3" cx="1859.5" cy="917" r="29"/><circle class="cls-3" cx="1801.5" cy="975" r="29"/><circle class="cls-3" cx="1801.5" cy="859" r="29"/><circle class="cls-3" cx="1685.5" cy="975" r="29"/><circle class="cls-3" cx="1685.5" cy="859" r="29"/><circle class="cls-3" cx="1743.5" cy="917" r="29"/><circle class="cls-3" cx="1627.5" cy="917" r="29"/><circle class="cls-3" cx="1569.5" cy="975" r="29"/><circle class="cls-3" cx="1569.5" cy="859" r="29"/><circle class="cls-3" cx="1453.5" cy="975" r="29"/><circle class="cls-3" cx="1453.5" cy="859" r="29"/><circle class="cls-3" cx="1511.5" cy="917" r="29"/><circle class="cls-3" cx="1395.5" cy="917" r="29"/><circle class="cls-3" cx="1337.5" cy="975" r="29"/><circle class="cls-3" cx="1337.5" cy="859" r="29"/><circle class="cls-3" cx="1221.5" cy="975" r="29"/><circle class="cls-3" cx="1221.5" cy="859" r="29"/><circle class="cls-3" cx="1279.5" cy="917" r="29"/><circle class="cls-3" cx="1163.5" cy="917" r="29"/><circle class="cls-3" cx="1105.5" cy="975" r="29"/><circle class="cls-3" cx="1105.5" cy="859" r="29"/><circle class="cls-3" cx="989.5" cy="975" r="29"/><circle class="cls-3" cx="1047.5" cy="917" r="29"/><circle class="cls-3" cx="931.5" cy="917" r="29"/><circle class="cls-3" cx="873.5" cy="975" r="29"/><circle class="cls-3" cx="873.5" cy="859" r="29"/><circle class="cls-3" cx="757.5" cy="975" r="29"/><circle class="cls-3" cx="757.5" cy="859" r="29"/><circle class="cls-3" cx="815.5" cy="917" r="29"/><circle class="cls-3" cx="699.5" cy="917" r="29"/><circle class="cls-3" cx="641.5" cy="859" r="29"/><circle class="cls-3" cx="525.5" cy="975" r="29"/><circle class="cls-3" cx="525.5" cy="859" r="29"/><circle class="cls-3" cx="583.5" cy="917" r="29"/><circle class="cls-3" cx="467.5" cy="917" r="29"/><circle class="cls-3" cx="409.5" cy="975" r="29"/><circle class="cls-3" cx="409.5" cy="859" r="29"/><circle class="cls-3" cx="293.5" cy="975" r="29"/><circle class="cls-3" cx="293.5" cy="859" r="29"/><circle class="cls-3" cx="235.5" cy="917" r="29"/><circle class="cls-3" cx="177.5" cy="975" r="29"/><circle class="cls-3" cx="177.5" cy="859" r="29"/><circle class="cls-3" cx="61.5" cy="975" r="29"/><circle class="cls-3" cx="61.5" cy="859" r="29"/><circle class="cls-3" cx="119.5" cy="917" r="29"/><circle class="cls-3" cx="3.5" cy="917" r="29"/><circle class="cls-3" cx="1859.5" cy="1033" r="29"/><circle class="cls-3" cx="1917.5" cy="1091" r="29"/><circle class="cls-3" cx="1801.5" cy="1091" r="29"/><circle class="cls-3" cx="1743.5" cy="1033" r="29"/><circle class="cls-3" cx="1627.5" cy="1033" r="29"/><circle class="cls-3" cx="1569.5" cy="1091" r="29"/><circle class="cls-3" cx="1511.5" cy="1033" r="29"/><circle class="cls-3" cx="1453.5" cy="1091" r="29"/><circle class="cls-3" cx="1337.5" cy="1091" r="29"/><circle class="cls-3" cx="1279.5" cy="1033" r="29"/><circle class="cls-3" cx="1163.5" cy="1033" r="29"/><circle class="cls-3" cx="1221.5" cy="1091" r="29"/><circle class="cls-3" cx="1105.5" cy="1091" r="29"/><circle class="cls-3" cx="1047.5" cy="1033" r="29"/><circle class="cls-3" cx="931.5" cy="1033" r="29"/><circle class="cls-3" cx="989.5" cy="1091" r="29"/><circle class="cls-3" cx="873.5" cy="1091" r="29"/><circle class="cls-3" cx="815.5" cy="1033" r="29"/><circle class="cls-3" cx="699.5" cy="1033" r="29"/><circle class="cls-3" cx="757.5" cy="1091" r="29"/><circle class="cls-3" cx="641.5" cy="1091" r="29"/><circle class="cls-3" cx="583.5" cy="1033" r="29"/><circle class="cls-3" cx="467.5" cy="1033" r="29"/><circle class="cls-3" cx="525.5" cy="1091" r="29"/><circle class="cls-3" cx="409.5" cy="1091" r="29"/><circle class="cls-3" cx="351.5" cy="1033" r="29"/><circle class="cls-3" cx="235.5" cy="1033" r="29"/><circle class="cls-3" cx="177.5" cy="1091" r="29"/><circle class="cls-3" cx="119.5" cy="1033" r="29"/><circle class="cls-3" cx="3.5" cy="1033" r="29"/><circle class="cls-3" cx="61.5" cy="1091" r="29"/><circle class="cls-3" cx="118.5" cy="-11" r="29"/><circle class="cls-3" cx="118.5" cy="105" r="29"/><circle class="cls-3" cx="524.5" cy="47" r="29"/><circle class="cls-3" cx="814.5" cy="-11" r="29"/><circle class="cls-3" cx="1510.5" cy="105" r="29"/><circle class="cls-3" cx="1858.5" cy="-11" r="29"/><circle class="cls-3" cx="1916.5" cy="47" r="29"/><circle class="cls-3" cx="640.5" cy="163" r="29"/><circle class="cls-3" cx="930.5" cy="221" r="29"/><circle class="cls-3" cx="1336.5" cy="279" r="29"/><circle class="cls-3" cx="1742.5" cy="337" r="29"/><circle class="cls-3" cx="1510.5" cy="453" r="29"/><circle class="cls-3" cx="1162.5" cy="453" r="29"/><circle class="cls-3" cx="988.5" cy="395" r="29"/><circle class="cls-3" cx="466.5" cy="337" r="29"/><circle class="cls-3" cx="234.5" cy="337" r="29"/><circle class="cls-3" cx="118.5" cy="453" r="29"/><circle class="cls-3" cx="1916.5" cy="627" r="29"/><circle class="cls-3" cx="1220.5" cy="627" r="29"/><circle class="cls-3" cx="872.5" cy="627" r="29"/><circle class="cls-3" cx="524.5" cy="511" r="29"/><circle class="cls-3" cx="1859.5" cy="685" r="29"/><circle class="cls-3" cx="1569.5" cy="743" r="29"/><circle class="cls-3" cx="1395.5" cy="801" r="29"/><circle class="cls-3" cx="583.5" cy="685" r="29"/><circle class="cls-3" cx="177.5" cy="743" r="29"/><circle class="cls-3" cx="3.5" cy="685" r="29"/><circle class="cls-3" cx="989.5" cy="859" r="29"/><circle class="cls-3" cx="641.5" cy="975" r="29"/><circle class="cls-3" cx="351.5" cy="917" r="29"/><circle class="cls-3" cx="1685.5" cy="1091" r="29"/><circle class="cls-3" cx="1395.5" cy="1033" r="29"/><circle class="cls-3" cx="293.5" cy="1091" r="29"/><path class="cls-4" d="M44.33,15A28.77,28.77,0,0,0,46.5,4,29,29,0,1,0,15,32.89V15Z"/><path class="cls-4" d="M-11.5,120A29,29,0,0,0,15,148.89V91.11A29,29,0,0,0-11.5,120Z"/><path class="cls-4" d="M162.5,4a29,29,0,0,0-58,0,28.77,28.77,0,0,0,2.17,11h53.66A28.77,28.77,0,0,0,162.5,4Z"/><path class="cls-4" d="M278.5,4a29,29,0,0,0-58,0,28.77,28.77,0,0,0,2.17,11h53.66A28.77,28.77,0,0,0,278.5,4Z"/><path class="cls-4" d="M394.5,4a29,29,0,0,0-58,0,28.77,28.77,0,0,0,2.17,11h53.66A28.77,28.77,0,0,0,394.5,4Z"/><path class="cls-4" d="M510.5,4a29,29,0,0,0-58,0,28.77,28.77,0,0,0,2.17,11h53.66A28.77,28.77,0,0,0,510.5,4Z"/><path class="cls-4" d="M626.5,4a29,29,0,0,0-58,0,28.77,28.77,0,0,0,2.17,11h53.66A28.77,28.77,0,0,0,626.5,4Z"/><path class="cls-4" d="M742.5,4a29,29,0,0,0-58,0,28.77,28.77,0,0,0,2.17,11h53.66A28.77,28.77,0,0,0,742.5,4Z"/><path class="cls-4" d="M858.5,4a29,29,0,0,0-58,0,28.77,28.77,0,0,0,2.17,11h53.66A28.77,28.77,0,0,0,858.5,4Z"/><path class="cls-4" d="M974.5,4a29,29,0,0,0-58,0,28.77,28.77,0,0,0,2.17,11h53.66A28.77,28.77,0,0,0,974.5,4Z"/><path class="cls-4" d="M1090.5,4a29,29,0,0,0-58,0,28.77,28.77,0,0,0,2.17,11h53.66A28.77,28.77,0,0,0,1090.5,4Z"/><path class="cls-4" d="M1206.5,4a29,29,0,0,0-58,0,28.77,28.77,0,0,0,2.17,11h53.66A28.77,28.77,0,0,0,1206.5,4Z"/><path class="cls-4" d="M1322.5,4a29,29,0,0,0-58,0,28.77,28.77,0,0,0,2.17,11h53.66A28.77,28.77,0,0,0,1322.5,4Z"/><path class="cls-4" d="M1438.5,4a29,29,0,0,0-58,0,28.77,28.77,0,0,0,2.17,11h53.66A28.77,28.77,0,0,0,1438.5,4Z"/><path class="cls-4" d="M1554.5,4a29,29,0,0,0-58,0,28.77,28.77,0,0,0,2.17,11h53.66A28.77,28.77,0,0,0,1554.5,4Z"/><path class="cls-4" d="M1670.5,4a29,29,0,0,0-58,0,28.77,28.77,0,0,0,2.17,11h53.66A28.77,28.77,0,0,0,1670.5,4Z"/><path class="cls-4" d="M1786.5,4a29,29,0,0,0-58,0,28.77,28.77,0,0,0,2.17,11h53.66A28.77,28.77,0,0,0,1786.5,4Z"/><path class="cls-4" d="M1902.5,4a29,29,0,0,0-58,0,28.77,28.77,0,0,0,2.17,11h53.66A28.77,28.77,0,0,0,1902.5,4Z"/><path class="cls-4" d="M-11.5,236A29,29,0,0,0,15,264.89V207.11A29,29,0,0,0-11.5,236Z"/><path class="cls-4" d="M-11.5,468A29,29,0,0,0,15,496.89V439.11A29,29,0,0,0-11.5,468Z"/><path class="cls-4" d="M-11.5,352A29,29,0,0,0,15,380.89V323.11A29,29,0,0,0-11.5,352Z"/><path class="cls-4" d="M-11.5,584A29,29,0,0,0,15,612.89V555.11A29,29,0,0,0-11.5,584Z"/><path class="cls-4" d="M-10.5,816A29,29,0,0,0,15,844.78V787.22A29,29,0,0,0-10.5,816Z"/><path class="cls-4" d="M-10.5,700A29,29,0,0,0,15,728.78V671.22A29,29,0,0,0-10.5,700Z"/><path class="cls-4" d="M-10.5,932A29,29,0,0,0,15,960.78V903.22A29,29,0,0,0-10.5,932Z"/><path class="cls-4" d="M1905.67,1095a29,29,0,1,0,29.33-17.89V1095Z"/><path class="cls-4" d="M-10.5,1048A29,29,0,0,0,15,1076.78v-57.56A29,29,0,0,0-10.5,1048Z"/><path class="cls-4" d="M1932.5,903a29,29,0,0,1,0-58c.84,0,1.68,0,2.5.11V786.89c-.82.07-1.66.11-2.5.11a29,29,0,0,1,0-58c.84,0,1.68,0,2.5.11V670.78a29,29,0,1,1,0-57.56V554.78a29,29,0,1,1,0-57.56V438.78a29,29,0,1,1,0-57.56V322.78a29,29,0,1,1,0-57.56V206.78a29,29,0,1,1,0-57.56V90.78a29,29,0,1,1,0-57.56V15h-34.67a29,29,0,0,1-53.66,0h-62.34a29,29,0,0,1-53.66,0h-62.34a29,29,0,0,1-53.66,0h-62.34a29,29,0,0,1-53.66,0h-62.34a29,29,0,0,1-53.66,0h-62.34a29,29,0,0,1-53.66,0h-62.34a29,29,0,0,1-53.66,0h-62.34a29,29,0,0,1-53.66,0H972.33a29,29,0,0,1-53.66,0H856.33a29,29,0,0,1-53.66,0H740.33a29,29,0,0,1-53.66,0H624.33a29,29,0,0,1-53.66,0H508.33a29,29,0,0,1-53.66,0H392.33a29,29,0,0,1-53.66,0H276.33a29,29,0,0,1-53.66,0H160.33a29,29,0,0,1-53.66,0H44.33A29,29,0,0,1,17.5,33c-.84,0-1.68,0-2.5-.11V91.11c.82-.07,1.66-.11,2.5-.11a29,29,0,0,1,0,58c-.84,0-1.68,0-2.5-.11v58.22c.82-.07,1.66-.11,2.5-.11a29,29,0,0,1,0,58c-.84,0-1.68,0-2.5-.11v58.22c.82-.07,1.66-.11,2.5-.11a29,29,0,0,1,0,58c-.84,0-1.68,0-2.5-.11v58.22c.82-.07,1.66-.11,2.5-.11a29,29,0,0,1,0,58c-.84,0-1.68,0-2.5-.11v58.22c.82-.07,1.66-.11,2.5-.11a29,29,0,0,1,0,58c-.84,0-1.68,0-2.5-.11v58.33a29,29,0,1,1,0,57.56v58.44a29,29,0,1,1,0,57.56v58.44a29,29,0,1,1,0,57.56v58.44a29,29,0,1,1,0,57.56V1095H49.67a29,29,0,0,1,53.66,0h62.34a29,29,0,0,1,53.66,0h62.34a29,29,0,0,1,53.66,0h62.34a29,29,0,0,1,53.66,0h62.34a29,29,0,0,1,53.66,0h62.34a29,29,0,0,1,53.66,0h62.34a29,29,0,0,1,53.66,0h62.34a29,29,0,0,1,53.66,0h62.34a29,29,0,0,1,53.66,0h62.34a29,29,0,0,1,53.66,0h62.34a29,29,0,0,1,53.66,0h62.34a29,29,0,0,1,53.66,0h62.34a29,29,0,0,1,53.66,0h62.34a29,29,0,0,1,53.66,0h62.34a29,29,0,0,1,53.66,0h62.34a29,29,0,0,1,53.66,0h62.34a29,29,0,0,1,26.83-18c.84,0,1.68,0,2.5.11v-58.22c-.82.07-1.66.11-2.5.11a29,29,0,0,1,0-58c.84,0,1.68,0,2.5.11V902.89C1934.18,903,1933.34,903,1932.5,903Zm-58-58a29,29,0,1,1,29-29A29,29,0,0,1,1874.5,845Zm-1740,0a29,29,0,1,1,29-29A29,29,0,0,1,134.5,845Zm29,87a29,29,0,1,1-29-29A29,29,0,0,1,163.5,932Zm1652-667a29,29,0,1,1-29,29A29,29,0,0,1,1815.5,265Zm-29-87a29,29,0,1,1,29,29A29,29,0,0,1,1786.5,178Zm-29,261a29,29,0,1,1-29,29A29,29,0,0,1,1757.5,439Zm-29-87a29,29,0,1,1,29,29A29,29,0,0,1,1728.5,352Zm-29,87a29,29,0,1,1,29-29A29,29,0,0,1,1699.5,439Zm0,116a29,29,0,1,1,29-29A29,29,0,0,1,1699.5,555Zm29,87a29,29,0,1,1-29-29A29,29,0,0,1,1728.5,642Zm-87-261a29,29,0,1,1,29-29A29,29,0,0,1,1641.5,381Zm0,58a29,29,0,1,1-29,29A29,29,0,0,1,1641.5,439Zm-58,0a29,29,0,1,1,29-29A29,29,0,0,1,1583.5,439Zm0,116a29,29,0,1,1,29-29A29,29,0,0,1,1583.5,555Zm29,87a29,29,0,1,1-29-29A29,29,0,0,1,1612.5,642Zm-87-261a29,29,0,1,1,29-29A29,29,0,0,1,1525.5,381Zm0,58a29,29,0,1,1-29,29A29,29,0,0,1,1525.5,439Zm-58,0a29,29,0,1,1,29-29A29,29,0,0,1,1467.5,439Zm0,116a29,29,0,1,1,29-29A29,29,0,0,1,1467.5,555Zm29,87a29,29,0,1,1-29-29A29,29,0,0,1,1496.5,642Zm-87-261a29,29,0,1,1,29-29A29,29,0,0,1,1409.5,381Zm0,58a29,29,0,1,1-29,29A29,29,0,0,1,1409.5,439Zm-58,0a29,29,0,1,1,29-29A29,29,0,0,1,1351.5,439Zm0,116a29,29,0,1,1,29-29A29,29,0,0,1,1351.5,555Zm29,87a29,29,0,1,1-29-29A29,29,0,0,1,1380.5,642Zm-87-261a29,29,0,1,1,29-29A29,29,0,0,1,1293.5,381Zm0,58a29,29,0,1,1-29,29A29,29,0,0,1,1293.5,439Zm-58,0a29,29,0,1,1,29-29A29,29,0,0,1,1235.5,439Zm0,116a29,29,0,1,1,29-29A29,29,0,0,1,1235.5,555Zm29,87a29,29,0,1,1-29-29A29,29,0,0,1,1264.5,642Zm-87-261a29,29,0,1,1,29-29A29,29,0,0,1,1177.5,381Zm0,58a29,29,0,1,1-29,29A29,29,0,0,1,1177.5,439Zm-58,0a29,29,0,1,1,29-29A29,29,0,0,1,1119.5,439Zm0,116a29,29,0,1,1,29-29A29,29,0,0,1,1119.5,555Zm29,87a29,29,0,1,1-29-29A29,29,0,0,1,1148.5,642Zm-87-261a29,29,0,1,1,29-29A29,29,0,0,1,1061.5,381Zm0,58a29,29,0,1,1-29,29A29,29,0,0,1,1061.5,439Zm-58,0a29,29,0,1,1,29-29A29,29,0,0,1,1003.5,439Zm0,116a29,29,0,1,1,29-29A29,29,0,0,1,1003.5,555Zm29,87a29,29,0,1,1-29-29A29,29,0,0,1,1032.5,642Zm-87-261a29,29,0,1,1,29-29A29,29,0,0,1,945.5,381Zm0,58a29,29,0,1,1-29,29A29,29,0,0,1,945.5,439Zm-58,0a29,29,0,1,1,29-29A29,29,0,0,1,887.5,439Zm0,116a29,29,0,1,1,29-29A29,29,0,0,1,887.5,555Zm29,87a29,29,0,1,1-29-29A29,29,0,0,1,916.5,642Zm-87-261a29,29,0,1,1,29-29A29,29,0,0,1,829.5,381Zm0,58a29,29,0,1,1-29,29A29,29,0,0,1,829.5,439Zm-58,0a29,29,0,1,1,29-29A29,29,0,0,1,771.5,439Zm0,116a29,29,0,1,1,29-29A29,29,0,0,1,771.5,555Zm29,87a29,29,0,1,1-29-29A29,29,0,0,1,800.5,642Zm-87-261a29,29,0,1,1,29-29A29,29,0,0,1,713.5,381Zm0,58a29,29,0,1,1-29,29A29,29,0,0,1,713.5,439Zm-58,0a29,29,0,1,1,29-29A29,29,0,0,1,655.5,439Zm0,116a29,29,0,1,1,29-29A29,29,0,0,1,655.5,555Zm29,87a29,29,0,1,1-29-29A29,29,0,0,1,684.5,642Zm-87-261a29,29,0,1,1,29-29A29,29,0,0,1,597.5,381Zm0,58a29,29,0,1,1-29,29A29,29,0,0,1,597.5,439Zm-58,0a29,29,0,1,1,29-29A29,29,0,0,1,539.5,439Zm0,116a29,29,0,1,1,29-29A29,29,0,0,1,539.5,555Zm29,87a29,29,0,1,1-29-29A29,29,0,0,1,568.5,642Zm-87-261a29,29,0,1,1,29-29A29,29,0,0,1,481.5,381Zm0,58a29,29,0,1,1-29,29A29,29,0,0,1,481.5,439Zm-58,0a29,29,0,1,1,29-29A29,29,0,0,1,423.5,439Zm0,116a29,29,0,1,1,29-29A29,29,0,0,1,423.5,555Zm29,87a29,29,0,1,1-29-29A29,29,0,0,1,452.5,642Zm-87-261a29,29,0,1,1,29-29A29,29,0,0,1,365.5,381Zm0,58a29,29,0,1,1-29,29A29,29,0,0,1,365.5,439Zm-58,0a29,29,0,1,1,29-29A29,29,0,0,1,307.5,439Zm0,116a29,29,0,1,1,29-29A29,29,0,0,1,307.5,555Zm29,87a29,29,0,1,1-29-29A29,29,0,0,1,336.5,642Zm-87-261a29,29,0,1,1,29-29A29,29,0,0,1,249.5,381Zm0,58a29,29,0,1,1-29,29A29,29,0,0,1,249.5,439Zm-58,0a29,29,0,1,1,29-29A29,29,0,0,1,191.5,439Zm0,58a29,29,0,1,1-29,29A29,29,0,0,1,191.5,497Zm0,116a29,29,0,1,1-29,29A29,29,0,0,1,191.5,613Zm1,116a29,29,0,1,1-29,29A29,29,0,0,1,192.5,729Zm28-145a29,29,0,1,1,29,29A29,29,0,0,1,220.5,584Zm30,87a29,29,0,1,1-29,29A29,29,0,0,1,250.5,671Zm58,58a29,29,0,1,1-29,29A29,29,0,0,1,308.5,729Zm28-145a29,29,0,1,1,29,29A29,29,0,0,1,336.5,584Zm30,87a29,29,0,1,1-29,29A29,29,0,0,1,366.5,671Zm58,58a29,29,0,1,1-29,29A29,29,0,0,1,424.5,729Zm28-145a29,29,0,1,1,29,29A29,29,0,0,1,452.5,584Zm30,87a29,29,0,1,1-29,29A29,29,0,0,1,482.5,671Zm58,58a29,29,0,1,1-29,29A29,29,0,0,1,540.5,729Zm28-145a29,29,0,1,1,29,29A29,29,0,0,1,568.5,584Zm30,87a29,29,0,1,1-29,29A29,29,0,0,1,598.5,671Zm58,58a29,29,0,1,1-29,29A29,29,0,0,1,656.5,729Zm28-145a29,29,0,1,1,29,29A29,29,0,0,1,684.5,584Zm30,87a29,29,0,1,1-29,29A29,29,0,0,1,714.5,671Zm58,58a29,29,0,1,1-29,29A29,29,0,0,1,772.5,729Zm28-145a29,29,0,1,1,29,29A29,29,0,0,1,800.5,584Zm30,87a29,29,0,1,1-29,29A29,29,0,0,1,830.5,671Zm58,58a29,29,0,1,1-29,29A29,29,0,0,1,888.5,729Zm28-145a29,29,0,1,1,29,29A29,29,0,0,1,916.5,584Zm30,87a29,29,0,1,1-29,29A29,29,0,0,1,946.5,671Zm58,58a29,29,0,1,1-29,29A29,29,0,0,1,1004.5,729Zm28-145a29,29,0,1,1,29,29A29,29,0,0,1,1032.5,584Zm30,87a29,29,0,1,1-29,29A29,29,0,0,1,1062.5,671Zm58,58a29,29,0,1,1-29,29A29,29,0,0,1,1120.5,729Zm28-145a29,29,0,1,1,29,29A29,29,0,0,1,1148.5,584Zm30,87a29,29,0,1,1-29,29A29,29,0,0,1,1178.5,671Zm58,58a29,29,0,1,1-29,29A29,29,0,0,1,1236.5,729Zm28-145a29,29,0,1,1,29,29A29,29,0,0,1,1264.5,584Zm30,87a29,29,0,1,1-29,29A29,29,0,0,1,1294.5,671Zm58,58a29,29,0,1,1-29,29A29,29,0,0,1,1352.5,729Zm28-145a29,29,0,1,1,29,29A29,29,0,0,1,1380.5,584Zm30,87a29,29,0,1,1-29,29A29,29,0,0,1,1410.5,671Zm58,58a29,29,0,1,1-29,29A29,29,0,0,1,1468.5,729Zm28-145a29,29,0,1,1,29,29A29,29,0,0,1,1496.5,584Zm30,87a29,29,0,1,1-29,29A29,29,0,0,1,1526.5,671Zm58,58a29,29,0,1,1-29,29A29,29,0,0,1,1584.5,729Zm28-145a29,29,0,1,1,29,29A29,29,0,0,1,1612.5,584Zm30,87a29,29,0,1,1-29,29A29,29,0,0,1,1642.5,671Zm58,58a29,29,0,1,1-29,29A29,29,0,0,1,1700.5,729Zm28-145a29,29,0,1,1,29,29A29,29,0,0,1,1728.5,584Zm30,87a29,29,0,1,1-29,29A29,29,0,0,1,1758.5,671Zm28-29a29,29,0,1,1,29,29A29,29,0,0,1,1786.5,642Zm29-87a29,29,0,1,1,29-29A29,29,0,0,1,1815.5,555Zm0-116a29,29,0,1,1,29-29A29,29,0,0,1,1815.5,439Zm-58-174a29,29,0,1,1,29-29A29,29,0,0,1,1757.5,265Zm-58-58a29,29,0,1,1,29-29A29,29,0,0,1,1699.5,207Zm0,58a29,29,0,1,1-29,29A29,29,0,0,1,1699.5,265Zm-58,0a29,29,0,1,1,29-29A29,29,0,0,1,1641.5,265Zm-58-58a29,29,0,1,1,29-29A29,29,0,0,1,1583.5,207Zm0,58a29,29,0,1,1-29,29A29,29,0,0,1,1583.5,265Zm-58,0a29,29,0,1,1,29-29A29,29,0,0,1,1525.5,265Zm-58-58a29,29,0,1,1,29-29A29,29,0,0,1,1467.5,207Zm0,58a29,29,0,1,1-29,29A29,29,0,0,1,1467.5,265Zm-58,0a29,29,0,1,1,29-29A29,29,0,0,1,1409.5,265Zm-58-58a29,29,0,1,1,29-29A29,29,0,0,1,1351.5,207Zm0,58a29,29,0,1,1-29,29A29,29,0,0,1,1351.5,265Zm-58,0a29,29,0,1,1,29-29A29,29,0,0,1,1293.5,265Zm-58-58a29,29,0,1,1,29-29A29,29,0,0,1,1235.5,207Zm0,58a29,29,0,1,1-29,29A29,29,0,0,1,1235.5,265Zm-58,0a29,29,0,1,1,29-29A29,29,0,0,1,1177.5,265Zm-58-58a29,29,0,1,1,29-29A29,29,0,0,1,1119.5,207Zm0,58a29,29,0,1,1-29,29A29,29,0,0,1,1119.5,265Zm-58,0a29,29,0,1,1,29-29A29,29,0,0,1,1061.5,265Zm-58-58a29,29,0,1,1,29-29A29,29,0,0,1,1003.5,207Zm0,58a29,29,0,1,1-29,29A29,29,0,0,1,1003.5,265Zm-58,0a29,29,0,1,1,29-29A29,29,0,0,1,945.5,265Zm-58-58a29,29,0,1,1,29-29A29,29,0,0,1,887.5,207Zm0,58a29,29,0,1,1-29,29A29,29,0,0,1,887.5,265Zm-58,0a29,29,0,1,1,29-29A29,29,0,0,1,829.5,265Zm-58-58a29,29,0,1,1,29-29A29,29,0,0,1,771.5,207Zm0,58a29,29,0,1,1-29,29A29,29,0,0,1,771.5,265Zm-58,0a29,29,0,1,1,29-29A29,29,0,0,1,713.5,265Zm-58-58a29,29,0,1,1,29-29A29,29,0,0,1,655.5,207Zm0,58a29,29,0,1,1-29,29A29,29,0,0,1,655.5,265Zm-58,0a29,29,0,1,1,29-29A29,29,0,0,1,597.5,265Zm-58-58a29,29,0,1,1,29-29A29,29,0,0,1,539.5,207Zm0,58a29,29,0,1,1-29,29A29,29,0,0,1,539.5,265Zm-58,0a29,29,0,1,1,29-29A29,29,0,0,1,481.5,265Zm-58-58a29,29,0,1,1,29-29A29,29,0,0,1,423.5,207Zm0,58a29,29,0,1,1-29,29A29,29,0,0,1,423.5,265Zm-58,0a29,29,0,1,1,29-29A29,29,0,0,1,365.5,265Zm-58-58a29,29,0,1,1,29-29A29,29,0,0,1,307.5,207Zm0,58a29,29,0,1,1-29,29A29,29,0,0,1,307.5,265Zm-58,0a29,29,0,1,1,29-29A29,29,0,0,1,249.5,265Zm-58-58a29,29,0,1,1,29-29A29,29,0,0,1,191.5,207Zm0,58a29,29,0,1,1-29,29A29,29,0,0,1,191.5,265Zm-58,0a29,29,0,1,1,29-29A29,29,0,0,1,133.5,265Zm0,58a29,29,0,1,1-29,29A29,29,0,0,1,133.5,323Zm0,116a29,29,0,1,1-29,29A29,29,0,0,1,133.5,439Zm0,116a29,29,0,1,1-29,29A29,29,0,0,1,133.5,555Zm1,116a29,29,0,1,1-29,29A29,29,0,0,1,134.5,671Zm58,174a29,29,0,1,1-29,29A29,29,0,0,1,192.5,845Zm58,58a29,29,0,1,1-29,29A29,29,0,0,1,250.5,903Zm0-58a29,29,0,1,1,29-29A29,29,0,0,1,250.5,845Zm58,0a29,29,0,1,1-29,29A29,29,0,0,1,308.5,845Zm58,58a29,29,0,1,1-29,29A29,29,0,0,1,366.5,903Zm0-58a29,29,0,1,1,29-29A29,29,0,0,1,366.5,845Zm58,0a29,29,0,1,1-29,29A29,29,0,0,1,424.5,845Zm58,58a29,29,0,1,1-29,29A29,29,0,0,1,482.5,903Zm0-58a29,29,0,1,1,29-29A29,29,0,0,1,482.5,845Zm58,0a29,29,0,1,1-29,29A29,29,0,0,1,540.5,845Zm58,58a29,29,0,1,1-29,29A29,29,0,0,1,598.5,903Zm0-58a29,29,0,1,1,29-29A29,29,0,0,1,598.5,845Zm58,0a29,29,0,1,1-29,29A29,29,0,0,1,656.5,845Zm58,58a29,29,0,1,1-29,29A29,29,0,0,1,714.5,903Zm0-58a29,29,0,1,1,29-29A29,29,0,0,1,714.5,845Zm58,0a29,29,0,1,1-29,29A29,29,0,0,1,772.5,845Zm58,58a29,29,0,1,1-29,29A29,29,0,0,1,830.5,903Zm0-58a29,29,0,1,1,29-29A29,29,0,0,1,830.5,845Zm58,0a29,29,0,1,1-29,29A29,29,0,0,1,888.5,845Zm58,58a29,29,0,1,1-29,29A29,29,0,0,1,946.5,903Zm0-58a29,29,0,1,1,29-29A29,29,0,0,1,946.5,845Zm58,0a29,29,0,1,1-29,29A29,29,0,0,1,1004.5,845Zm58,58a29,29,0,1,1-29,29A29,29,0,0,1,1062.5,903Zm0-58a29,29,0,1,1,29-29A29,29,0,0,1,1062.5,845Zm58,0a29,29,0,1,1-29,29A29,29,0,0,1,1120.5,845Zm58,58a29,29,0,1,1-29,29A29,29,0,0,1,1178.5,903Zm0-58a29,29,0,1,1,29-29A29,29,0,0,1,1178.5,845Zm58,0a29,29,0,1,1-29,29A29,29,0,0,1,1236.5,845Zm58,58a29,29,0,1,1-29,29A29,29,0,0,1,1294.5,903Zm0-58a29,29,0,1,1,29-29A29,29,0,0,1,1294.5,845Zm58,0a29,29,0,1,1-29,29A29,29,0,0,1,1352.5,845Zm58,58a29,29,0,1,1-29,29A29,29,0,0,1,1410.5,903Zm0-58a29,29,0,1,1,29-29A29,29,0,0,1,1410.5,845Zm58,0a29,29,0,1,1-29,29A29,29,0,0,1,1468.5,845Zm58,58a29,29,0,1,1-29,29A29,29,0,0,1,1526.5,903Zm0-58a29,29,0,1,1,29-29A29,29,0,0,1,1526.5,845Zm58,0a29,29,0,1,1-29,29A29,29,0,0,1,1584.5,845Zm58,58a29,29,0,1,1-29,29A29,29,0,0,1,1642.5,903Zm0-58a29,29,0,1,1,29-29A29,29,0,0,1,1642.5,845Zm58,0a29,29,0,1,1-29,29A29,29,0,0,1,1700.5,845Zm58,58a29,29,0,1,1-29,29A29,29,0,0,1,1758.5,903Zm0-58a29,29,0,1,1,29-29A29,29,0,0,1,1758.5,845Zm58,0a29,29,0,1,1-29,29A29,29,0,0,1,1816.5,845Zm0-58a29,29,0,1,1,29-29A29,29,0,0,1,1816.5,787Zm87-87a29,29,0,1,1-29-29A29,29,0,0,1,1903.5,700Zm-30-87a29,29,0,1,1,29-29A29,29,0,0,1,1873.5,613Zm0-116a29,29,0,1,1,29-29A29,29,0,0,1,1873.5,497Zm0-116a29,29,0,1,1,29-29A29,29,0,0,1,1873.5,381Zm0-116a29,29,0,1,1,29-29A29,29,0,0,1,1873.5,265Zm0-174a29,29,0,1,1-29,29A29,29,0,0,1,1873.5,91Zm-58-58a29,29,0,1,1-29,29A29,29,0,0,1,1815.5,33Zm-58,58a29,29,0,1,1-29,29A29,29,0,0,1,1757.5,91Zm-58-58a29,29,0,1,1-29,29A29,29,0,0,1,1699.5,33Zm-58,58a29,29,0,1,1-29,29A29,29,0,0,1,1641.5,91Zm-58-58a29,29,0,1,1-29,29A29,29,0,0,1,1583.5,33Zm-58,58a29,29,0,1,1-29,29A29,29,0,0,1,1525.5,91Zm-58-58a29,29,0,1,1-29,29A29,29,0,0,1,1467.5,33Zm-58,58a29,29,0,1,1-29,29A29,29,0,0,1,1409.5,91Zm-58-58a29,29,0,1,1-29,29A29,29,0,0,1,1351.5,33Zm-58,58a29,29,0,1,1-29,29A29,29,0,0,1,1293.5,91Zm-58-58a29,29,0,1,1-29,29A29,29,0,0,1,1235.5,33Zm-58,58a29,29,0,1,1-29,29A29,29,0,0,1,1177.5,91Zm-58-58a29,29,0,1,1-29,29A29,29,0,0,1,1119.5,33Zm-58,58a29,29,0,1,1-29,29A29,29,0,0,1,1061.5,91Zm-58-58a29,29,0,1,1-29,29A29,29,0,0,1,1003.5,33Zm-58,58a29,29,0,1,1-29,29A29,29,0,0,1,945.5,91Zm-58-58a29,29,0,1,1-29,29A29,29,0,0,1,887.5,33Zm-58,58a29,29,0,1,1-29,29A29,29,0,0,1,829.5,91Zm-58-58a29,29,0,1,1-29,29A29,29,0,0,1,771.5,33Zm-58,58a29,29,0,1,1-29,29A29,29,0,0,1,713.5,91Zm-58-58a29,29,0,1,1-29,29A29,29,0,0,1,655.5,33Zm-58,58a29,29,0,1,1-29,29A29,29,0,0,1,597.5,91Zm-58-58a29,29,0,1,1-29,29A29,29,0,0,1,539.5,33Zm-58,58a29,29,0,1,1-29,29A29,29,0,0,1,481.5,91Zm-58-58a29,29,0,1,1-29,29A29,29,0,0,1,423.5,33Zm-58,58a29,29,0,1,1-29,29A29,29,0,0,1,365.5,91Zm-58-58a29,29,0,1,1-29,29A29,29,0,0,1,307.5,33Zm-58,58a29,29,0,1,1-29,29A29,29,0,0,1,249.5,91Zm-58-58a29,29,0,1,1-29,29A29,29,0,0,1,191.5,33Zm-58,58a29,29,0,1,1-29,29A29,29,0,0,1,133.5,91Zm-58-58a29,29,0,1,1-29,29A29,29,0,0,1,75.5,33Zm0,116a29,29,0,1,1-29,29A29,29,0,0,1,75.5,149Zm0,116a29,29,0,1,1-29,29A29,29,0,0,1,75.5,265Zm0,116a29,29,0,1,1-29,29A29,29,0,0,1,75.5,381Zm0,116a29,29,0,1,1-29,29A29,29,0,0,1,75.5,497Zm-29,145a29,29,0,1,1,29,29A29,29,0,0,1,46.5,642Zm30,87a29,29,0,1,1-29,29A29,29,0,0,1,76.5,729Zm0,116a29,29,0,1,1-29,29A29,29,0,0,1,76.5,845Zm0,174a29,29,0,1,1,29-29A29,29,0,0,1,76.5,1019Zm58,58a29,29,0,1,1,29-29A29,29,0,0,1,134.5,1077Zm58-58a29,29,0,1,1,29-29A29,29,0,0,1,192.5,1019Zm58,58a29,29,0,1,1,29-29A29,29,0,0,1,250.5,1077Zm58-58a29,29,0,1,1,29-29A29,29,0,0,1,308.5,1019Zm58,58a29,29,0,1,1,29-29A29,29,0,0,1,366.5,1077Zm58-58a29,29,0,1,1,29-29A29,29,0,0,1,424.5,1019Zm58,58a29,29,0,1,1,29-29A29,29,0,0,1,482.5,1077Zm58-58a29,29,0,1,1,29-29A29,29,0,0,1,540.5,1019Zm58,58a29,29,0,1,1,29-29A29,29,0,0,1,598.5,1077Zm58-58a29,29,0,1,1,29-29A29,29,0,0,1,656.5,1019Zm58,58a29,29,0,1,1,29-29A29,29,0,0,1,714.5,1077Zm58-58a29,29,0,1,1,29-29A29,29,0,0,1,772.5,1019Zm58,58a29,29,0,1,1,29-29A29,29,0,0,1,830.5,1077Zm58-58a29,29,0,1,1,29-29A29,29,0,0,1,888.5,1019Zm58,58a29,29,0,1,1,29-29A29,29,0,0,1,946.5,1077Zm58-58a29,29,0,1,1,29-29A29,29,0,0,1,1004.5,1019Zm58,58a29,29,0,1,1,29-29A29,29,0,0,1,1062.5,1077Zm58-58a29,29,0,1,1,29-29A29,29,0,0,1,1120.5,1019Zm58,58a29,29,0,1,1,29-29A29,29,0,0,1,1178.5,1077Zm58-58a29,29,0,1,1,29-29A29,29,0,0,1,1236.5,1019Zm58,58a29,29,0,1,1,29-29A29,29,0,0,1,1294.5,1077Zm58-58a29,29,0,1,1,29-29A29,29,0,0,1,1352.5,1019Zm58,58a29,29,0,1,1,29-29A29,29,0,0,1,1410.5,1077Zm58-58a29,29,0,1,1,29-29A29,29,0,0,1,1468.5,1019Zm58,58a29,29,0,1,1,29-29A29,29,0,0,1,1526.5,1077Zm58-58a29,29,0,1,1,29-29A29,29,0,0,1,1584.5,1019Zm58,58a29,29,0,1,1,29-29A29,29,0,0,1,1642.5,1077Zm58-58a29,29,0,1,1,29-29A29,29,0,0,1,1700.5,1019Zm58,58a29,29,0,1,1,29-29A29,29,0,0,1,1758.5,1077Zm58-58a29,29,0,1,1,29-29A29,29,0,0,1,1816.5,1019Zm58,58a29,29,0,1,1,29-29A29,29,0,0,1,1874.5,1077Zm0-116a29,29,0,1,1,29-29A29,29,0,0,1,1874.5,961Z"/><path class="cls-5" d="M29.33,0A28.77,28.77,0,0,0,31.5-11a29,29,0,0,0-29-29,29,29,0,0,0-29,29A29,29,0,0,0,0,17.89V0Z"/><path class="cls-5" d="M1890.67,1080a29,29,0,1,0,29.33-17.89V1080Z"/><path class="cls-5" d="M1917.5,888a29,29,0,0,1,0-58c.84,0,1.68,0,2.5.11V771.89c-.82.07-1.66.11-2.5.11a29,29,0,0,1,0-58c.84,0,1.68,0,2.5.11V655.78a29,29,0,1,1,0-57.56V539.78a29,29,0,1,1,0-57.56V423.78a29,29,0,1,1,0-57.56V307.78a29,29,0,1,1,0-57.56V191.78a29,29,0,1,1,0-57.56V75.78a29,29,0,1,1,0-57.56V0h-34.67a29,29,0,0,1-26.83,18,29,29,0,0,1-26.83-18h-62.34a29,29,0,0,1-26.83,18,29,29,0,0,1-26.83-18h-62.34a29,29,0,0,1-26.83,18,29,29,0,0,1-26.83-18h-62.34a29,29,0,0,1-26.83,18,29,29,0,0,1-26.83-18h-62.34a29,29,0,0,1-26.83,18,29,29,0,0,1-26.83-18h-62.34a29,29,0,0,1-26.83,18,29,29,0,0,1-26.83-18h-62.34a29,29,0,0,1-26.83,18,29,29,0,0,1-26.83-18h-62.34a29,29,0,0,1-26.83,18,29,29,0,0,1-26.83-18H957.33A29,29,0,0,1,930.5,18,29,29,0,0,1,903.67,0H841.33A29,29,0,0,1,814.5,18,29,29,0,0,1,787.67,0H725.33A29,29,0,0,1,698.5,18,29,29,0,0,1,671.67,0H609.33A29,29,0,0,1,582.5,18,29,29,0,0,1,555.67,0H493.33A29,29,0,0,1,466.5,18,29,29,0,0,1,439.67,0H377.33A29,29,0,0,1,350.5,18,29,29,0,0,1,323.67,0H261.33A29,29,0,0,1,234.5,18,29,29,0,0,1,207.67,0H145.33A29,29,0,0,1,118.5,18,29,29,0,0,1,91.67,0H29.33A29,29,0,0,1,2.5,18c-.84,0-1.68,0-2.5-.11V76.11C.82,76,1.66,76,2.5,76a29,29,0,0,1,0,58c-.84,0-1.68,0-2.5-.11v58.22C.82,192,1.66,192,2.5,192a29,29,0,0,1,0,58c-.84,0-1.68,0-2.5-.11v58.22C.82,308,1.66,308,2.5,308a29,29,0,0,1,0,58c-.84,0-1.68,0-2.5-.11v58.22C.82,424,1.66,424,2.5,424a29,29,0,0,1,0,58c-.84,0-1.68,0-2.5-.11v58.22C.82,540,1.66,540,2.5,540a29,29,0,0,1,0,58c-.84,0-1.68,0-2.5-.11v58.33A28.85,28.85,0,0,1,3.5,656a29,29,0,0,1,0,58,28.85,28.85,0,0,1-3.5-.22v58.44A28.85,28.85,0,0,1,3.5,772a29,29,0,0,1,0,58,28.85,28.85,0,0,1-3.5-.22v58.44A28.85,28.85,0,0,1,3.5,888a29,29,0,0,1,0,58,28.85,28.85,0,0,1-3.5-.22v58.44a28.85,28.85,0,0,1,3.5-.22,29,29,0,0,1,0,58,28.85,28.85,0,0,1-3.5-.22V1080H34.67a29,29,0,0,1,53.66,0h62.34a29,29,0,0,1,53.66,0h62.34a29,29,0,0,1,53.66,0h62.34a29,29,0,0,1,53.66,0h62.34a29,29,0,0,1,53.66,0h62.34a29,29,0,0,1,53.66,0h62.34a29,29,0,0,1,53.66,0h62.34a29,29,0,0,1,53.66,0h62.34a29,29,0,0,1,53.66,0h62.34a29,29,0,0,1,53.66,0h62.34a29,29,0,0,1,53.66,0h62.34a29,29,0,0,1,53.66,0h62.34a29,29,0,0,1,53.66,0h62.34a29,29,0,0,1,53.66,0h62.34a29,29,0,0,1,53.66,0h62.34a29,29,0,0,1,53.66,0h62.34a29,29,0,0,1,26.83-18c.84,0,1.68,0,2.5.11v-58.22c-.82.07-1.66.11-2.5.11a29,29,0,0,1,0-58c.84,0,1.68,0,2.5.11V887.89C1919.18,888,1918.34,888,1917.5,888Zm-58-58a29,29,0,1,1,29-29A29,29,0,0,1,1859.5,830Zm-1740,0a29,29,0,1,1,29-29A29,29,0,0,1,119.5,830Zm29,87a29,29,0,1,1-29-29A29,29,0,0,1,148.5,917Zm1652-667a29,29,0,1,1-29,29A29,29,0,0,1,1800.5,250Zm-29-87a29,29,0,1,1,29,29A29,29,0,0,1,1771.5,163Zm-29,261a29,29,0,1,1-29,29A29,29,0,0,1,1742.5,424Zm-29-87a29,29,0,1,1,29,29A29,29,0,0,1,1713.5,337Zm-29,87a29,29,0,1,1,29-29A29,29,0,0,1,1684.5,424Zm0,116a29,29,0,1,1,29-29A29,29,0,0,1,1684.5,540Zm29,87a29,29,0,1,1-29-29A29,29,0,0,1,1713.5,627Zm-87-261a29,29,0,1,1,29-29A29,29,0,0,1,1626.5,366Zm0,58a29,29,0,1,1-29,29A29,29,0,0,1,1626.5,424Zm-58,0a29,29,0,1,1,29-29A29,29,0,0,1,1568.5,424Zm0,116a29,29,0,1,1,29-29A29,29,0,0,1,1568.5,540Zm29,87a29,29,0,1,1-29-29A29,29,0,0,1,1597.5,627Zm-87-261a29,29,0,1,1,29-29A29,29,0,0,1,1510.5,366Zm0,58a29,29,0,1,1-29,29A29,29,0,0,1,1510.5,424Zm-58,0a29,29,0,1,1,29-29A29,29,0,0,1,1452.5,424Zm0,116a29,29,0,1,1,29-29A29,29,0,0,1,1452.5,540Zm29,87a29,29,0,1,1-29-29A29,29,0,0,1,1481.5,627Zm-87-261a29,29,0,1,1,29-29A29,29,0,0,1,1394.5,366Zm0,58a29,29,0,1,1-29,29A29,29,0,0,1,1394.5,424Zm-58,0a29,29,0,1,1,29-29A29,29,0,0,1,1336.5,424Zm0,116a29,29,0,1,1,29-29A29,29,0,0,1,1336.5,540Zm29,87a29,29,0,1,1-29-29A29,29,0,0,1,1365.5,627Zm-87-261a29,29,0,1,1,29-29A29,29,0,0,1,1278.5,366Zm0,58a29,29,0,1,1-29,29A29,29,0,0,1,1278.5,424Zm-58,0a29,29,0,1,1,29-29A29,29,0,0,1,1220.5,424Zm0,116a29,29,0,1,1,29-29A29,29,0,0,1,1220.5,540Zm29,87a29,29,0,1,1-29-29A29,29,0,0,1,1249.5,627Zm-87-261a29,29,0,1,1,29-29A29,29,0,0,1,1162.5,366Zm0,58a29,29,0,1,1-29,29A29,29,0,0,1,1162.5,424Zm-58,0a29,29,0,1,1,29-29A29,29,0,0,1,1104.5,424Zm0,116a29,29,0,1,1,29-29A29,29,0,0,1,1104.5,540Zm29,87a29,29,0,1,1-29-29A29,29,0,0,1,1133.5,627Zm-87-261a29,29,0,1,1,29-29A29,29,0,0,1,1046.5,366Zm0,58a29,29,0,1,1-29,29A29,29,0,0,1,1046.5,424Zm-58,0a29,29,0,1,1,29-29A29,29,0,0,1,988.5,424Zm0,116a29,29,0,1,1,29-29A29,29,0,0,1,988.5,540Zm29,87a29,29,0,1,1-29-29A29,29,0,0,1,1017.5,627Zm-87-261a29,29,0,1,1,29-29A29,29,0,0,1,930.5,366Zm0,58a29,29,0,1,1-29,29A29,29,0,0,1,930.5,424Zm-58,0a29,29,0,1,1,29-29A29,29,0,0,1,872.5,424Zm0,116a29,29,0,1,1,29-29A29,29,0,0,1,872.5,540Zm29,87a29,29,0,1,1-29-29A29,29,0,0,1,901.5,627Zm-87-261a29,29,0,1,1,29-29A29,29,0,0,1,814.5,366Zm0,58a29,29,0,1,1-29,29A29,29,0,0,1,814.5,424Zm-58,0a29,29,0,1,1,29-29A29,29,0,0,1,756.5,424Zm0,116a29,29,0,1,1,29-29A29,29,0,0,1,756.5,540Zm29,87a29,29,0,1,1-29-29A29,29,0,0,1,785.5,627Zm-87-261a29,29,0,1,1,29-29A29,29,0,0,1,698.5,366Zm0,58a29,29,0,1,1-29,29A29,29,0,0,1,698.5,424Zm-58,0a29,29,0,1,1,29-29A29,29,0,0,1,640.5,424Zm0,116a29,29,0,1,1,29-29A29,29,0,0,1,640.5,540Zm29,87a29,29,0,1,1-29-29A29,29,0,0,1,669.5,627Zm-87-261a29,29,0,1,1,29-29A29,29,0,0,1,582.5,366Zm0,58a29,29,0,1,1-29,29A29,29,0,0,1,582.5,424Zm-58,0a29,29,0,1,1,29-29A29,29,0,0,1,524.5,424Zm0,116a29,29,0,1,1,29-29A29,29,0,0,1,524.5,540Zm29,87a29,29,0,1,1-29-29A29,29,0,0,1,553.5,627Zm-87-261a29,29,0,1,1,29-29A29,29,0,0,1,466.5,366Zm0,58a29,29,0,1,1-29,29A29,29,0,0,1,466.5,424Zm-58,0a29,29,0,1,1,29-29A29,29,0,0,1,408.5,424Zm0,116a29,29,0,1,1,29-29A29,29,0,0,1,408.5,540Zm29,87a29,29,0,1,1-29-29A29,29,0,0,1,437.5,627Zm-87-261a29,29,0,1,1,29-29A29,29,0,0,1,350.5,366Zm0,58a29,29,0,1,1-29,29A29,29,0,0,1,350.5,424Zm-58,0a29,29,0,1,1,29-29A29,29,0,0,1,292.5,424Zm0,116a29,29,0,1,1,29-29A29,29,0,0,1,292.5,540Zm29,87a29,29,0,1,1-29-29A29,29,0,0,1,321.5,627Zm-87-261a29,29,0,1,1,29-29A29,29,0,0,1,234.5,366Zm0,58a29,29,0,1,1-29,29A29,29,0,0,1,234.5,424Zm-58,0a29,29,0,1,1,29-29A29,29,0,0,1,176.5,424Zm0,58a29,29,0,1,1-29,29A29,29,0,0,1,176.5,482Zm0,116a29,29,0,1,1-29,29A29,29,0,0,1,176.5,598Zm1,116a29,29,0,1,1-29,29A29,29,0,0,1,177.5,714Zm28-145a29,29,0,1,1,29,29A29,29,0,0,1,205.5,569Zm30,87a29,29,0,1,1-29,29A29,29,0,0,1,235.5,656Zm58,58a29,29,0,1,1-29,29A29,29,0,0,1,293.5,714Zm28-145a29,29,0,1,1,29,29A29,29,0,0,1,321.5,569Zm30,87a29,29,0,1,1-29,29A29,29,0,0,1,351.5,656Zm58,58a29,29,0,1,1-29,29A29,29,0,0,1,409.5,714Zm28-145a29,29,0,1,1,29,29A29,29,0,0,1,437.5,569Zm30,87a29,29,0,1,1-29,29A29,29,0,0,1,467.5,656Zm58,58a29,29,0,1,1-29,29A29,29,0,0,1,525.5,714Zm28-145a29,29,0,1,1,29,29A29,29,0,0,1,553.5,569Zm30,87a29,29,0,1,1-29,29A29,29,0,0,1,583.5,656Zm58,58a29,29,0,1,1-29,29A29,29,0,0,1,641.5,714Zm28-145a29,29,0,1,1,29,29A29,29,0,0,1,669.5,569Zm30,87a29,29,0,1,1-29,29A29,29,0,0,1,699.5,656Zm58,58a29,29,0,1,1-29,29A29,29,0,0,1,757.5,714Zm28-145a29,29,0,1,1,29,29A29,29,0,0,1,785.5,569Zm30,87a29,29,0,1,1-29,29A29,29,0,0,1,815.5,656Zm58,58a29,29,0,1,1-29,29A29,29,0,0,1,873.5,714Zm28-145a29,29,0,1,1,29,29A29,29,0,0,1,901.5,569Zm30,87a29,29,0,1,1-29,29A29,29,0,0,1,931.5,656Zm58,58a29,29,0,1,1-29,29A29,29,0,0,1,989.5,714Zm28-145a29,29,0,1,1,29,29A29,29,0,0,1,1017.5,569Zm30,87a29,29,0,1,1-29,29A29,29,0,0,1,1047.5,656Zm58,58a29,29,0,1,1-29,29A29,29,0,0,1,1105.5,714Zm28-145a29,29,0,1,1,29,29A29,29,0,0,1,1133.5,569Zm30,87a29,29,0,1,1-29,29A29,29,0,0,1,1163.5,656Zm58,58a29,29,0,1,1-29,29A29,29,0,0,1,1221.5,714Zm28-145a29,29,0,1,1,29,29A29,29,0,0,1,1249.5,569Zm30,87a29,29,0,1,1-29,29A29,29,0,0,1,1279.5,656Zm58,58a29,29,0,1,1-29,29A29,29,0,0,1,1337.5,714Zm28-145a29,29,0,1,1,29,29A29,29,0,0,1,1365.5,569Zm30,87a29,29,0,1,1-29,29A29,29,0,0,1,1395.5,656Zm58,58a29,29,0,1,1-29,29A29,29,0,0,1,1453.5,714Zm28-145a29,29,0,1,1,29,29A29,29,0,0,1,1481.5,569Zm30,87a29,29,0,1,1-29,29A29,29,0,0,1,1511.5,656Zm58,58a29,29,0,1,1-29,29A29,29,0,0,1,1569.5,714Zm28-145a29,29,0,1,1,29,29A29,29,0,0,1,1597.5,569Zm30,87a29,29,0,1,1-29,29A29,29,0,0,1,1627.5,656Zm58,58a29,29,0,1,1-29,29A29,29,0,0,1,1685.5,714Zm28-145a29,29,0,1,1,29,29A29,29,0,0,1,1713.5,569Zm30,87a29,29,0,1,1-29,29A29,29,0,0,1,1743.5,656Zm28-29a29,29,0,1,1,29,29A29,29,0,0,1,1771.5,627Zm29-87a29,29,0,1,1,29-29A29,29,0,0,1,1800.5,540Zm0-116a29,29,0,1,1,29-29A29,29,0,0,1,1800.5,424Zm-58-174a29,29,0,1,1,29-29A29,29,0,0,1,1742.5,250Zm-58-58a29,29,0,1,1,29-29A29,29,0,0,1,1684.5,192Zm0,58a29,29,0,1,1-29,29A29,29,0,0,1,1684.5,250Zm-58,0a29,29,0,1,1,29-29A29,29,0,0,1,1626.5,250Zm-58-58a29,29,0,1,1,29-29A29,29,0,0,1,1568.5,192Zm0,58a29,29,0,1,1-29,29A29,29,0,0,1,1568.5,250Zm-58,0a29,29,0,1,1,29-29A29,29,0,0,1,1510.5,250Zm-58-58a29,29,0,1,1,29-29A29,29,0,0,1,1452.5,192Zm0,58a29,29,0,1,1-29,29A29,29,0,0,1,1452.5,250Zm-58,0a29,29,0,1,1,29-29A29,29,0,0,1,1394.5,250Zm-58-58a29,29,0,1,1,29-29A29,29,0,0,1,1336.5,192Zm0,58a29,29,0,1,1-29,29A29,29,0,0,1,1336.5,250Zm-58,0a29,29,0,1,1,29-29A29,29,0,0,1,1278.5,250Zm-58-58a29,29,0,1,1,29-29A29,29,0,0,1,1220.5,192Zm0,58a29,29,0,1,1-29,29A29,29,0,0,1,1220.5,250Zm-58,0a29,29,0,1,1,29-29A29,29,0,0,1,1162.5,250Zm-58-58a29,29,0,1,1,29-29A29,29,0,0,1,1104.5,192Zm0,58a29,29,0,1,1-29,29A29,29,0,0,1,1104.5,250Zm-58,0a29,29,0,1,1,29-29A29,29,0,0,1,1046.5,250Zm-58-58a29,29,0,1,1,29-29A29,29,0,0,1,988.5,192Zm0,58a29,29,0,1,1-29,29A29,29,0,0,1,988.5,250Zm-58,0a29,29,0,1,1,29-29A29,29,0,0,1,930.5,250Zm-58-58a29,29,0,1,1,29-29A29,29,0,0,1,872.5,192Zm0,58a29,29,0,1,1-29,29A29,29,0,0,1,872.5,250Zm-58,0a29,29,0,1,1,29-29A29,29,0,0,1,814.5,250Zm-58-58a29,29,0,1,1,29-29A29,29,0,0,1,756.5,192Zm0,58a29,29,0,1,1-29,29A29,29,0,0,1,756.5,250Zm-58,0a29,29,0,1,1,29-29A29,29,0,0,1,698.5,250Zm-58-58a29,29,0,1,1,29-29A29,29,0,0,1,640.5,192Zm0,58a29,29,0,1,1-29,29A29,29,0,0,1,640.5,250Zm-58,0a29,29,0,1,1,29-29A29,29,0,0,1,582.5,250Zm-58-58a29,29,0,1,1,29-29A29,29,0,0,1,524.5,192Zm0,58a29,29,0,1,1-29,29A29,29,0,0,1,524.5,250Zm-58,0a29,29,0,1,1,29-29A29,29,0,0,1,466.5,250Zm-58-58a29,29,0,1,1,29-29A29,29,0,0,1,408.5,192Zm0,58a29,29,0,1,1-29,29A29,29,0,0,1,408.5,250Zm-58,0a29,29,0,1,1,29-29A29,29,0,0,1,350.5,250Zm-58-58a29,29,0,1,1,29-29A29,29,0,0,1,292.5,192Zm0,58a29,29,0,1,1-29,29A29,29,0,0,1,292.5,250Zm-58,0a29,29,0,1,1,29-29A29,29,0,0,1,234.5,250Zm-58-58a29,29,0,1,1,29-29A29,29,0,0,1,176.5,192Zm0,58a29,29,0,1,1-29,29A29,29,0,0,1,176.5,250Zm-58,0a29,29,0,1,1,29-29A29,29,0,0,1,118.5,250Zm0,58a29,29,0,1,1-29,29A29,29,0,0,1,118.5,308Zm0,116a29,29,0,1,1-29,29A29,29,0,0,1,118.5,424Zm0,116a29,29,0,1,1-29,29A29,29,0,0,1,118.5,540Zm1,116a29,29,0,1,1-29,29A29,29,0,0,1,119.5,656Zm58,174a29,29,0,1,1-29,29A29,29,0,0,1,177.5,830Zm58,58a29,29,0,1,1-29,29A29,29,0,0,1,235.5,888Zm0-58a29,29,0,1,1,29-29A29,29,0,0,1,235.5,830Zm58,0a29,29,0,1,1-29,29A29,29,0,0,1,293.5,830Zm58,58a29,29,0,1,1-29,29A29,29,0,0,1,351.5,888Zm0-58a29,29,0,1,1,29-29A29,29,0,0,1,351.5,830Zm58,0a29,29,0,1,1-29,29A29,29,0,0,1,409.5,830Zm58,58a29,29,0,1,1-29,29A29,29,0,0,1,467.5,888Zm0-58a29,29,0,1,1,29-29A29,29,0,0,1,467.5,830Zm58,0a29,29,0,1,1-29,29A29,29,0,0,1,525.5,830Zm58,58a29,29,0,1,1-29,29A29,29,0,0,1,583.5,888Zm0-58a29,29,0,1,1,29-29A29,29,0,0,1,583.5,830Zm58,0a29,29,0,1,1-29,29A29,29,0,0,1,641.5,830Zm58,58a29,29,0,1,1-29,29A29,29,0,0,1,699.5,888Zm0-58a29,29,0,1,1,29-29A29,29,0,0,1,699.5,830Zm58,0a29,29,0,1,1-29,29A29,29,0,0,1,757.5,830Zm58,58a29,29,0,1,1-29,29A29,29,0,0,1,815.5,888Zm0-58a29,29,0,1,1,29-29A29,29,0,0,1,815.5,830Zm58,0a29,29,0,1,1-29,29A29,29,0,0,1,873.5,830Zm58,58a29,29,0,1,1-29,29A29,29,0,0,1,931.5,888Zm0-58a29,29,0,1,1,29-29A29,29,0,0,1,931.5,830Zm58,0a29,29,0,1,1-29,29A29,29,0,0,1,989.5,830Zm58,58a29,29,0,1,1-29,29A29,29,0,0,1,1047.5,888Zm0-58a29,29,0,1,1,29-29A29,29,0,0,1,1047.5,830Zm58,0a29,29,0,1,1-29,29A29,29,0,0,1,1105.5,830Zm58,58a29,29,0,1,1-29,29A29,29,0,0,1,1163.5,888Zm0-58a29,29,0,1,1,29-29A29,29,0,0,1,1163.5,830Zm58,0a29,29,0,1,1-29,29A29,29,0,0,1,1221.5,830Zm58,58a29,29,0,1,1-29,29A29,29,0,0,1,1279.5,888Zm0-58a29,29,0,1,1,29-29A29,29,0,0,1,1279.5,830Zm58,0a29,29,0,1,1-29,29A29,29,0,0,1,1337.5,830Zm58,58a29,29,0,1,1-29,29A29,29,0,0,1,1395.5,888Zm0-58a29,29,0,1,1,29-29A29,29,0,0,1,1395.5,830Zm58,0a29,29,0,1,1-29,29A29,29,0,0,1,1453.5,830Zm58,58a29,29,0,1,1-29,29A29,29,0,0,1,1511.5,888Zm0-58a29,29,0,1,1,29-29A29,29,0,0,1,1511.5,830Zm58,0a29,29,0,1,1-29,29A29,29,0,0,1,1569.5,830Zm58,58a29,29,0,1,1-29,29A29,29,0,0,1,1627.5,888Zm0-58a29,29,0,1,1,29-29A29,29,0,0,1,1627.5,830Zm58,0a29,29,0,1,1-29,29A29,29,0,0,1,1685.5,830Zm58,58a29,29,0,1,1-29,29A29,29,0,0,1,1743.5,888Zm0-58a29,29,0,1,1,29-29A29,29,0,0,1,1743.5,830Zm58,0a29,29,0,1,1-29,29A29,29,0,0,1,1801.5,830Zm0-58a29,29,0,1,1,29-29A29,29,0,0,1,1801.5,772Zm87-87a29,29,0,1,1-29-29A29,29,0,0,1,1888.5,685Zm-30-87a29,29,0,1,1,29-29A29,29,0,0,1,1858.5,598Zm0-116a29,29,0,1,1,29-29A29,29,0,0,1,1858.5,482Zm0-116a29,29,0,1,1,29-29A29,29,0,0,1,1858.5,366Zm0-116a29,29,0,1,1,29-29A29,29,0,0,1,1858.5,250Zm0-174a29,29,0,1,1-29,29A29,29,0,0,1,1858.5,76Zm-58-58a29,29,0,1,1-29,29A29,29,0,0,1,1800.5,18Zm-58,58a29,29,0,1,1-29,29A29,29,0,0,1,1742.5,76Zm-58-58a29,29,0,1,1-29,29A29,29,0,0,1,1684.5,18Zm-58,58a29,29,0,1,1-29,29A29,29,0,0,1,1626.5,76Zm-58-58a29,29,0,1,1-29,29A29,29,0,0,1,1568.5,18Zm-58,58a29,29,0,1,1-29,29A29,29,0,0,1,1510.5,76Zm-58-58a29,29,0,1,1-29,29A29,29,0,0,1,1452.5,18Zm-58,58a29,29,0,1,1-29,29A29,29,0,0,1,1394.5,76Zm-58-58a29,29,0,1,1-29,29A29,29,0,0,1,1336.5,18Zm-58,58a29,29,0,1,1-29,29A29,29,0,0,1,1278.5,76Zm-58-58a29,29,0,1,1-29,29A29,29,0,0,1,1220.5,18Zm-58,58a29,29,0,1,1-29,29A29,29,0,0,1,1162.5,76Zm-58-58a29,29,0,1,1-29,29A29,29,0,0,1,1104.5,18Zm-58,58a29,29,0,1,1-29,29A29,29,0,0,1,1046.5,76Zm-58-58a29,29,0,1,1-29,29A29,29,0,0,1,988.5,18Zm-58,58a29,29,0,1,1-29,29A29,29,0,0,1,930.5,76Zm-58-58a29,29,0,1,1-29,29A29,29,0,0,1,872.5,18Zm-58,58a29,29,0,1,1-29,29A29,29,0,0,1,814.5,76Zm-58-58a29,29,0,1,1-29,29A29,29,0,0,1,756.5,18Zm-58,58a29,29,0,1,1-29,29A29,29,0,0,1,698.5,76Zm-58-58a29,29,0,1,1-29,29A29,29,0,0,1,640.5,18Zm-58,58a29,29,0,1,1-29,29A29,29,0,0,1,582.5,76Zm-58-58a29,29,0,1,1-29,29A29,29,0,0,1,524.5,18Zm-58,58a29,29,0,1,1-29,29A29,29,0,0,1,466.5,76Zm-58-58a29,29,0,1,1-29,29A29,29,0,0,1,408.5,18Zm-58,58a29,29,0,1,1-29,29A29,29,0,0,1,350.5,76Zm-58-58a29,29,0,1,1-29,29A29,29,0,0,1,292.5,18Zm-58,58a29,29,0,1,1-29,29A29,29,0,0,1,234.5,76Zm-58-58a29,29,0,1,1-29,29A29,29,0,0,1,176.5,18Zm-58,58a29,29,0,1,1-29,29A29,29,0,0,1,118.5,76Zm-58-58a29,29,0,1,1-29,29A29,29,0,0,1,60.5,18Zm0,116a29,29,0,1,1-29,29A29,29,0,0,1,60.5,134Zm0,116a29,29,0,1,1-29,29A29,29,0,0,1,60.5,250Zm0,116a29,29,0,1,1-29,29A29,29,0,0,1,60.5,366Zm0,116a29,29,0,1,1-29,29A29,29,0,0,1,60.5,482Zm-29,145a29,29,0,1,1,29,29A29,29,0,0,1,31.5,627Zm30,87a29,29,0,1,1-29,29A29,29,0,0,1,61.5,714Zm0,116a29,29,0,1,1-29,29A29,29,0,0,1,61.5,830Zm0,174a29,29,0,1,1,29-29A29,29,0,0,1,61.5,1004Zm58,58a29,29,0,1,1,29-29A29,29,0,0,1,119.5,1062Zm58-58a29,29,0,1,1,29-29A29,29,0,0,1,177.5,1004Zm58,58a29,29,0,1,1,29-29A29,29,0,0,1,235.5,1062Zm58-58a29,29,0,1,1,29-29A29,29,0,0,1,293.5,1004Zm58,58a29,29,0,1,1,29-29A29,29,0,0,1,351.5,1062Zm58-58a29,29,0,1,1,29-29A29,29,0,0,1,409.5,1004Zm58,58a29,29,0,1,1,29-29A29,29,0,0,1,467.5,1062Zm58-58a29,29,0,1,1,29-29A29,29,0,0,1,525.5,1004Zm58,58a29,29,0,1,1,29-29A29,29,0,0,1,583.5,1062Zm58-58a29,29,0,1,1,29-29A29,29,0,0,1,641.5,1004Zm58,58a29,29,0,1,1,29-29A29,29,0,0,1,699.5,1062Zm58-58a29,29,0,1,1,29-29A29,29,0,0,1,757.5,1004Zm58,58a29,29,0,1,1,29-29A29,29,0,0,1,815.5,1062Zm58-58a29,29,0,1,1,29-29A29,29,0,0,1,873.5,1004Zm58,58a29,29,0,1,1,29-29A29,29,0,0,1,931.5,1062Zm58-58a29,29,0,1,1,29-29A29,29,0,0,1,989.5,1004Zm58,58a29,29,0,1,1,29-29A29,29,0,0,1,1047.5,1062Zm58-58a29,29,0,1,1,29-29A29,29,0,0,1,1105.5,1004Zm58,58a29,29,0,1,1,29-29A29,29,0,0,1,1163.5,1062Zm58-58a29,29,0,1,1,29-29A29,29,0,0,1,1221.5,1004Zm58,58a29,29,0,1,1,29-29A29,29,0,0,1,1279.5,1062Zm58-58a29,29,0,1,1,29-29A29,29,0,0,1,1337.5,1004Zm58,58a29,29,0,1,1,29-29A29,29,0,0,1,1395.5,1062Zm58-58a29,29,0,1,1,29-29A29,29,0,0,1,1453.5,1004Zm58,58a29,29,0,1,1,29-29A29,29,0,0,1,1511.5,1062Zm58-58a29,29,0,1,1,29-29A29,29,0,0,1,1569.5,1004Zm58,58a29,29,0,1,1,29-29A29,29,0,0,1,1627.5,1062Zm58-58a29,29,0,1,1,29-29A29,29,0,0,1,1685.5,1004Zm58,58a29,29,0,1,1,29-29A29,29,0,0,1,1743.5,1062Zm58-58a29,29,0,1,1,29-29A29,29,0,0,1,1801.5,1004Zm58,58a29,29,0,1,1,29-29A29,29,0,0,1,1859.5,1062Zm0-116a29,29,0,1,1,29-29A29,29,0,0,1,1859.5,946Z"/><rect class="cls-4" x="1" y="1" width="1920" height="50"/><rect class="cls-4" x="1356" y="515" width="1080" height="50" transform="translate(2436 -1356) rotate(90)"/><rect class="cls-4" x="-515" y="515" width="1080" height="50" transform="translate(565 515) rotate(90)"/><rect class="cls-4" x="1" y="1030" width="1920" height="50"/></g></svg>