<svg xmlns="http://www.w3.org/2000/svg" viewBox="0 0 268.98 238.38"><defs><style>.cls-1{fill:#2d252d;}.cls-2{fill:#ff99fa;}.cls-3{fill:#fff;}</style></defs><title>PS</title><g id="Layer_2" data-name="Layer 2"><g id="Layer_1-2" data-name="Layer 1"><path class="cls-1" d="M21.62,54.6a276.37,276.37,0,0,0-3.95,32.18c-.6,9.66-.59,19.34-.39,29,.41,19.26,1.37,38.48.72,57.75-.36,10.69-1.16,21.36-2.57,32l.53-4q-1.2,8.91-3,17.71l29.47,4-1.88-65L38.65,93.41l-.53-18.19a104.11,104.11,0,0,1,.4-16.75l-.54,4a38,38,0,0,1,2.36-9L38.82,57a36.33,36.33,0,0,1,4.63-7.86l-2.34,3a46.49,46.49,0,0,1,8-7.9l-3,2.34a50.77,50.77,0,0,1,11.1-6.48l-3.58,1.51A54.9,54.9,0,0,1,67.4,37.92l-4,.53a55.59,55.59,0,0,1,14.35,0l-4-.53a51.16,51.16,0,0,1,12.75,3.48L83,39.91A48.88,48.88,0,0,1,93.31,46l-3-2.34a52.59,52.59,0,0,1,9.2,9.18l-2.35-3A55.53,55.53,0,0,1,104.25,62l-1.51-3.58A54.24,54.24,0,0,1,106.46,72l-.54-4a49.63,49.63,0,0,1,0,13l.53-4a46.49,46.49,0,0,1-2.94,11L105,84.44a37.63,37.63,0,0,1-4.6,8l2.35-3A37.65,37.65,0,0,1,96.17,96l3-2.34A50.06,50.06,0,0,1,88.33,99.9l3.59-1.52c-7.58,3.16-15.64,4.67-23.74,5.76l4-.54c-7.55,1-15.14,1.76-22.67,3a17.52,17.52,0,0,0-14.09,12.58,17.11,17.11,0,0,0-.63,4.66,15,15,0,0,0,3.32,9.36,11.21,11.21,0,0,0,4.29,3.92,16.11,16.11,0,0,0,5.68,1.8,16.36,16.36,0,0,0,6.11-.28,14.64,14.64,0,0,0,3.91-1.67A15.47,15.47,0,0,0,65,128a15.3,15.3,0,0,0-1.51-11.56c-2.06-3.2-5.14-6-9-6.9A15.8,15.8,0,0,0,43,111l-.18.1,3.59-1.51-.15.05,4-.53h-.12l4,.54-.1,0,3.58,1.52-.08-.06,5.38,5.38,0-.09L64.29,120l0-.12.54,4a.94.94,0,0,1,0-.29l-.54,4a3.21,3.21,0,0,1,.21-.75l-1.51,3.58a3.78,3.78,0,0,1,.47-.77l-2.34,3a2.5,2.5,0,0,1,.32-.33l-3,2.35a1.85,1.85,0,0,1,.37-.25L55.15,136a15.07,15.07,0,0,1,3.28-.61c1.28-.19,2.55-.37,3.83-.54l-4,.53c8.58-1.14,17.23-1.92,25.75-3.49a86.79,86.79,0,0,0,21.62-7,52.8,52.8,0,0,0,29-35.7A60.94,60.94,0,0,0,136,68.33a75.77,75.77,0,0,0-2.13-11.78,81.05,81.05,0,0,0-4.26-11.07,67.22,67.22,0,0,0-11.22-16.67,61.56,61.56,0,0,0-15.65-12.53c-25.28-14.2-59.53-9.7-79.8,11.26a50.44,50.44,0,0,0-13,22.57c-2,7.89-2,16-1.8,24.12q.66,22.92,1.33,45.84l2.65,91.68.33,11.46c.11,3.74,1.55,8,4.39,10.61l3,2.34a11.11,11.11,0,0,0,5.57,1.78,7.51,7.51,0,0,0,4,0A11.11,11.11,0,0,0,35,236.16c3.17-2,6.1-5.15,6.89-9,4.32-20.66,6.09-41.83,6.35-62.91.26-20.23-1.12-40.43-1.05-60.66a265.07,265.07,0,0,1,2.17-33.91l-.53,4c.5-3.73,1.08-7.43,1.75-11.13a11.37,11.37,0,0,0,.27-6A11.21,11.21,0,0,0,49,51a15.27,15.27,0,0,0-9-6.89c-3.84-.88-8.15-.69-11.55,1.51-3.12,2-6.21,5.17-6.9,9Z"/><path class="cls-1" d="M263.06,49.68a31.54,31.54,0,0,0,1-6A12.35,12.35,0,0,0,264,41a30.39,30.39,0,0,0-1-5.91,36.84,36.84,0,0,0-2.35-5.58,16.93,16.93,0,0,0-1.38-2.17,47.87,47.87,0,0,0-3.85-4.8A43.31,43.31,0,0,0,248.66,17a46,46,0,0,0-13.6-6,83.28,83.28,0,0,0-15.9-2.72,64.65,64.65,0,0,0-12.52.14,86.3,86.3,0,0,0-15.86,3,73.72,73.72,0,0,0-26.64,14.52,56.08,56.08,0,0,0-9.53,10.92,32.09,32.09,0,0,0-2.75,4.79,51.41,51.41,0,0,0-3.21,8.23,46.44,46.44,0,0,0-1.38,9.09,44.54,44.54,0,0,0,.77,9.43,47.44,47.44,0,0,0,5.36,14.84,88.21,88.21,0,0,0,9,13c2.47,3.13,5.1,6.13,7.77,9.09,5.3,5.87,10.87,11.5,16.48,17.08,11.23,11.14,22.73,22.09,32.8,34.32,1.23,1.48,2.42,3,3.6,4.51l-2.35-3a124.38,124.38,0,0,1,16.08,26.58l-1.51-3.58a54.33,54.33,0,0,1,3.93,13.56l-.54-4a35.19,35.19,0,0,1,.09,8.64l.53-4a27.81,27.81,0,0,1-1.85,6.94l1.51-3.59a26.09,26.09,0,0,1-3.26,5.54l2.34-3a28.24,28.24,0,0,1-4.71,4.69l3-2.35a32.45,32.45,0,0,1-7.15,4.13l3.59-1.51a37.41,37.41,0,0,1-9.05,2.44l4-.53a39.09,39.09,0,0,1-10.08,0l4,.54a37.17,37.17,0,0,1-9-2.48l3.58,1.51a53.05,53.05,0,0,1-11.68-6.9l3,2.34A85.26,85.26,0,0,1,192.86,188l2.35,3c-3.3-4.28-6.32-8.75-9.22-13.31a15.74,15.74,0,0,0-9-6.89,15.32,15.32,0,0,0-11.55,1.51c-3.21,2.07-6,5.14-6.9,9s-.67,8.13,1.51,11.56a159.51,159.51,0,0,0,18.08,24,90.23,90.23,0,0,0,12.43,10.74,64.9,64.9,0,0,0,14.2,7.55,49.55,49.55,0,0,0,14,3.07,52.29,52.29,0,0,0,14.06-.86,49.32,49.32,0,0,0,12.95-4.41,42.12,42.12,0,0,0,11.05-7.84A41.31,41.31,0,0,0,269,194.58c-.31-12-4.85-23.3-10.54-33.68-8.91-16.27-21.38-30.45-34.32-43.63-12.39-12.62-25.46-24.6-37-38.06-1.43-1.67-2.83-3.36-4.18-5.1l2.35,3a58.46,58.46,0,0,1-7.61-12.49l1.51,3.59a33.59,33.59,0,0,1-2.3-8.29l.53,4a27.89,27.89,0,0,1,0-6.71l-.53,4a28.51,28.51,0,0,1,1.93-7.07l-1.51,3.59a34.18,34.18,0,0,1,4.29-7.31l-2.35,3a44.76,44.76,0,0,1,8-7.92l-3,2.34A55.9,55.9,0,0,1,196.13,41l-3.59,1.52a65.2,65.2,0,0,1,16.4-4.5l-4,.53a65.67,65.67,0,0,1,17.38,0l-4-.54a54.9,54.9,0,0,1,13.59,3.5L228.34,40a30.23,30.23,0,0,1,6.38,3.74l-3-2.34a23.7,23.7,0,0,1,3.88,3.81l-2.35-3a16,16,0,0,1,2.09,3.52l-1.51-3.59a12.89,12.89,0,0,1,.78,2.86L234,41a11.74,11.74,0,0,1,0,2.65l.53-4a12.82,12.82,0,0,1-.46,2A15,15,0,0,0,244.6,60.16c3.84.87,8.15.68,11.56-1.51a16.12,16.12,0,0,0,6.9-9Z"/><path class="cls-2" d="M13.62,46.6A276.37,276.37,0,0,0,9.67,78.78c-.6,9.66-.59,19.34-.39,29,.41,19.26,1.37,38.48.72,57.75-.36,10.69-1.16,21.36-2.57,32l.53-4q-1.2,8.91-3,17.71l29.47,4-1.88-65L30.65,85.41l-.53-18.19a104.11,104.11,0,0,1,.4-16.75l-.54,4a38,38,0,0,1,2.36-9L30.82,49a36.33,36.33,0,0,1,4.63-7.86l-2.34,3a46.49,46.49,0,0,1,8-7.9l-3,2.34a50.77,50.77,0,0,1,11.1-6.48l-3.58,1.51A54.9,54.9,0,0,1,59.4,29.92l-4,.53a55.59,55.59,0,0,1,14.35,0l-4-.53a51.16,51.16,0,0,1,12.75,3.48L75,31.91A48.88,48.88,0,0,1,85.31,38l-3-2.34a52.59,52.59,0,0,1,9.2,9.18l-2.35-3A55.53,55.53,0,0,1,96.25,54l-1.51-3.58A54.24,54.24,0,0,1,98.46,64l-.54-4a49.63,49.63,0,0,1,0,13l.53-4a46.49,46.49,0,0,1-2.94,11L97,76.44a37.63,37.63,0,0,1-4.6,8l2.35-3A37.65,37.65,0,0,1,88.17,88l3-2.34A50.06,50.06,0,0,1,80.33,91.9l3.59-1.52c-7.58,3.16-15.64,4.67-23.74,5.76l4-.54c-7.55,1-15.14,1.76-22.67,3a17.52,17.52,0,0,0-14.09,12.58,17.11,17.11,0,0,0-.63,4.66,15,15,0,0,0,3.32,9.36,11.21,11.21,0,0,0,4.29,3.92,16.11,16.11,0,0,0,5.68,1.8,16.36,16.36,0,0,0,6.11-.28,14.64,14.64,0,0,0,3.91-1.67A15.47,15.47,0,0,0,57,120a15.3,15.3,0,0,0-1.51-11.56c-2.06-3.2-5.14-6-9-6.9A15.8,15.8,0,0,0,35,103l-.18.1,3.59-1.51-.15.05,4-.53h-.12l4,.54-.1,0,3.58,1.52-.08-.06,5.38,5.38,0-.09L56.29,112l0-.12.54,4a.94.94,0,0,1,0-.29l-.54,4a3.21,3.21,0,0,1,.21-.75l-1.51,3.58a3.78,3.78,0,0,1,.47-.77l-2.34,3a2.5,2.5,0,0,1,.32-.33l-3,2.35a1.85,1.85,0,0,1,.37-.25L47.15,128a15.07,15.07,0,0,1,3.28-.61c1.28-.19,2.55-.37,3.83-.54l-4,.53c8.58-1.14,17.23-1.92,25.75-3.49a86.79,86.79,0,0,0,21.62-7,52.8,52.8,0,0,0,29-35.7A60.94,60.94,0,0,0,128,60.33a75.77,75.77,0,0,0-2.13-11.78,81.05,81.05,0,0,0-4.26-11.07,67.22,67.22,0,0,0-11.22-16.67A61.56,61.56,0,0,0,94.71,8.28c-25.28-14.2-59.53-9.7-79.8,11.26a50.44,50.44,0,0,0-13,22.57c-2,7.89-2,16-1.8,24.12q.66,22.92,1.33,45.84l2.65,91.68.33,11.46c.11,3.74,1.55,8,4.39,10.61l3,2.34a11.11,11.11,0,0,0,5.57,1.78,7.51,7.51,0,0,0,4,0A11.11,11.11,0,0,0,27,228.16c3.17-2,6.1-5.15,6.89-9,4.32-20.66,6.09-41.83,6.35-62.91.26-20.23-1.12-40.43-1.05-60.66a265.07,265.07,0,0,1,2.17-33.91l-.53,4c.5-3.73,1.08-7.43,1.75-11.13a11.37,11.37,0,0,0,.27-6A11.21,11.21,0,0,0,41,43a15.27,15.27,0,0,0-9-6.89c-3.84-.88-8.15-.69-11.55,1.51-3.12,2-6.21,5.17-6.9,9Z"/><path class="cls-2" d="M255.06,41.68a31.54,31.54,0,0,0,1-6A12.35,12.35,0,0,0,256,33a30.39,30.39,0,0,0-1-5.91,36.84,36.84,0,0,0-2.35-5.58,16.93,16.93,0,0,0-1.38-2.17,47.87,47.87,0,0,0-3.85-4.8A43.31,43.31,0,0,0,240.66,9a46,46,0,0,0-13.6-6A83.28,83.28,0,0,0,211.16.24a64.65,64.65,0,0,0-12.52.14,86.3,86.3,0,0,0-15.86,3,73.72,73.72,0,0,0-26.64,14.52,56.08,56.08,0,0,0-9.53,10.92,32.09,32.09,0,0,0-2.75,4.79,51.41,51.41,0,0,0-3.21,8.23,46.44,46.44,0,0,0-1.38,9.09,44.54,44.54,0,0,0,.77,9.43,47.44,47.44,0,0,0,5.36,14.84,88.21,88.21,0,0,0,9,13c2.47,3.13,5.1,6.13,7.77,9.09,5.3,5.87,10.87,11.5,16.48,17.08,11.23,11.14,22.73,22.09,32.8,34.32,1.23,1.48,2.42,3,3.6,4.51l-2.35-3a124.38,124.38,0,0,1,16.08,26.58l-1.51-3.58a54.33,54.33,0,0,1,3.93,13.56l-.54-4a35.19,35.19,0,0,1,.09,8.64l.53-4a27.81,27.81,0,0,1-1.85,6.94l1.51-3.59a26.09,26.09,0,0,1-3.26,5.54l2.34-3a28.24,28.24,0,0,1-4.71,4.69l3-2.35a32.45,32.45,0,0,1-7.15,4.13l3.59-1.51a37.41,37.41,0,0,1-9.05,2.44l4-.53a39.09,39.09,0,0,1-10.08,0l4,.54a37.17,37.17,0,0,1-9-2.48l3.58,1.51a53.05,53.05,0,0,1-11.68-6.9l3,2.34A85.26,85.26,0,0,1,184.86,180l2.35,3c-3.3-4.28-6.32-8.75-9.22-13.31a15.74,15.74,0,0,0-9-6.89,15.32,15.32,0,0,0-11.55,1.51c-3.21,2.07-6,5.14-6.9,9s-.67,8.13,1.51,11.56a159.51,159.51,0,0,0,18.08,24,90.23,90.23,0,0,0,12.43,10.74,64.9,64.9,0,0,0,14.2,7.55,49.55,49.55,0,0,0,14,3.07,52.29,52.29,0,0,0,14.06-.86,49.32,49.32,0,0,0,12.95-4.41,42.12,42.12,0,0,0,11.05-7.84A41.31,41.31,0,0,0,261,186.58c-.31-12-4.85-23.3-10.54-33.68-8.91-16.27-21.38-30.45-34.32-43.63-12.39-12.62-25.46-24.6-37-38.06-1.43-1.67-2.83-3.36-4.18-5.1l2.35,3a58.46,58.46,0,0,1-7.61-12.49l1.51,3.59a33.59,33.59,0,0,1-2.3-8.29l.53,4a27.89,27.89,0,0,1,0-6.71l-.53,4a28.51,28.51,0,0,1,1.93-7.07l-1.51,3.59a34.18,34.18,0,0,1,4.29-7.31l-2.35,3a44.76,44.76,0,0,1,8-7.92l-3,2.34A55.9,55.9,0,0,1,188.13,33l-3.59,1.52a65.2,65.2,0,0,1,16.4-4.5l-4,.53a65.67,65.67,0,0,1,17.38,0l-4-.54a54.9,54.9,0,0,1,13.59,3.5L220.34,32a30.23,30.23,0,0,1,6.38,3.74l-3-2.34a23.7,23.7,0,0,1,3.88,3.81l-2.35-3a16,16,0,0,1,2.09,3.52l-1.51-3.59a12.89,12.89,0,0,1,.78,2.86L226,33a11.74,11.74,0,0,1,0,2.65l.53-4a12.82,12.82,0,0,1-.46,2A15,15,0,0,0,236.6,52.16c3.84.87,8.15.68,11.56-1.51a16.12,16.12,0,0,0,6.9-9Z"/><path class="cls-3" d="M43.05,9.49A52.64,52.64,0,0,0,9.27,36,50.17,50.17,0,0,0,4.83,47.87a3.06,3.06,0,0,0,2.1,3.69,3,3,0,0,0,3.69-2.1A46.65,46.65,0,0,1,34.24,19.17a43,43,0,0,1,10.41-3.89c3.75-.89,2.16-6.68-1.6-5.79Z"/><path class="cls-3" d="M170.94,18.34c-11.3,5-18.73,16.66-19.8,28.78A31.83,31.83,0,0,0,152,57.5c.92,3.74,6.71,2.15,5.79-1.6-3.14-12.71,3.94-27,16.2-32.38,1.48-.65,1.82-2.82,1.07-4.1a3.06,3.06,0,0,0-4.1-1.08Z"/><path class="cls-3" d="M170,166.2c-6.15,0-12.12,4.8-13.14,11a3.25,3.25,0,0,0,.31,2.31,3.06,3.06,0,0,0,1.79,1.38c1.44.33,3.42-.44,3.69-2.1a10.19,10.19,0,0,1,.38-1.54c0-.14.1-.27.15-.41.17-.46-.27.58-.11.25s.22-.47.35-.71.26-.46.4-.68a4.79,4.79,0,0,0,.46-.65c-.06.13-.47.59-.15.21l.28-.33.55-.57.54-.48.23-.19-.38.29a2.8,2.8,0,0,0,.35-.25,9.93,9.93,0,0,1,1.37-.82l.32-.15c.46-.22-.12.08-.25.1a5.05,5.05,0,0,0,.74-.27,10,10,0,0,1,1.62-.37l-.8.11a9.36,9.36,0,0,1,1.3-.09,3,3,0,0,0,0-6Z"/></g></g></svg>