<svg xmlns="http://www.w3.org/2000/svg" xmlns:xlink="http://www.w3.org/1999/xlink" viewBox="0 0 1920 1080"><defs><style>.cls-1{fill:none;}.cls-2{fill:#ffd4fb;}.cls-3{fill:#3a506b;}.cls-4{fill:#5bc0be;}.cls-5{fill:url(#New_Pattern);}</style><pattern id="New_Pattern" data-name="New Pattern" width="100" height="150" patternUnits="userSpaceOnUse" viewBox="0 0 100 150"><rect class="cls-1" width="100" height="150"/><polygon class="cls-2" points="99.86 147.35 86.7 134.19 99.89 121 113.05 134.16 99.86 147.35"/><polygon class="cls-3" points="97.22 150.02 84.06 163.18 70.87 149.99 84.03 136.83 97.22 150.02"/><polygon class="cls-2" points="-0.14 147.35 -13.3 134.19 -0.11 121 13.05 134.16 -0.14 147.35"/><polygon class="cls-4" points="29.13 150.29 15.97 163.45 2.78 150.26 15.94 137.1 29.13 150.29"/><polygon class="cls-2" points="49.86 72.35 36.7 59.19 49.89 46 63.05 59.16 49.86 72.35"/><polygon class="cls-3" points="47.22 75.02 34.06 88.18 20.87 74.99 34.03 61.83 47.22 75.02"/><polygon class="cls-4" points="79.13 75.29 65.97 88.45 52.78 75.26 65.94 62.1 79.13 75.29"/><polygon class="cls-2" points="49.86 104 36.7 90.84 49.89 77.65 63.05 90.81 49.86 104"/><polygon class="cls-3" points="97.22 0.02 84.06 13.18 70.87 -0.01 84.03 -13.17 97.22 0.02"/><polygon class="cls-2" points="99.86 29 86.7 15.84 99.89 2.65 113.05 15.81 99.86 29"/><polygon class="cls-4" points="29.13 0.29 15.97 13.45 2.78 0.26 15.94 -12.89 29.13 0.29"/><polygon class="cls-2" points="-0.14 29 -13.3 15.84 -0.11 2.65 13.05 15.81 -0.14 29"/></pattern></defs><title>studentbg</title><g id="Layer_2" data-name="Layer 2"><g id="Layer_1-2" data-name="Layer 1"><rect class="cls-5" width="1920" height="1080"/></g></g></svg>