<svg id="Layer_1" data-name="Layer 1" xmlns="http://www.w3.org/2000/svg" xmlns:xlink="http://www.w3.org/1999/xlink" viewBox="0 0 1920 1080"><defs><style>.cls-1,.cls-3,.cls-4,.cls-5{fill:none;}.cls-2{clip-path:url(#clip-path);}.cls-3{stroke:#3a506b;}.cls-3,.cls-4,.cls-5{stroke-miterlimit:10;stroke-width:10px;}.cls-4{stroke:#5bc0be;}.cls-5{stroke:#ffd4fb;}</style><clipPath id="clip-path"><rect class="cls-1" width="1920" height="1080"/></clipPath></defs><title>Artboard 1</title><g class="cls-2"><path class="cls-3" d="M85,15A75,75,0,0,1-65,15"/><path class="cls-4" d="M60,15A50,50,0,0,1-40,15"/><path class="cls-5" d="M35,15a25,25,0,0,1-50,0"/><path class="cls-5" d="M35,15a75,75,0,0,1,150,0"/><path class="cls-4" d="M60,15a50,50,0,0,1,100,0"/><path class="cls-3" d="M85,15a25,25,0,0,1,50,0"/><path class="cls-3" d="M285,15a75,75,0,0,1-150,0"/><path class="cls-4" d="M260,15a50,50,0,0,1-100,0"/><path class="cls-5" d="M235,15a25,25,0,0,1-50,0"/><path class="cls-5" d="M235,15a75,75,0,0,1,150,0"/><path class="cls-4" d="M260,15a50,50,0,0,1,100,0"/><path class="cls-3" d="M285,15a25,25,0,0,1,50,0"/><path class="cls-3" d="M485,15a75,75,0,0,1-150,0"/><path class="cls-4" d="M460,15a50,50,0,0,1-100,0"/><path class="cls-5" d="M435,15a25,25,0,0,1-50,0"/><path class="cls-5" d="M435,15a75,75,0,0,1,150,0"/><path class="cls-4" d="M460,15a50,50,0,0,1,100,0"/><path class="cls-3" d="M485,15a25,25,0,0,1,50,0"/><path class="cls-3" d="M685,15a75,75,0,0,1-150,0"/><path class="cls-4" d="M660,15a50,50,0,0,1-100,0"/><path class="cls-5" d="M635,15a25,25,0,0,1-50,0"/><path class="cls-5" d="M635,15a75,75,0,0,1,150,0"/><path class="cls-4" d="M660,15a50,50,0,0,1,100,0"/><path class="cls-3" d="M685,15a25,25,0,0,1,50,0"/><path class="cls-3" d="M885,15a75,75,0,0,1-150,0"/><path class="cls-4" d="M860,15a50,50,0,0,1-100,0"/><path class="cls-5" d="M835,15a25,25,0,0,1-50,0"/><path class="cls-5" d="M835,15a75,75,0,0,1,150,0"/><path class="cls-4" d="M860,15a50,50,0,0,1,100,0"/><path class="cls-3" d="M885,15a25,25,0,0,1,50,0"/><path class="cls-3" d="M1085,15a75,75,0,0,1-150,0"/><path class="cls-4" d="M1060,15a50,50,0,0,1-100,0"/><path class="cls-5" d="M1035,15a25,25,0,0,1-50,0"/><path class="cls-5" d="M1035,15a75,75,0,0,1,150,0"/><path class="cls-4" d="M1060,15a50,50,0,0,1,100,0"/><path class="cls-3" d="M1085,15a25,25,0,0,1,50,0"/><path class="cls-3" d="M1285,15a75,75,0,0,1-150,0"/><path class="cls-4" d="M1260,15a50,50,0,0,1-100,0"/><path class="cls-5" d="M1235,15a25,25,0,0,1-50,0"/><path class="cls-5" d="M1235,15a75,75,0,0,1,150,0"/><path class="cls-4" d="M1260,15a50,50,0,0,1,100,0"/><path class="cls-3" d="M1285,15a25,25,0,0,1,50,0"/><path class="cls-3" d="M1485,15a75,75,0,0,1-150,0"/><path class="cls-4" d="M1460,15a50,50,0,0,1-100,0"/><path class="cls-5" d="M1435,15a25,25,0,0,1-50,0"/><path class="cls-5" d="M1435,15a75,75,0,0,1,150,0"/><path class="cls-4" d="M1460,15a50,50,0,0,1,100,0"/><path class="cls-3" d="M1485,15a25,25,0,0,1,50,0"/><path class="cls-3" d="M1685,15a75,75,0,0,1-150,0"/><path class="cls-4" d="M1660,15a50,50,0,0,1-100,0"/><path class="cls-5" d="M1635,15a25,25,0,0,1-50,0"/><path class="cls-5" d="M1635,15a75,75,0,0,1,150,0"/><path class="cls-4" d="M1660,15a50,50,0,0,1,100,0"/><path class="cls-3" d="M1685,15a25,25,0,0,1,50,0"/><path class="cls-3" d="M1885,15a75,75,0,0,1-150,0"/><path class="cls-4" d="M1860,15a50,50,0,0,1-100,0"/><path class="cls-5" d="M1835,15a25,25,0,0,1-50,0"/><path class="cls-5" d="M1835,15a75,75,0,0,1,150,0"/><path class="cls-4" d="M1860,15a50,50,0,0,1,100,0"/><path class="cls-3" d="M1885,15a25,25,0,0,1,50,0"/><path class="cls-3" d="M1735,165a75,75,0,0,1,150,0"/><path class="cls-4" d="M1760,165a50,50,0,0,1,100,0"/><path class="cls-5" d="M1785,165a25,25,0,0,1,50,0"/><path class="cls-5" d="M1785,165a75,75,0,0,1-150,0"/><path class="cls-4" d="M1760,165a50,50,0,0,1-100,0"/><path class="cls-3" d="M1735,165a25,25,0,0,1-50,0"/><path class="cls-3" d="M1535,165a75,75,0,0,1,150,0"/><path class="cls-4" d="M1560,165a50,50,0,0,1,100,0"/><path class="cls-5" d="M1585,165a25,25,0,0,1,50,0"/><path class="cls-5" d="M1585,165a75,75,0,0,1-150,0"/><path class="cls-4" d="M1560,165a50,50,0,0,1-100,0"/><path class="cls-3" d="M1535,165a25,25,0,0,1-50,0"/><path class="cls-5" d="M1985,165a75,75,0,0,1-150,0"/><path class="cls-4" d="M1960,165a50,50,0,0,1-100,0"/><path class="cls-3" d="M1935,165a25,25,0,0,1-50,0"/><path class="cls-3" d="M1335,165a75,75,0,0,1,150,0"/><path class="cls-4" d="M1360,165a50,50,0,0,1,100,0"/><path class="cls-5" d="M1385,165a25,25,0,0,1,50,0"/><path class="cls-5" d="M1385,165a75,75,0,0,1-150,0"/><path class="cls-4" d="M1360,165a50,50,0,0,1-100,0"/><path class="cls-3" d="M1335,165a25,25,0,0,1-50,0"/><path class="cls-3" d="M1135,165a75,75,0,0,1,150,0"/><path class="cls-4" d="M1160,165a50,50,0,0,1,100,0"/><path class="cls-5" d="M1185,165a25,25,0,0,1,50,0"/><path class="cls-5" d="M1185,165a75,75,0,0,1-150,0"/><path class="cls-4" d="M1160,165a50,50,0,0,1-100,0"/><path class="cls-3" d="M1135,165a25,25,0,0,1-50,0"/><path class="cls-3" d="M935,165a75,75,0,0,1,150,0"/><path class="cls-4" d="M960,165a50,50,0,0,1,100,0"/><path class="cls-5" d="M985,165a25,25,0,0,1,50,0"/><path class="cls-5" d="M985,165a75,75,0,0,1-150,0"/><path class="cls-4" d="M960,165a50,50,0,0,1-100,0"/><path class="cls-3" d="M935,165a25,25,0,0,1-50,0"/><path class="cls-3" d="M735,165a75,75,0,0,1,150,0"/><path class="cls-4" d="M760,165a50,50,0,0,1,100,0"/><path class="cls-5" d="M785,165a25,25,0,0,1,50,0"/><path class="cls-5" d="M785,165a75,75,0,0,1-150,0"/><path class="cls-4" d="M760,165a50,50,0,0,1-100,0"/><path class="cls-3" d="M735,165a25,25,0,0,1-50,0"/><path class="cls-3" d="M535,165a75,75,0,0,1,150,0"/><path class="cls-4" d="M560,165a50,50,0,0,1,100,0"/><path class="cls-5" d="M585,165a25,25,0,0,1,50,0"/><path class="cls-5" d="M585,165a75,75,0,0,1-150,0"/><path class="cls-4" d="M560,165a50,50,0,0,1-100,0"/><path class="cls-3" d="M535,165a25,25,0,0,1-50,0"/><path class="cls-3" d="M335,165a75,75,0,0,1,150,0"/><path class="cls-4" d="M360,165a50,50,0,0,1,100,0"/><path class="cls-5" d="M385,165a25,25,0,0,1,50,0"/><path class="cls-5" d="M385,165a75,75,0,0,1-150,0"/><path class="cls-4" d="M360,165a50,50,0,0,1-100,0"/><path class="cls-3" d="M335,165a25,25,0,0,1-50,0"/><path class="cls-3" d="M135,165a75,75,0,0,1,150,0"/><path class="cls-4" d="M160,165a50,50,0,0,1,100,0"/><path class="cls-5" d="M185,165a25,25,0,0,1,50,0"/><path class="cls-5" d="M185,165a75,75,0,0,1-150,0"/><path class="cls-4" d="M160,165a50,50,0,0,1-100,0"/><path class="cls-3" d="M135,165a25,25,0,0,1-50,0"/><path class="cls-3" d="M-65,165a75,75,0,0,1,150,0"/><path class="cls-4" d="M-40,165a50,50,0,0,1,100,0"/><path class="cls-5" d="M-15,165a25,25,0,0,1,50,0"/><path class="cls-3" d="M85,315a75,75,0,0,1-150,0"/><path class="cls-4" d="M60,315a50,50,0,0,1-100,0"/><path class="cls-5" d="M35,315a25,25,0,0,1-50,0"/><path class="cls-5" d="M35,315a75,75,0,0,1,150,0"/><path class="cls-4" d="M60,315a50,50,0,0,1,100,0"/><path class="cls-3" d="M85,315a25,25,0,0,1,50,0"/><path class="cls-3" d="M285,315a75,75,0,0,1-150,0"/><path class="cls-4" d="M260,315a50,50,0,0,1-100,0"/><path class="cls-5" d="M235,315a25,25,0,0,1-50,0"/><path class="cls-5" d="M235,315a75,75,0,0,1,150,0"/><path class="cls-4" d="M260,315a50,50,0,0,1,100,0"/><path class="cls-3" d="M285,315a25,25,0,0,1,50,0"/><path class="cls-3" d="M485,315a75,75,0,0,1-150,0"/><path class="cls-4" d="M460,315a50,50,0,0,1-100,0"/><path class="cls-5" d="M435,315a25,25,0,0,1-50,0"/><path class="cls-5" d="M435,315a75,75,0,0,1,150,0"/><path class="cls-4" d="M460,315a50,50,0,0,1,100,0"/><path class="cls-3" d="M485,315a25,25,0,0,1,50,0"/><path class="cls-3" d="M685,315a75,75,0,0,1-150,0"/><path class="cls-4" d="M660,315a50,50,0,0,1-100,0"/><path class="cls-5" d="M635,315a25,25,0,0,1-50,0"/><path class="cls-5" d="M635,315a75,75,0,0,1,150,0"/><path class="cls-4" d="M660,315a50,50,0,0,1,100,0"/><path class="cls-3" d="M685,315a25,25,0,0,1,50,0"/><path class="cls-3" d="M885,315a75,75,0,0,1-150,0"/><path class="cls-4" d="M860,315a50,50,0,0,1-100,0"/><path class="cls-5" d="M835,315a25,25,0,0,1-50,0"/><path class="cls-5" d="M835,315a75,75,0,0,1,150,0"/><path class="cls-4" d="M860,315a50,50,0,0,1,100,0"/><path class="cls-3" d="M885,315a25,25,0,0,1,50,0"/><path class="cls-3" d="M1085,315a75,75,0,0,1-150,0"/><path class="cls-4" d="M1060,315a50,50,0,0,1-100,0"/><path class="cls-5" d="M1035,315a25,25,0,0,1-50,0"/><path class="cls-5" d="M1035,315a75,75,0,0,1,150,0"/><path class="cls-4" d="M1060,315a50,50,0,0,1,100,0"/><path class="cls-3" d="M1085,315a25,25,0,0,1,50,0"/><path class="cls-3" d="M1285,315a75,75,0,0,1-150,0"/><path class="cls-4" d="M1260,315a50,50,0,0,1-100,0"/><path class="cls-5" d="M1235,315a25,25,0,0,1-50,0"/><path class="cls-5" d="M1235,315a75,75,0,0,1,150,0"/><path class="cls-4" d="M1260,315a50,50,0,0,1,100,0"/><path class="cls-3" d="M1285,315a25,25,0,0,1,50,0"/><path class="cls-3" d="M1485,315a75,75,0,0,1-150,0"/><path class="cls-4" d="M1460,315a50,50,0,0,1-100,0"/><path class="cls-5" d="M1435,315a25,25,0,0,1-50,0"/><path class="cls-5" d="M1435,315a75,75,0,0,1,150,0"/><path class="cls-4" d="M1460,315a50,50,0,0,1,100,0"/><path class="cls-3" d="M1485,315a25,25,0,0,1,50,0"/><path class="cls-3" d="M1685,315a75,75,0,0,1-150,0"/><path class="cls-4" d="M1660,315a50,50,0,0,1-100,0"/><path class="cls-5" d="M1635,315a25,25,0,0,1-50,0"/><path class="cls-5" d="M1635,315a75,75,0,0,1,150,0"/><path class="cls-4" d="M1660,315a50,50,0,0,1,100,0"/><path class="cls-3" d="M1685,315a25,25,0,0,1,50,0"/><path class="cls-3" d="M1885,315a75,75,0,0,1-150,0"/><path class="cls-4" d="M1860,315a50,50,0,0,1-100,0"/><path class="cls-5" d="M1835,315a25,25,0,0,1-50,0"/><path class="cls-5" d="M1835,315a75,75,0,0,1,150,0"/><path class="cls-4" d="M1860,315a50,50,0,0,1,100,0"/><path class="cls-3" d="M1885,315a25,25,0,0,1,50,0"/><path class="cls-3" d="M1735,465a75,75,0,0,1,150,0"/><path class="cls-4" d="M1760,465a50,50,0,0,1,100,0"/><path class="cls-5" d="M1785,465a25,25,0,0,1,50,0"/><path class="cls-5" d="M1785,465a75,75,0,0,1-150,0"/><path class="cls-4" d="M1760,465a50,50,0,0,1-100,0"/><path class="cls-3" d="M1735,465a25,25,0,0,1-50,0"/><path class="cls-3" d="M1535,465a75,75,0,0,1,150,0"/><path class="cls-4" d="M1560,465a50,50,0,0,1,100,0"/><path class="cls-5" d="M1585,465a25,25,0,0,1,50,0"/><path class="cls-5" d="M1585,465a75,75,0,0,1-150,0"/><path class="cls-4" d="M1560,465a50,50,0,0,1-100,0"/><path class="cls-3" d="M1535,465a25,25,0,0,1-50,0"/><path class="cls-5" d="M1985,465a75,75,0,0,1-150,0"/><path class="cls-4" d="M1960,465a50,50,0,0,1-100,0"/><path class="cls-3" d="M1935,465a25,25,0,0,1-50,0"/><path class="cls-3" d="M1335,465a75,75,0,0,1,150,0"/><path class="cls-4" d="M1360,465a50,50,0,0,1,100,0"/><path class="cls-5" d="M1385,465a25,25,0,0,1,50,0"/><path class="cls-5" d="M1385,465a75,75,0,0,1-150,0"/><path class="cls-4" d="M1360,465a50,50,0,0,1-100,0"/><path class="cls-3" d="M1335,465a25,25,0,0,1-50,0"/><path class="cls-3" d="M1135,465a75,75,0,0,1,150,0"/><path class="cls-4" d="M1160,465a50,50,0,0,1,100,0"/><path class="cls-5" d="M1185,465a25,25,0,0,1,50,0"/><path class="cls-5" d="M1185,465a75,75,0,0,1-150,0"/><path class="cls-4" d="M1160,465a50,50,0,0,1-100,0"/><path class="cls-3" d="M1135,465a25,25,0,0,1-50,0"/><path class="cls-3" d="M935,465a75,75,0,0,1,150,0"/><path class="cls-4" d="M960,465a50,50,0,0,1,100,0"/><path class="cls-5" d="M985,465a25,25,0,0,1,50,0"/><path class="cls-5" d="M985,465a75,75,0,0,1-150,0"/><path class="cls-4" d="M960,465a50,50,0,0,1-100,0"/><path class="cls-3" d="M935,465a25,25,0,0,1-50,0"/><path class="cls-3" d="M735,465a75,75,0,0,1,150,0"/><path class="cls-4" d="M760,465a50,50,0,0,1,100,0"/><path class="cls-5" d="M785,465a25,25,0,0,1,50,0"/><path class="cls-5" d="M785,465a75,75,0,0,1-150,0"/><path class="cls-4" d="M760,465a50,50,0,0,1-100,0"/><path class="cls-3" d="M735,465a25,25,0,0,1-50,0"/><path class="cls-3" d="M535,465a75,75,0,0,1,150,0"/><path class="cls-4" d="M560,465a50,50,0,0,1,100,0"/><path class="cls-5" d="M585,465a25,25,0,0,1,50,0"/><path class="cls-5" d="M585,465a75,75,0,0,1-150,0"/><path class="cls-4" d="M560,465a50,50,0,0,1-100,0"/><path class="cls-3" d="M535,465a25,25,0,0,1-50,0"/><path class="cls-3" d="M335,465a75,75,0,0,1,150,0"/><path class="cls-4" d="M360,465a50,50,0,0,1,100,0"/><path class="cls-5" d="M385,465a25,25,0,0,1,50,0"/><path class="cls-5" d="M385,465a75,75,0,0,1-150,0"/><path class="cls-4" d="M360,465a50,50,0,0,1-100,0"/><path class="cls-3" d="M335,465a25,25,0,0,1-50,0"/><path class="cls-3" d="M135,465a75,75,0,0,1,150,0"/><path class="cls-4" d="M160,465a50,50,0,0,1,100,0"/><path class="cls-5" d="M185,465a25,25,0,0,1,50,0"/><path class="cls-5" d="M185,465a75,75,0,0,1-150,0"/><path class="cls-4" d="M160,465a50,50,0,0,1-100,0"/><path class="cls-3" d="M135,465a25,25,0,0,1-50,0"/><path class="cls-3" d="M-65,465a75,75,0,0,1,150,0"/><path class="cls-4" d="M-40,465a50,50,0,0,1,100,0"/><path class="cls-5" d="M-15,465a25,25,0,0,1,50,0"/><path class="cls-3" d="M85,615a75,75,0,0,1-150,0"/><path class="cls-4" d="M60,615a50,50,0,0,1-100,0"/><path class="cls-5" d="M35,615a25,25,0,0,1-50,0"/><path class="cls-5" d="M35,615a75,75,0,0,1,150,0"/><path class="cls-4" d="M60,615a50,50,0,0,1,100,0"/><path class="cls-3" d="M85,615a25,25,0,0,1,50,0"/><path class="cls-3" d="M285,615a75,75,0,0,1-150,0"/><path class="cls-4" d="M260,615a50,50,0,0,1-100,0"/><path class="cls-5" d="M235,615a25,25,0,0,1-50,0"/><path class="cls-5" d="M235,615a75,75,0,0,1,150,0"/><path class="cls-4" d="M260,615a50,50,0,0,1,100,0"/><path class="cls-3" d="M285,615a25,25,0,0,1,50,0"/><path class="cls-3" d="M485,615a75,75,0,0,1-150,0"/><path class="cls-4" d="M460,615a50,50,0,0,1-100,0"/><path class="cls-5" d="M435,615a25,25,0,0,1-50,0"/><path class="cls-5" d="M435,615a75,75,0,0,1,150,0"/><path class="cls-4" d="M460,615a50,50,0,0,1,100,0"/><path class="cls-3" d="M485,615a25,25,0,0,1,50,0"/><path class="cls-3" d="M685,615a75,75,0,0,1-150,0"/><path class="cls-4" d="M660,615a50,50,0,0,1-100,0"/><path class="cls-5" d="M635,615a25,25,0,0,1-50,0"/><path class="cls-5" d="M635,615a75,75,0,0,1,150,0"/><path class="cls-4" d="M660,615a50,50,0,0,1,100,0"/><path class="cls-3" d="M685,615a25,25,0,0,1,50,0"/><path class="cls-3" d="M885,615a75,75,0,0,1-150,0"/><path class="cls-4" d="M860,615a50,50,0,0,1-100,0"/><path class="cls-5" d="M835,615a25,25,0,0,1-50,0"/><path class="cls-5" d="M835,615a75,75,0,0,1,150,0"/><path class="cls-4" d="M860,615a50,50,0,0,1,100,0"/><path class="cls-3" d="M885,615a25,25,0,0,1,50,0"/><path class="cls-3" d="M1085,615a75,75,0,0,1-150,0"/><path class="cls-4" d="M1060,615a50,50,0,0,1-100,0"/><path class="cls-5" d="M1035,615a25,25,0,0,1-50,0"/><path class="cls-5" d="M1035,615a75,75,0,0,1,150,0"/><path class="cls-4" d="M1060,615a50,50,0,0,1,100,0"/><path class="cls-3" d="M1085,615a25,25,0,0,1,50,0"/><path class="cls-3" d="M1285,615a75,75,0,0,1-150,0"/><path class="cls-4" d="M1260,615a50,50,0,0,1-100,0"/><path class="cls-5" d="M1235,615a25,25,0,0,1-50,0"/><path class="cls-5" d="M1235,615a75,75,0,0,1,150,0"/><path class="cls-4" d="M1260,615a50,50,0,0,1,100,0"/><path class="cls-3" d="M1285,615a25,25,0,0,1,50,0"/><path class="cls-3" d="M1485,615a75,75,0,0,1-150,0"/><path class="cls-4" d="M1460,615a50,50,0,0,1-100,0"/><path class="cls-5" d="M1435,615a25,25,0,0,1-50,0"/><path class="cls-5" d="M1435,615a75,75,0,0,1,150,0"/><path class="cls-4" d="M1460,615a50,50,0,0,1,100,0"/><path class="cls-3" d="M1485,615a25,25,0,0,1,50,0"/><path class="cls-3" d="M1685,615a75,75,0,0,1-150,0"/><path class="cls-4" d="M1660,615a50,50,0,0,1-100,0"/><path class="cls-5" d="M1635,615a25,25,0,0,1-50,0"/><path class="cls-5" d="M1635,615a75,75,0,0,1,150,0"/><path class="cls-4" d="M1660,615a50,50,0,0,1,100,0"/><path class="cls-3" d="M1685,615a25,25,0,0,1,50,0"/><path class="cls-3" d="M1885,615a75,75,0,0,1-150,0"/><path class="cls-4" d="M1860,615a50,50,0,0,1-100,0"/><path class="cls-5" d="M1835,615a25,25,0,0,1-50,0"/><path class="cls-5" d="M1835,615a75,75,0,0,1,150,0"/><path class="cls-4" d="M1860,615a50,50,0,0,1,100,0"/><path class="cls-3" d="M1885,615a25,25,0,0,1,50,0"/><path class="cls-3" d="M1735,765a75,75,0,0,1,150,0"/><path class="cls-4" d="M1760,765a50,50,0,0,1,100,0"/><path class="cls-5" d="M1785,765a25,25,0,0,1,50,0"/><path class="cls-5" d="M1785,765a75,75,0,0,1-150,0"/><path class="cls-4" d="M1760,765a50,50,0,0,1-100,0"/><path class="cls-3" d="M1735,765a25,25,0,0,1-50,0"/><path class="cls-3" d="M1535,765a75,75,0,0,1,150,0"/><path class="cls-4" d="M1560,765a50,50,0,0,1,100,0"/><path class="cls-5" d="M1585,765a25,25,0,0,1,50,0"/><path class="cls-5" d="M1585,765a75,75,0,0,1-150,0"/><path class="cls-4" d="M1560,765a50,50,0,0,1-100,0"/><path class="cls-3" d="M1535,765a25,25,0,0,1-50,0"/><path class="cls-5" d="M1985,765a75,75,0,0,1-150,0"/><path class="cls-4" d="M1960,765a50,50,0,0,1-100,0"/><path class="cls-3" d="M1935,765a25,25,0,0,1-50,0"/><path class="cls-3" d="M1335,765a75,75,0,0,1,150,0"/><path class="cls-4" d="M1360,765a50,50,0,0,1,100,0"/><path class="cls-5" d="M1385,765a25,25,0,0,1,50,0"/><path class="cls-5" d="M1385,765a75,75,0,0,1-150,0"/><path class="cls-4" d="M1360,765a50,50,0,0,1-100,0"/><path class="cls-3" d="M1335,765a25,25,0,0,1-50,0"/><path class="cls-3" d="M1135,765a75,75,0,0,1,150,0"/><path class="cls-4" d="M1160,765a50,50,0,0,1,100,0"/><path class="cls-5" d="M1185,765a25,25,0,0,1,50,0"/><path class="cls-5" d="M1185,765a75,75,0,0,1-150,0"/><path class="cls-4" d="M1160,765a50,50,0,0,1-100,0"/><path class="cls-3" d="M1135,765a25,25,0,0,1-50,0"/><path class="cls-3" d="M935,765a75,75,0,0,1,150,0"/><path class="cls-4" d="M960,765a50,50,0,0,1,100,0"/><path class="cls-5" d="M985,765a25,25,0,0,1,50,0"/><path class="cls-5" d="M985,765a75,75,0,0,1-150,0"/><path class="cls-4" d="M960,765a50,50,0,0,1-100,0"/><path class="cls-3" d="M935,765a25,25,0,0,1-50,0"/><path class="cls-3" d="M735,765a75,75,0,0,1,150,0"/><path class="cls-4" d="M760,765a50,50,0,0,1,100,0"/><path class="cls-5" d="M785,765a25,25,0,0,1,50,0"/><path class="cls-5" d="M785,765a75,75,0,0,1-150,0"/><path class="cls-4" d="M760,765a50,50,0,0,1-100,0"/><path class="cls-3" d="M735,765a25,25,0,0,1-50,0"/><path class="cls-3" d="M535,765a75,75,0,0,1,150,0"/><path class="cls-4" d="M560,765a50,50,0,0,1,100,0"/><path class="cls-5" d="M585,765a25,25,0,0,1,50,0"/><path class="cls-5" d="M585,765a75,75,0,0,1-150,0"/><path class="cls-4" d="M560,765a50,50,0,0,1-100,0"/><path class="cls-3" d="M535,765a25,25,0,0,1-50,0"/><path class="cls-3" d="M335,765a75,75,0,0,1,150,0"/><path class="cls-4" d="M360,765a50,50,0,0,1,100,0"/><path class="cls-5" d="M385,765a25,25,0,0,1,50,0"/><path class="cls-5" d="M385,765a75,75,0,0,1-150,0"/><path class="cls-4" d="M360,765a50,50,0,0,1-100,0"/><path class="cls-3" d="M335,765a25,25,0,0,1-50,0"/><path class="cls-3" d="M135,765a75,75,0,0,1,150,0"/><path class="cls-4" d="M160,765a50,50,0,0,1,100,0"/><path class="cls-5" d="M185,765a25,25,0,0,1,50,0"/><path class="cls-5" d="M185,765a75,75,0,0,1-150,0"/><path class="cls-4" d="M160,765a50,50,0,0,1-100,0"/><path class="cls-3" d="M135,765a25,25,0,0,1-50,0"/><path class="cls-3" d="M-65,765a75,75,0,0,1,150,0"/><path class="cls-4" d="M-40,765a50,50,0,0,1,100,0"/><path class="cls-5" d="M-15,765a25,25,0,0,1,50,0"/><path class="cls-3" d="M85,915a75,75,0,0,1-150,0"/><path class="cls-4" d="M60,915a50,50,0,0,1-100,0"/><path class="cls-5" d="M35,915a25,25,0,0,1-50,0"/><path class="cls-5" d="M35,915a75,75,0,0,1,150,0"/><path class="cls-4" d="M60,915a50,50,0,0,1,100,0"/><path class="cls-3" d="M85,915a25,25,0,0,1,50,0"/><path class="cls-3" d="M285,915a75,75,0,0,1-150,0"/><path class="cls-4" d="M260,915a50,50,0,0,1-100,0"/><path class="cls-5" d="M235,915a25,25,0,0,1-50,0"/><path class="cls-5" d="M235,915a75,75,0,0,1,150,0"/><path class="cls-4" d="M260,915a50,50,0,0,1,100,0"/><path class="cls-3" d="M285,915a25,25,0,0,1,50,0"/><path class="cls-3" d="M485,915a75,75,0,0,1-150,0"/><path class="cls-4" d="M460,915a50,50,0,0,1-100,0"/><path class="cls-5" d="M435,915a25,25,0,0,1-50,0"/><path class="cls-5" d="M435,915a75,75,0,0,1,150,0"/><path class="cls-4" d="M460,915a50,50,0,0,1,100,0"/><path class="cls-3" d="M485,915a25,25,0,0,1,50,0"/><path class="cls-3" d="M685,915a75,75,0,0,1-150,0"/><path class="cls-4" d="M660,915a50,50,0,0,1-100,0"/><path class="cls-5" d="M635,915a25,25,0,0,1-50,0"/><path class="cls-5" d="M635,915a75,75,0,0,1,150,0"/><path class="cls-4" d="M660,915a50,50,0,0,1,100,0"/><path class="cls-3" d="M685,915a25,25,0,0,1,50,0"/><path class="cls-3" d="M885,915a75,75,0,0,1-150,0"/><path class="cls-4" d="M860,915a50,50,0,0,1-100,0"/><path class="cls-5" d="M835,915a25,25,0,0,1-50,0"/><path class="cls-5" d="M835,915a75,75,0,0,1,150,0"/><path class="cls-4" d="M860,915a50,50,0,0,1,100,0"/><path class="cls-3" d="M885,915a25,25,0,0,1,50,0"/><path class="cls-3" d="M1085,915a75,75,0,0,1-150,0"/><path class="cls-4" d="M1060,915a50,50,0,0,1-100,0"/><path class="cls-5" d="M1035,915a25,25,0,0,1-50,0"/><path class="cls-5" d="M1035,915a75,75,0,0,1,150,0"/><path class="cls-4" d="M1060,915a50,50,0,0,1,100,0"/><path class="cls-3" d="M1085,915a25,25,0,0,1,50,0"/><path class="cls-3" d="M1285,915a75,75,0,0,1-150,0"/><path class="cls-4" d="M1260,915a50,50,0,0,1-100,0"/><path class="cls-5" d="M1235,915a25,25,0,0,1-50,0"/><path class="cls-5" d="M1235,915a75,75,0,0,1,150,0"/><path class="cls-4" d="M1260,915a50,50,0,0,1,100,0"/><path class="cls-3" d="M1285,915a25,25,0,0,1,50,0"/><path class="cls-3" d="M1485,915a75,75,0,0,1-150,0"/><path class="cls-4" d="M1460,915a50,50,0,0,1-100,0"/><path class="cls-5" d="M1435,915a25,25,0,0,1-50,0"/><path class="cls-5" d="M1435,915a75,75,0,0,1,150,0"/><path class="cls-4" d="M1460,915a50,50,0,0,1,100,0"/><path class="cls-3" d="M1485,915a25,25,0,0,1,50,0"/><path class="cls-3" d="M1685,915a75,75,0,0,1-150,0"/><path class="cls-4" d="M1660,915a50,50,0,0,1-100,0"/><path class="cls-5" d="M1635,915a25,25,0,0,1-50,0"/><path class="cls-5" d="M1635,915a75,75,0,0,1,150,0"/><path class="cls-4" d="M1660,915a50,50,0,0,1,100,0"/><path class="cls-3" d="M1685,915a25,25,0,0,1,50,0"/><path class="cls-3" d="M1885,915a75,75,0,0,1-150,0"/><path class="cls-4" d="M1860,915a50,50,0,0,1-100,0"/><path class="cls-5" d="M1835,915a25,25,0,0,1-50,0"/><path class="cls-5" d="M1835,915a75,75,0,0,1,150,0"/><path class="cls-4" d="M1860,915a50,50,0,0,1,100,0"/><path class="cls-3" d="M1885,915a25,25,0,0,1,50,0"/><path class="cls-3" d="M1735,1065a75,75,0,0,1,150,0"/><path class="cls-4" d="M1760,1065a50,50,0,0,1,100,0"/><path class="cls-5" d="M1785,1065a25,25,0,0,1,50,0"/><path class="cls-5" d="M1785,1065a75,75,0,0,1-150,0"/><path class="cls-4" d="M1760,1065a50,50,0,0,1-100,0"/><path class="cls-3" d="M1735,1065a25,25,0,0,1-50,0"/><path class="cls-3" d="M1535,1065a75,75,0,0,1,150,0"/><path class="cls-4" d="M1560,1065a50,50,0,0,1,100,0"/><path class="cls-5" d="M1585,1065a25,25,0,0,1,50,0"/><path class="cls-5" d="M1585,1065a75,75,0,0,1-150,0"/><path class="cls-4" d="M1560,1065a50,50,0,0,1-100,0"/><path class="cls-3" d="M1535,1065a25,25,0,0,1-50,0"/><path class="cls-5" d="M1985,1065a75,75,0,0,1-150,0"/><path class="cls-4" d="M1960,1065a50,50,0,0,1-100,0"/><path class="cls-3" d="M1935,1065a25,25,0,0,1-50,0"/><path class="cls-3" d="M1335,1065a75,75,0,0,1,150,0"/><path class="cls-4" d="M1360,1065a50,50,0,0,1,100,0"/><path class="cls-5" d="M1385,1065a25,25,0,0,1,50,0"/><path class="cls-5" d="M1385,1065a75,75,0,0,1-150,0"/><path class="cls-4" d="M1360,1065a50,50,0,0,1-100,0"/><path class="cls-3" d="M1335,1065a25,25,0,0,1-50,0"/><path class="cls-3" d="M1135,1065a75,75,0,0,1,150,0"/><path class="cls-4" d="M1160,1065a50,50,0,0,1,100,0"/><path class="cls-5" d="M1185,1065a25,25,0,0,1,50,0"/><path class="cls-5" d="M1185,1065a75,75,0,0,1-150,0"/><path class="cls-4" d="M1160,1065a50,50,0,0,1-100,0"/><path class="cls-3" d="M1135,1065a25,25,0,0,1-50,0"/><path class="cls-3" d="M935,1065a75,75,0,0,1,150,0"/><path class="cls-4" d="M960,1065a50,50,0,0,1,100,0"/><path class="cls-5" d="M985,1065a25,25,0,0,1,50,0"/><path class="cls-5" d="M985,1065a75,75,0,0,1-150,0"/><path class="cls-4" d="M960,1065a50,50,0,0,1-100,0"/><path class="cls-3" d="M935,1065a25,25,0,0,1-50,0"/><path class="cls-3" d="M735,1065a75,75,0,0,1,150,0"/><path class="cls-4" d="M760,1065a50,50,0,0,1,100,0"/><path class="cls-5" d="M785,1065a25,25,0,0,1,50,0"/><path class="cls-5" d="M785,1065a75,75,0,0,1-150,0"/><path class="cls-4" d="M760,1065a50,50,0,0,1-100,0"/><path class="cls-3" d="M735,1065a25,25,0,0,1-50,0"/><path class="cls-3" d="M535,1065a75,75,0,0,1,150,0"/><path class="cls-4" d="M560,1065a50,50,0,0,1,100,0"/><path class="cls-5" d="M585,1065a25,25,0,0,1,50,0"/><path class="cls-5" d="M585,1065a75,75,0,0,1-150,0"/><path class="cls-4" d="M560,1065a50,50,0,0,1-100,0"/><path class="cls-3" d="M535,1065a25,25,0,0,1-50,0"/><path class="cls-3" d="M335,1065a75,75,0,0,1,150,0"/><path class="cls-4" d="M360,1065a50,50,0,0,1,100,0"/><path class="cls-5" d="M385,1065a25,25,0,0,1,50,0"/><path class="cls-5" d="M385,1065a75,75,0,0,1-150,0"/><path class="cls-4" d="M360,1065a50,50,0,0,1-100,0"/><path class="cls-3" d="M335,1065a25,25,0,0,1-50,0"/><path class="cls-3" d="M135,1065a75,75,0,0,1,150,0"/><path class="cls-4" d="M160,1065a50,50,0,0,1,100,0"/><path class="cls-5" d="M185,1065a25,25,0,0,1,50,0"/><path class="cls-5" d="M185,1065a75,75,0,0,1-150,0"/><path class="cls-4" d="M160,1065a50,50,0,0,1-100,0"/><path class="cls-3" d="M135,1065a25,25,0,0,1-50,0"/><path class="cls-3" d="M-65,1065a75,75,0,0,1,150,0"/><path class="cls-4" d="M-40,1065a50,50,0,0,1,100,0"/><path class="cls-5" d="M-15,1065a25,25,0,0,1,50,0"/></g></svg>