<svg xmlns="http://www.w3.org/2000/svg" viewBox="0 0 803.92 585.79"><defs><style>.cls-1{fill:#473a46;}.cls-2{fill:#fef;}.cls-3{fill:#ffd4fb;}.cls-4{fill:#fff;}</style></defs><title>Asset 4</title><g id="Layer_2" data-name="Layer 2"><g id="Shadow"><path class="cls-1" d="M44,57.54a276.23,276.23,0,0,0-4,32.17c-.59,9.66-.59,19.35-.39,29,.41,19.25,1.38,38.48.72,57.74-.36,10.69-1.16,21.36-2.57,32l.54-4q-1.22,8.9-3,17.71l29.46,4-1.88-65L61,96.35l-.52-18.19a105.25,105.25,0,0,1,.39-16.75l-.53,4a37.93,37.93,0,0,1,2.35-9L61.21,60a35.53,35.53,0,0,1,4.63-7.86l-2.35,3a46.61,46.61,0,0,1,8-7.91l-3,2.35a51.45,51.45,0,0,1,11.1-6.49l-3.58,1.52a54.88,54.88,0,0,1,13.85-3.77l-4,.54a54.71,54.71,0,0,1,14.35,0l-4-.54a51.42,51.42,0,0,1,12.75,3.49l-3.59-1.51a48.88,48.88,0,0,1,10.36,6.06l-3-2.35a52.59,52.59,0,0,1,9.19,9.19l-2.34-3a55.69,55.69,0,0,1,7.13,12.18l-1.51-3.59a54,54,0,0,1,3.71,13.59l-.53-4a50,50,0,0,1,0,13l.54-4a46.43,46.43,0,0,1-3,11l1.51-3.58a37.21,37.21,0,0,1-4.6,8l2.35-3a38.05,38.05,0,0,1-6.6,6.58l3-2.35a49.41,49.41,0,0,1-10.86,6.23l3.58-1.51c-7.58,3.16-15.64,4.66-23.74,5.75l4-.53c-7.55,1-15.14,1.75-22.66,3a17.54,17.54,0,0,0-14.1,12.58,17.18,17.18,0,0,0-.63,4.67,15,15,0,0,0,3.33,9.36A11.14,11.14,0,0,0,64.78,140a16,16,0,0,0,5.68,1.8,16.52,16.52,0,0,0,6.1-.28,14.83,14.83,0,0,0,3.91-1.67,15,15,0,0,0,5.39-20.53c-2.07-3.2-5.14-6-9-6.89A15.8,15.8,0,0,0,65.33,114l-.17.1,3.58-1.51-.15.06,4-.54-.13,0,4,.53-.11,0,3.59,1.51-.08-.05,5.38,5.38-.06-.09,1.51,3.58,0-.11.53,4a1,1,0,0,1,0-.3l-.54,4a3.35,3.35,0,0,1,.21-.75l-1.51,3.59a4.2,4.2,0,0,1,.48-.78l-2.35,3a2.57,2.57,0,0,1,.33-.33l-3,2.35a1.92,1.92,0,0,1,.38-.25l-3.58,1.51a14.3,14.3,0,0,1,3.28-.61c1.27-.2,2.54-.38,3.82-.55l-4,.54c8.59-1.15,17.23-1.93,25.75-3.49a87.28,87.28,0,0,0,21.63-7,52.78,52.78,0,0,0,29-35.7,60.69,60.69,0,0,0,1.35-20.8,75.89,75.89,0,0,0-2.13-11.79A79.64,79.64,0,0,0,152,48.42a66.82,66.82,0,0,0-11.21-16.67A62.16,62.16,0,0,0,125.1,19.21C99.81,5,65.57,9.52,45.29,30.47A50.64,50.64,0,0,0,32.27,53c-2,7.89-2,16.05-1.79,24.12L31.8,123l2.65,91.68.33,11.46c.11,3.75,1.56,8,4.4,10.61l3,2.35a11.21,11.21,0,0,0,5.58,1.78,7.71,7.71,0,0,0,4,0,11.21,11.21,0,0,0,5.57-1.78c3.17-2,6.1-5.15,6.9-9,4.31-20.66,6.08-41.82,6.35-62.9.25-20.23-1.13-40.44-1.06-60.67a263.39,263.39,0,0,1,2.18-33.91l-.54,4q.75-5.58,1.75-11.12a11.31,11.31,0,0,0,.27-6A11.11,11.11,0,0,0,71.42,54a15.33,15.33,0,0,0-9-6.9c-3.84-.87-8.15-.68-11.56,1.52-3.12,2-6.21,5.17-6.89,9Z"/><path class="cls-1" d="M188.53,149.61a21.06,21.06,0,0,0,.61-4.21c.31-6.82-.16-2.6-.61-4.19a15,15,0,0,0-8.87-9.89,15.61,15.61,0,0,0-8.28-1.14,14.73,14.73,0,0,0-10.23,6,16.53,16.53,0,0,0-3.33,11.36l.3,4.22,1.22,17.1,2.44,34.2,1.38,19.34,29.47-4c-.42-2.26-.79-4.54-1.1-6.82l.54,4a93.84,93.84,0,0,1-.26-24.32l-.54,4a65.34,65.34,0,0,1,4.4-16.6l-1.51,3.58a56.36,56.36,0,0,1,7.17-12.28L199,173a49.92,49.92,0,0,1,8.64-8.67l-3,2.35a43,43,0,0,1,9.23-5.41l-3.58,1.51a37.44,37.44,0,0,1,9.19-2.49l-4,.54a38.27,38.27,0,0,1,9.8,0l-4-.54a36.91,36.91,0,0,1,9.39,2.55l-3.59-1.52a33.26,33.26,0,0,1,6.83,4l-3-2.34A29.36,29.36,0,0,1,236,168l-2.34-3,.42.56a16.71,16.71,0,0,0,9,6.89,15.35,15.35,0,0,0,11.56-1.51c3.2-2.07,6-5.14,6.89-9,.84-3.67.86-8.39-1.51-11.55a48.62,48.62,0,0,0-6-7.14,52,52,0,0,0-7.43-5.63,55.48,55.48,0,0,0-8.51-4,37.14,37.14,0,0,0-5.64-1.74,51.13,51.13,0,0,0-15.5-1.23,62.5,62.5,0,0,0-9.51,1.49,57.73,57.73,0,0,0-9,3.35A55.85,55.85,0,0,0,185,144.25a64.38,64.38,0,0,0-10.67,12,63.34,63.34,0,0,0-6.8,12.57,71,71,0,0,0-4.71,15.46,101.74,101.74,0,0,0-1.61,20.9,143.45,143.45,0,0,0,2.52,21.15,16.84,16.84,0,0,0,6.89,9l3.59,1.51a11.27,11.27,0,0,0,6,.27,7.5,7.5,0,0,0,3.78-1,11.26,11.26,0,0,0,4.83-3.11c2.58-2.81,4.68-6.65,4.39-10.6q-2.13-30-4.28-60l-.58-8.18a80.93,80.93,0,0,1-.56-8.36l-.53,4,.06-.32-1.52,3.58.13-.29-2.35,3,.21-.24-3,2.35.24-.11-7.57,2h.26l-4-.53.24.1-6.62-3.86.19.17-3.86-6.62.08.21v-8l-.07.22a15,15,0,0,0,10.47,18.45c3.84.87,8.15.68,11.56-1.51a16.31,16.31,0,0,0,6.89-9Z"/><path class="cls-1" d="M333.55,169.83A33.75,33.75,0,0,0,347.22,152a19,19,0,0,0,.7-2.94,36.27,36.27,0,0,0,.69-6.82c-.2-5.58-1.88-11.26-6.13-15.14-6.44-5.87-15.78-7-23.8-3.94a56.14,56.14,0,0,0-9.21,4.27,66.15,66.15,0,0,0-8.14,6,68.4,68.4,0,0,0-11.24,12.71,75.39,75.39,0,0,0-8.2,15.44A61.49,61.49,0,0,0,278,174.8a60.47,60.47,0,0,0-1,16.87,59,59,0,0,0,1.72,10.05,49.2,49.2,0,0,0,3.82,9.26c3.17,5.9,7.85,10.4,13.22,14.27a30.06,30.06,0,0,0,5.46,3.11,52.59,52.59,0,0,0,9.22,3.4,47.78,47.78,0,0,0,16.59,1.11,63.33,63.33,0,0,0,10.69-2,76.8,76.8,0,0,0,9.63-3.81,66.39,66.39,0,0,0,14.27-9.29,60.54,60.54,0,0,0,10.8-12.07,39.47,39.47,0,0,0,3.22-5.42,56.22,56.22,0,0,0,3.6-9c3.2-11.17,1.59-23.84-5-33.54C368.3,149,360,142.51,350.88,137.41c-1.73-1-3.49-1.88-5.26-2.77a15.94,15.94,0,0,0-11.56-1.51,15.29,15.29,0,0,0-9,6.89c-1.84,3.48-2.77,7.7-1.52,11.56,1.16,3.58,3.42,7.22,6.9,9a90.53,90.53,0,0,1,14.38,8.68l-3-2.35a43.42,43.42,0,0,1,7.56,7.34l-2.35-3a30.1,30.1,0,0,1,3.82,6.41L349.33,174a26,26,0,0,1,1.77,6.36l-.54-4a26.74,26.74,0,0,1,0,7l.54-4a32.34,32.34,0,0,1-2.08,7.48l1.51-3.58a40.7,40.7,0,0,1-5.22,8.86l2.34-3a48,48,0,0,1-8.21,8.21l3-2.35a53.68,53.68,0,0,1-11.52,6.75l3.59-1.51A45.54,45.54,0,0,1,323,203.4l4-.53a37.35,37.35,0,0,1-9.39,0l4,.53a34.33,34.33,0,0,1-8.5-2.32l3.58,1.51a31.08,31.08,0,0,1-6.57-3.83l3,2.35a27.6,27.6,0,0,1-4.82-4.84l2.34,3a28.71,28.71,0,0,1-3.36-5.81l1.51,3.58a34,34,0,0,1-2.25-8.42l.53,4a45.74,45.74,0,0,1,.06-11.69l-.54,4a60.52,60.52,0,0,1,4.27-15.38l-1.51,3.58a62.92,62.92,0,0,1,8-13.57l-2.35,3a52.46,52.46,0,0,1,8.88-9l-3,2.35a38.45,38.45,0,0,1,8.33-4.94l-3.58,1.51a21.24,21.24,0,0,1,4.87-1.48l-4,.54a11.19,11.19,0,0,1,2.65,0l-4-.53a7.77,7.77,0,0,1,1.51.38L323,149.92a6,6,0,0,1,1.06.57l-3-2.34a5.39,5.39,0,0,1,.87.85l-2.34-3a6,6,0,0,1,.55.95l-1.51-3.58a8,8,0,0,1,.48,1.92l-.54-4a17.42,17.42,0,0,1-.08,3.82l.53-4a18.19,18.19,0,0,1-1.24,4.35l1.51-3.58a18.73,18.73,0,0,1-2.1,3.59l2.35-3a18,18,0,0,1-3.2,3.2l3-2.34c-.3.22-.61.44-.93.65a15.87,15.87,0,0,0-6.89,9A15.35,15.35,0,0,0,313,164.45c2.07,3.2,5.14,6,9,6.89s8.19.72,11.55-1.51Z"/><path class="cls-1" d="M472.92,156.31a18.74,18.74,0,0,0,5.35-8.85,21.74,21.74,0,0,0,0-10.72c-1.19-5.64-5.31-10.7-10.14-13.68-5.8-3.58-13-3.74-19.45-2.28a52,52,0,0,0-12.35,5,81.58,81.58,0,0,0-30.6,28.75,63.31,63.31,0,0,0-4.16,7.74,75.23,75.23,0,0,0-4.67,12.39,45.93,45.93,0,0,0-1.62,14.18,47.17,47.17,0,0,0,1.22,8.38,45.83,45.83,0,0,0,2.88,7.46,41,41,0,0,0,6.85,9.87,53,53,0,0,0,9.58,8.11,45.39,45.39,0,0,0,7.54,4.24,69.13,69.13,0,0,0,11.23,4.16A66.45,66.45,0,0,0,447.71,233a58.74,58.74,0,0,0,13-1.09,46.07,46.07,0,0,0,22.81-11.66,15,15,0,0,0,0-21.21c-2.86-2.63-6.62-4.57-10.61-4.4a16.23,16.23,0,0,0-10.61,4.4c-.62.57-1.26,1.12-1.92,1.64l3-2.35a31.18,31.18,0,0,1-6.74,3.95l3.59-1.51a36.13,36.13,0,0,1-8.94,2.44l4-.54a43.7,43.7,0,0,1-11.65,0l4,.54a48.48,48.48,0,0,1-12.05-3.34l3.58,1.51a46.08,46.08,0,0,1-9.75-5.66l3,2.34a36,36,0,0,1-6.2-6.07l2.34,3a27.5,27.5,0,0,1-3.59-6.07l1.51,3.58a24.47,24.47,0,0,1-1.58-5.82l.54,4a29.81,29.81,0,0,1,0-7.55l-.54,4a47.35,47.35,0,0,1,3.41-11.82l-1.51,3.58a66.43,66.43,0,0,1,8.49-14.46l-2.34,3a68,68,0,0,1,11.87-11.86l-3,2.35a64.52,64.52,0,0,1,14.22-8.36l-3.58,1.51a24.57,24.57,0,0,1,5.45-1.61l-4,.53a14.24,14.24,0,0,1,3.39-.06l-4-.53a11,11,0,0,1,2.45.66l-3.58-1.51a7.48,7.48,0,0,1,1.25.74l-3-2.35a8.14,8.14,0,0,1,1.26,1.23l-2.35-3a8.6,8.6,0,0,1,1.07,1.77l-1.52-3.58a8.1,8.1,0,0,1,.54,1.94l-.54-4a7.08,7.08,0,0,1,0,1.38l.53-4a5.4,5.4,0,0,1-.33,1.3l1.52-3.59a5,5,0,0,1-.54.93l2.35-3a4.92,4.92,0,0,1-.79.79c-2.79,2.33-4.39,7.12-4.39,10.61a15.28,15.28,0,0,0,4.39,10.61c2.86,2.62,6.61,4.57,10.61,4.39l4-.53a15.11,15.11,0,0,0,6.62-3.86Z"/><path class="cls-1" d="M531.66,192.46a107.68,107.68,0,0,0,15.42-1.53,58.2,58.2,0,0,0,14.62-4.76,30.85,30.85,0,0,0,4.94-2.81,42.18,42.18,0,0,0,7-5.7,40.59,40.59,0,0,0,8.59-14.52,33,33,0,0,0,1.4-6.7,27.74,27.74,0,0,0,.34-6.56,33.43,33.43,0,0,0-1.56-8.31,43.51,43.51,0,0,0-2.31-5.31,34.74,34.74,0,0,0-3.56-4.91,28.45,28.45,0,0,0-6.45-5.53,15.49,15.49,0,0,0-2.25-1.25,43.27,43.27,0,0,0-6-2.4,36.72,36.72,0,0,0-9-1.28,41.18,41.18,0,0,0-9.26,1,44,44,0,0,0-8.86,3.25,37.6,37.6,0,0,0-5.29,3,90.56,90.56,0,0,0-12.26,10c-7.62,7.32-14.12,15.7-17.55,25.8a28.55,28.55,0,0,0-1.25,5.3,47.41,47.41,0,0,0-.75,9,45.19,45.19,0,0,0,2.66,13.9c3.42,8.95,8.69,17.31,16.25,23.35a55.63,55.63,0,0,0,12.45,8,70,70,0,0,0,15.09,5,91.32,91.32,0,0,0,28.76.87c3.31-.43,6.63-.88,9.92-1.48,3.51-.65,7.22-3.91,9-6.89a15.32,15.32,0,0,0,1.51-11.56c-1.17-3.63-3.42-7.13-6.89-9l-3.58-1.51a15.21,15.21,0,0,0-8,0c-1.83.34-3.66.63-5.5.89l4-.54a84,84,0,0,1-21.84.26l4,.54a57.06,57.06,0,0,1-14.28-3.79l3.59,1.51a43.92,43.92,0,0,1-9.43-5.41l3,2.34a42.32,42.32,0,0,1-7.53-7.54l2.35,3a39.85,39.85,0,0,1-5-8.48l1.51,3.58a34.2,34.2,0,0,1-2.37-8.6l.53,4a30,30,0,0,1,0-7.45l-.54,4a30,30,0,0,1,2.06-7.42l-1.51,3.59a41.6,41.6,0,0,1,5.28-8.8l-2.34,3A81.79,81.79,0,0,1,545,153.51l-3,2.35a40.41,40.41,0,0,1,8.24-5l-3.59,1.51a26.84,26.84,0,0,1,6.39-1.83l-4,.54a23.41,23.41,0,0,1,6,0l-4-.54a20.19,20.19,0,0,1,4.65,1.23l-3.58-1.51a17.44,17.44,0,0,1,3.51,2l-3-2.35a15.63,15.63,0,0,1,2.67,2.66l-2.35-3a15.71,15.71,0,0,1,1.9,3.3l-1.52-3.58a17.75,17.75,0,0,1,1.07,4l-.54-4a21.12,21.12,0,0,1,0,5.21l.53-4a24.36,24.36,0,0,1-1.68,6.12l1.51-3.58a25,25,0,0,1-2.88,4.95l2.34-3a23.74,23.74,0,0,1-4.25,4.19l3-2.34a32.68,32.68,0,0,1-6.79,3.9l3.59-1.51a48.73,48.73,0,0,1-12.34,3.18l4-.54a86.6,86.6,0,0,1-9.24.67,15.61,15.61,0,0,0-10.6,4.4,15.24,15.24,0,0,0-4.4,10.6c.18,3.88,1.45,7.91,4.4,10.61a15.27,15.27,0,0,0,10.6,4.39Z"/><path class="cls-1" d="M659.52,150.58a17,17,0,0,0,17.38-.14c5.45-3.26,8.41-9.19,8.75-15.39a15.79,15.79,0,0,0-.71-5.46,17.8,17.8,0,0,0-4.93-7.93,21,21,0,0,0-8-4.64,24.91,24.91,0,0,0-6.16-1,24.45,24.45,0,0,0-5,.27,84.72,84.72,0,0,0-8.7,1.4A65.84,65.84,0,0,0,639,122.54a53.26,53.26,0,0,0-20.53,17.75,31.38,31.38,0,0,0-2.64,4.52c-1.85,3.86-3.55,7.85-3.29,12.24a21.26,21.26,0,0,0,.76,4.94,18.76,18.76,0,0,0,1.91,4.36,19.38,19.38,0,0,0,3.94,4.72,57.38,57.38,0,0,0,7.75,5.3c8.31,4.78,17.18,8.65,24.83,14.5l-3-2.34a46.53,46.53,0,0,1,8.38,8.21l-2.35-3a32.45,32.45,0,0,1,4.05,6.89L657.22,197a28.63,28.63,0,0,1,1.86,6.87l-.54-4a25.3,25.3,0,0,1,0,6.27l.54-4a22.1,22.1,0,0,1-1.4,5.23l1.52-3.59a19.11,19.11,0,0,1-2.31,4l2.35-3a16.2,16.2,0,0,1-2.65,2.65l3-2.34a13.79,13.79,0,0,1-2.54,1.5l3.59-1.51a11.22,11.22,0,0,1-2.47.7l4-.54a11,11,0,0,1-2.87,0l4,.54a17.08,17.08,0,0,1-3.69-1.12l3.58,1.51c-3-1.32-5.78-3-8.63-4.63l-9.06-5.06A15.66,15.66,0,0,0,634,194.93a15.35,15.35,0,0,0-9,6.89c-1.84,3.49-2.76,7.7-1.51,11.56a15.46,15.46,0,0,0,6.89,9L642.26,229c1.8,1,3.57,2,5.43,2.89a32.9,32.9,0,0,0,12.51,3.44,25.72,25.72,0,0,0,6.19-.63,18.76,18.76,0,0,0,4.07-1.43,27.46,27.46,0,0,0,8.51-5.58,28.7,28.7,0,0,0,5.31-6.94,34.68,34.68,0,0,0,3.28-8.09,41.21,41.21,0,0,0,.27-17.89,28,28,0,0,0-1.46-5.15,50.59,50.59,0,0,0-3.84-8.2c-5.13-8.31-12.55-14.72-20.72-19.93-4-2.55-8.22-4.75-12.42-7s-8.42-4.2-12.11-7l3,2.35a10.17,10.17,0,0,1-1.29-1.25l2.34,3a6.35,6.35,0,0,1-.7-1.21l1.52,3.58a3.86,3.86,0,0,1-.2-.74l.54,4a6.31,6.31,0,0,1,0-1.23l-.53,4a10.13,10.13,0,0,1,.68-2.42l-1.51,3.58a32.88,32.88,0,0,1,4.05-6.89l-2.34,3a36.87,36.87,0,0,1,6.64-6.57l-3,2.34a44.37,44.37,0,0,1,9.5-5.46l-3.59,1.51a50.23,50.23,0,0,1,12.45-3.37l-4,.54a23.22,23.22,0,0,1,5.33-.24l-4-.53a8.94,8.94,0,0,1,2,.48l-3.58-1.52a7.48,7.48,0,0,1,1.14.63l-3-2.34a5.12,5.12,0,0,1,.93.93l-2.34-3a3.72,3.72,0,0,1,.27.48L656,137.57a3.44,3.44,0,0,1,.2.78l-.54-4a5.57,5.57,0,0,1,0,.82l.53-4a4.52,4.52,0,0,1-.22.8l1.51-3.59a4.67,4.67,0,0,1-.54,1l2.35-3a4.76,4.76,0,0,1-.55.55l3-2.34a3.88,3.88,0,0,1-.63.35l3.58-1.51a1.65,1.65,0,0,1-.45.11l4-.54a1.42,1.42,0,0,1-.46,0l4,.54-.24-.07,3.59,1.52a2.08,2.08,0,0,1-.47-.24,15,15,0,0,0-20.52,5.38c-1.84,3.48-2.76,7.7-1.51,11.56a15.82,15.82,0,0,0,6.89,9Z"/><path class="cls-1" d="M748.29,151.16a16.84,16.84,0,0,0,12.7-1.5,17.29,17.29,0,0,0,6.58-6.51A18.67,18.67,0,0,0,770,134a17.41,17.41,0,0,0-.75-4.79A21.37,21.37,0,0,0,765,122a19.23,19.23,0,0,0-4.64-3.78,38.47,38.47,0,0,0-5.84-2.61,35.39,35.39,0,0,0-6.1-1.84c-11.45-2.36-23.66-1.33-34,4.37a35.28,35.28,0,0,0-7.08,5.24,18.88,18.88,0,0,0-1.69,1.88,30.91,30.91,0,0,0-3.57,5,29.23,29.23,0,0,0-3.29,12.17,22.19,22.19,0,0,0,.34,4.38,27.14,27.14,0,0,0,.89,4.74c3.34,10.44,11.2,18.17,18.84,25.65,7,6.84,14.14,13.56,20.14,21.32l-2.35-3a71,71,0,0,1,9,15.14l-1.51-3.58a48.78,48.78,0,0,1,3.44,12.38l-.53-4a27.64,27.64,0,0,1,.2,6.74l.54-4a11,11,0,0,1-.54,2l1.51-3.58a8.24,8.24,0,0,1-.9,1.55l2.35-3a9.72,9.72,0,0,1-1.2,1.2l3-2.34a9.86,9.86,0,0,1-2.08,1.22l3.58-1.51a12.09,12.09,0,0,1-2.71.74l4-.54a14.15,14.15,0,0,1-3.12,0l4,.53a27.87,27.87,0,0,1-7-2.12l3.58,1.52c-6.63-2.8-13.22-5.68-19.83-8.51a11.11,11.11,0,0,0-5.58-1.78,11.27,11.27,0,0,0-6,.27,15.27,15.27,0,0,0-9,6.89c-1.83,3.48-2.76,7.7-1.51,11.56l1.51,3.58a15.1,15.1,0,0,0,5.39,5.38l13.12,5.64,6.5,2.78c3,1.29,6.18,2.82,9.45,3.5a37.93,37.93,0,0,0,6.7.86,32.22,32.22,0,0,0,6.27-.72,19.06,19.06,0,0,0,4-1.41,17.23,17.23,0,0,0,3.87-2,25.3,25.3,0,0,0,6.58-6.59,7.5,7.5,0,0,0,.64-1,27.14,27.14,0,0,0,2-4.92,27.74,27.74,0,0,0,.84-9.48,67.12,67.12,0,0,0-9.44-29.74C763,180,756.64,172.56,750,165.74c-3.45-3.52-7-6.93-10.54-10.38a111.29,111.29,0,0,1-10-10.68l2.34,3a30,30,0,0,1-3.72-6.18l1.52,3.59a17.8,17.8,0,0,1-1.19-4.28l.54,4a14.18,14.18,0,0,1,0-3.19l-.53,4a13.37,13.37,0,0,1,.79-3l-1.51,3.58a13.94,13.94,0,0,1,1.6-2.78l-2.34,3a17.49,17.49,0,0,1,3.08-3.06l-3,2.35a24.41,24.41,0,0,1,4.83-2.78l-3.58,1.51a33.28,33.28,0,0,1,8.44-2.23l-4,.53a37.43,37.43,0,0,1,9.22,0l-4-.53a36.32,36.32,0,0,1,8.91,2.37l-3.59-1.52a13.09,13.09,0,0,1,2.66,1.43l-3-2.34a6,6,0,0,1,1,1l-2.34-3a3.7,3.7,0,0,1,.35.61l-1.51-3.58a3,3,0,0,1,.2.64l-.54-4a2.22,2.22,0,0,1,0,.63l.54-4a4.31,4.31,0,0,1-.27.93l1.51-3.58a3,3,0,0,1-.33.54l2.34-3a2.55,2.55,0,0,1-.43.44l3-2.35a2.16,2.16,0,0,1-.51.29l3.58-1.51-.27.08,4-.54a1.42,1.42,0,0,1-.58,0l4,.54-.3-.09a15.43,15.43,0,0,0-11.55,1.52,15.26,15.26,0,0,0-6.9,9c-.87,3.84-.68,8.15,1.52,11.56a15.89,15.89,0,0,0,9,6.89Z"/><path class="cls-1" d="M123.4,325.47a27.48,27.48,0,0,0,1-6,10.76,10.76,0,0,0,0-2.27,27.77,27.77,0,0,0-3.3-11.24,16.3,16.3,0,0,0-1.33-2,44.87,44.87,0,0,0-3.76-4.62,42.46,42.46,0,0,0-6.76-5.34,45.81,45.81,0,0,0-13.09-5.58A84.22,84.22,0,0,0,80.75,286a63,63,0,0,0-12,.19A84.34,84.34,0,0,0,53.48,289a81.69,81.69,0,0,0-14.23,5.84,64.88,64.88,0,0,0-11.47,8,51.83,51.83,0,0,0-9.15,10.45,28.85,28.85,0,0,0-2.51,4.43,45.84,45.84,0,0,0-3,8c-2.66,11-.24,22.13,5.44,31.77a89.16,89.16,0,0,0,9.05,12.22c2.43,2.86,5,5.63,7.56,8.35,5.18,5.43,10.58,10.64,16,15.8C62,404.13,73,414.28,82.5,425.78c1.17,1.42,2.33,2.86,3.45,4.32l-2.34-3a106.84,106.84,0,0,1,14,23.11l-1.51-3.58A47.41,47.41,0,0,1,99.31,458l-.54-4a30.46,30.46,0,0,1,0,7.75l.54-4a25.27,25.27,0,0,1-1.58,5.86l1.51-3.58a24,24,0,0,1-2.89,5l2.34-3a25.85,25.85,0,0,1-4.47,4.46l3-2.35A30.4,30.4,0,0,1,90.64,468l3.59-1.51a36.21,36.21,0,0,1-8.86,2.4l4-.53a38.38,38.38,0,0,1-9.93,0l4,.53a36.71,36.71,0,0,1-9.31-2.59l3.58,1.52a52.62,52.62,0,0,1-11.09-6.59l3,2.34A84.08,84.08,0,0,1,55,448.43l2.34,3c-2.53-3.29-4.9-6.7-7.19-10.16a15.89,15.89,0,0,0-9-6.89,15.32,15.32,0,0,0-11.55,1.51c-3.21,2.07-6,5.14-6.9,9s-.71,8.19,1.51,11.56C29.41,464.29,35,472,41.63,478.74a86.6,86.6,0,0,0,11.88,9.91,63.17,63.17,0,0,0,13.91,7.11,48.84,48.84,0,0,0,13.29,2.75,52.57,52.57,0,0,0,13.59-.86,48.92,48.92,0,0,0,12.63-4.28,40.51,40.51,0,0,0,10.6-7.47A38.34,38.34,0,0,0,129,456.84c-.51-11.29-4.85-21.84-10.46-31.51C109.8,410.2,97.77,397.13,85.3,385,73.46,373.47,61,362.5,50.13,350.05q-2.07-2.35-4-4.84l2.35,3A49.46,49.46,0,0,1,42,337.52l1.52,3.59A29.44,29.44,0,0,1,41.56,334l.54,4a24.28,24.28,0,0,1,0-5.84l-.53,4a25.06,25.06,0,0,1,1.7-6.25l-1.52,3.58a30.73,30.73,0,0,1,3.89-6.58l-2.35,3a41,41,0,0,1,7.19-7.11l-3,2.34A52.35,52.35,0,0,1,59,318.58l-3.58,1.51a64.3,64.3,0,0,1,15.66-4.26l-4,.54a65.11,65.11,0,0,1,17.08,0l-4-.54A52.81,52.81,0,0,1,93,319l-3.58-1.51A28.92,28.92,0,0,1,95.59,321l-3-2.34a21.35,21.35,0,0,1,3.61,3.5l-2.34-3a14.9,14.9,0,0,1,1.9,3.16l-1.52-3.58a10.76,10.76,0,0,1,.69,2.48l-.54-4a9.77,9.77,0,0,1,0,2.59l.54-4a11.87,11.87,0,0,1-.42,1.66A15,15,0,0,0,105,336c3.84.88,8.15.69,11.56-1.51a16.31,16.31,0,0,0,6.89-9Z"/><path class="cls-1" d="M170.62,449.17l4.47-1.95-22.57-13a141,141,0,0,0,2.79,35.19,123.72,123.72,0,0,0,4,15.14q1.26,3.72,2.74,7.35a46.79,46.79,0,0,0,4.25,8.78,33.18,33.18,0,0,0,8.88,9.18,24.46,24.46,0,0,0,5.69,2.68,20.39,20.39,0,0,0,6.49,1c8.35.11,15.16-4.86,20.55-10.74a88.7,88.7,0,0,0,10.26-13.57,91.68,91.68,0,0,0,7.41-15.6,71.38,71.38,0,0,0,3.87-14.89,87.14,87.14,0,0,0,1.09-19.15c-.28-3.83-1.44-7.89-4.39-10.6l-3-2.35a11.21,11.21,0,0,0-5.58-1.78,7.71,7.71,0,0,0-4,0,11.21,11.21,0,0,0-5.57,1.78,16.25,16.25,0,0,0-6.9,9,44.19,44.19,0,0,0-1.59,7.73,48.07,48.07,0,0,0-.6,7.67,60.1,60.1,0,0,0,1.14,9.64,35.23,35.23,0,0,0,1.59,5.68,56.61,56.61,0,0,0,3.92,8.66,58,58,0,0,0,5.28,7.26,48,48,0,0,0,10.79,9.36,34.29,34.29,0,0,0,5.36,2.91,55,55,0,0,0,9.19,3.38,15.78,15.78,0,0,0,11.56-1.51,15.34,15.34,0,0,0,6.89-9c.87-3.84.68-8.15-1.51-11.56a15.26,15.26,0,0,0-9-6.89,36,36,0,0,1-5.43-1.79l3.59,1.51a36.22,36.22,0,0,1-7.56-4.42l3,2.34a35.55,35.55,0,0,1-6.21-6.17l2.34,3a34.91,34.91,0,0,1-4.4-7.54L231,459.6a36,36,0,0,1-2.32-8.52l.53,4a36.41,36.41,0,0,1,0-9.67l-.54,4a36.47,36.47,0,0,1,1.33-5.74l-29.46-4a70.43,70.43,0,0,1-.44,14.37l.54-4a73.33,73.33,0,0,1-5,18.09l1.52-3.58A71.67,71.67,0,0,1,188,480.41l2.35-3a49,49,0,0,1-7.94,8.46l3-2.34a12.83,12.83,0,0,1-2.72,1.61l3.58-1.52a8.78,8.78,0,0,1-1.89.5l4-.53a8.65,8.65,0,0,1-2,0l4,.54a8.92,8.92,0,0,1-1.83-.53l3.59,1.51a10.58,10.58,0,0,1-2-1.14l3,2.34a15.22,15.22,0,0,1-2.64-2.68l2.34,3a28.63,28.63,0,0,1-3.34-5.9l1.52,3.58a123.32,123.32,0,0,1-8.21-30.54l.53,4a126.14,126.14,0,0,1-.95-23.47c.28-5.2-3.05-10.39-7.43-12.95a15,15,0,0,0-15.14,0l-4.47,1.95a16.8,16.8,0,0,0-6.9,9,15.34,15.34,0,0,0,1.51,11.56c2.07,3.21,5.14,6,9,6.9l4,.53a14.94,14.94,0,0,0,7.57-2.05Z"/><path class="cls-1" d="M302.53,429.47c-2.86-2.2-7-2.57-10.46-2.11a15.36,15.36,0,0,0-6,1.93,20.5,20.5,0,0,0-3.55,2.76c-3.73,3.53-5.34,8.71-5.61,13.69-.25,4.47-.2,9-.29,13.44q-.27,13.57-.45,27.14-.37,27-.43,54,0,15.18,0,30.38a15.48,15.48,0,0,0,4.4,10.6,15.24,15.24,0,0,0,10.6,4.4c3.88-.18,7.9-1.45,10.61-4.4l2.34-3a14.94,14.94,0,0,0,2.05-7.57c3.23-27.58.54-55.35,1.42-83A230.11,230.11,0,0,1,309,464.56l-.54,4c1.22-9,2.8-18.28,6.32-26.66l-1.51,3.59a38.23,38.23,0,0,1,4.61-8.11l-2.34,3a23.91,23.91,0,0,1,4.11-4.18l-3,2.34a17.58,17.58,0,0,1,3.5-2.06L316.52,438a15.13,15.13,0,0,1,3.63-1l-4,.54a15.71,15.71,0,0,1,3.69,0l-4-.54A18.93,18.93,0,0,1,320,438.2l-3.58-1.52a27.65,27.65,0,0,1,5.93,3.49l-3-2.35a32.15,32.15,0,0,1,5.56,5.56l-2.35-3a34.41,34.41,0,0,1,4.32,7.42l-1.51-3.58a35,35,0,0,1,2.29,8.28l-.54-4a32.36,32.36,0,0,1,0,8.57l.53-4a30,30,0,0,1-2,7.21l1.51-3.59a32.31,32.31,0,0,1-4.1,7l2.35-3a35.41,35.41,0,0,1-6,6l3-2.35a34,34,0,0,1-7.34,4.3l3.59-1.51a31.56,31.56,0,0,1-7.86,2.13l4-.53-1.06.12a16.7,16.7,0,0,0-10.61,4.39,15.23,15.23,0,0,0-4.39,10.61c.17,3.88,1.45,7.9,4.39,10.6,2.77,2.54,6.71,4.78,10.61,4.4a43,43,0,0,0,17.46-4.74A45.73,45.73,0,0,0,343,486a34.92,34.92,0,0,0,3.71-4.07,53.49,53.49,0,0,0,5.06-7.19,41.69,41.69,0,0,0,4.86-13.48,52.22,52.22,0,0,0,.84-9.17,58.71,58.71,0,0,0-1.06-9,33.22,33.22,0,0,0-1.47-5.36,59.23,59.23,0,0,0-3.67-8.32,54.83,54.83,0,0,0-5.1-7.23,32.91,32.91,0,0,0-3.77-4.06A41.47,41.47,0,0,0,326,408.56a26.63,26.63,0,0,0-9.64-1,38.58,38.58,0,0,0-6,.93,38,38,0,0,0-5.63,2.25,32.36,32.36,0,0,0-6.74,4.68,23.83,23.83,0,0,0-3.51,3.66,55,55,0,0,0-5.07,7.18,73.79,73.79,0,0,0-3.64,8A75.69,75.69,0,0,0,282.19,446c-4.58,19.64-5.34,39.94-5.17,60,.17,19.26,1.05,38.56-.56,57.77-.19,2.34-.43,4.66-.7,7h30q-.22-49.07.6-98.11.11-6.72.24-13.45c.09-4.57,0-9.19.31-13.75l-.54,4a6.7,6.7,0,0,1,.44-1.59l-1.51,3.58a6.24,6.24,0,0,1,.47-.84l-2.34,3A4.3,4.3,0,0,1,304,453l-3,2.35a1.37,1.37,0,0,1,.43-.23l-3.58,1.51.22-.05-4,.53h.23l-4-.54.23.06-3.59-1.51a1.18,1.18,0,0,1,.45.28,11.21,11.21,0,0,0,5.58,1.78,11.37,11.37,0,0,0,6-.27,15.35,15.35,0,0,0,9-6.89c1.83-3.48,2.76-7.7,1.51-11.56l-1.51-3.58a15.13,15.13,0,0,0-5.39-5.39Z"/><path class="cls-1" d="M375.22,433.23l-2,53.57-2,53.58L370,570.78a15,15,0,0,0,15,15c3.88-.18,7.91-1.45,10.61-4.4l2.35-3a14.93,14.93,0,0,0,2-7.57l6.51-98c.57-8.63.8-17.36,1.9-25.94l-.53,4a39.47,39.47,0,0,1,2.47-9.87l-1.51,3.58a23.27,23.27,0,0,1,2.87-5l-2.34,3a20.2,20.2,0,0,1,3.29-3.31l-3,2.35a21.84,21.84,0,0,1,4.79-2.78l-3.58,1.51a26.41,26.41,0,0,1,6.11-1.64l-4,.54a31.29,31.29,0,0,1,8.26,0l-4-.54a34.31,34.31,0,0,1,8.33,2.29L422,439.46a39.44,39.44,0,0,1,8.45,4.92l-3-2.35a41.86,41.86,0,0,1,7.43,7.44l-2.34-3a41.63,41.63,0,0,1,5.28,9.08l-1.51-3.58a38.53,38.53,0,0,1,2.57,9.43l-.53-4a31.73,31.73,0,0,1,.06,8l.54-4a24.17,24.17,0,0,1-1.51,5.74l1.51-3.58a18.86,18.86,0,0,1-2.38,4.07l2.35-3a18.54,18.54,0,0,1-3,2.95l3-2.34a20.53,20.53,0,0,1-4.41,2.52l3.58-1.51A30.22,30.22,0,0,1,431,468l4-.54a74.21,74.21,0,0,1-15,.1l-20-1.43c-3.67-.27-8.08,1.86-10.61,4.39a15.23,15.23,0,0,0-4.39,10.61c.17,3.88,1.45,7.9,4.39,10.6l3,2.35a14.91,14.91,0,0,0,7.57,2l16.56,1.18a130.23,130.23,0,0,0,13.39.56,78.37,78.37,0,0,0,9.78-1.05,28.79,28.79,0,0,0,5.77-1.49,35.21,35.21,0,0,0,8.36-4.08,43.09,43.09,0,0,0,4.86-3.91,38.42,38.42,0,0,0,4.26-5.26,17.2,17.2,0,0,0,1.58-2.72,44.28,44.28,0,0,0,2.62-6.53,41.74,41.74,0,0,0,1.48-10.31,55.53,55.53,0,0,0-.95-10.05,38.53,38.53,0,0,0-1.48-6,53,53,0,0,0-7-14.19,67.21,67.21,0,0,0-6.07-7.5,54.49,54.49,0,0,0-6-5.16c-8.77-6.78-19.69-11-30.91-10.7-13,.36-25.54,6.4-32.05,18-5.88,10.46-6.07,22.68-6.84,34.34l-2.23,33.6-4.47,67.43-.57,8.46h30l2-53.58,2-53.57,1.14-30.4a15,15,0,0,0-15-15c-3.88.17-7.9,1.45-10.6,4.39a16.14,16.14,0,0,0-4.4,10.61Z"/><path class="cls-1" d="M550.23,436.42a22.42,22.42,0,0,0,2.31-5.43c.09-.34.14-.68.2-1a30.93,30.93,0,0,0,.58-4.89,25.41,25.41,0,0,0-3-11.42,20.3,20.3,0,0,0-2.34-3.42,23,23,0,0,0-2.71-3.19,28.31,28.31,0,0,0-10.19-6,21.37,21.37,0,0,0-4.36-.82,22.39,22.39,0,0,0-4.83-.32,31.55,31.55,0,0,0-9.49,2,40.54,40.54,0,0,0-8.67,4.44,66.25,66.25,0,0,0-7.4,6.06,65.2,65.2,0,0,0-16,26,63,63,0,0,0-2.87,15.34,41.39,41.39,0,0,0,0,6.2,58.54,58.54,0,0,0,1.48,9.67,39.9,39.9,0,0,0,19.94,25.33,43.51,43.51,0,0,0,13.64,4.58,55.64,55.64,0,0,0,9.1.79,59.16,59.16,0,0,0,9.18-1.11,54.43,54.43,0,0,0,14.55-5.37,70.71,70.71,0,0,0,12.78-8.92,72.09,72.09,0,0,0,10.65-11.56,39.66,39.66,0,0,0,7-14.16c1.58-6.22,1.58-13.2-.85-19.22a41.35,41.35,0,0,0-4.43-8.72,90.51,90.51,0,0,0-6-7.64,67.68,67.68,0,0,0-9-8.55,88.78,88.78,0,0,0-13.1-8.93c-1.83-1-3.7-1.87-5.61-2.69a16.82,16.82,0,0,0-11.56-1.51,15.35,15.35,0,0,0-9,6.89c-1.84,3.48-2.76,7.7-1.51,11.56l1.51,3.58a15.18,15.18,0,0,0,5.38,5.39,69.92,69.92,0,0,1,15,8.75l-3-2.34a69.12,69.12,0,0,1,12.1,11.95l-2.35-3a31.86,31.86,0,0,1,4.19,6.85L550,447.91a20.41,20.41,0,0,1,1.26,4.43l-.54-4a18.24,18.24,0,0,1,0,4.84l.54-4a23.37,23.37,0,0,1-1.43,5.06l1.51-3.59a34.17,34.17,0,0,1-4.5,7.5l2.35-3A60,60,0,0,1,539,465.19l3-2.34a51,51,0,0,1-11.12,6.57l3.58-1.52a39.08,39.08,0,0,1-9.6,2.64l4-.53a33.65,33.65,0,0,1-8.39,0l4,.54a33.26,33.26,0,0,1-8.08-2.15l3.58,1.51a28.89,28.89,0,0,1-6.21-3.6l3,2.35a26.17,26.17,0,0,1-4.31-4.3l2.35,3a25.5,25.5,0,0,1-3.19-5.52l1.51,3.59a31.93,31.93,0,0,1-2-7.49l.54,4a40.7,40.7,0,0,1,0-10.69l-.54,4A49.2,49.2,0,0,1,514.51,443L513,446.56a50.5,50.5,0,0,1,6.4-11l-2.34,3a46.55,46.55,0,0,1,7.86-8l-3,2.35a29.35,29.35,0,0,1,6.09-3.69l-3.58,1.51a19.69,19.69,0,0,1,4.71-1.35l-4,.54a15.83,15.83,0,0,1,3.64,0l-4-.54a12.21,12.21,0,0,1,2.66.67l-3.58-1.51a11.94,11.94,0,0,1,2.52,1.45l-3-2.35a12.73,12.73,0,0,1,2.28,2.3l-2.34-3a12.44,12.44,0,0,1,1.42,2.48l-1.51-3.59a10.85,10.85,0,0,1,.63,2.38l-.54-4a9,9,0,0,1,0,1.8l.54-4a8.51,8.51,0,0,1-.55,2l1.51-3.59c-.14.29-.28.56-.44.84a15.54,15.54,0,0,0-1.52,11.56,15.27,15.27,0,0,0,6.9,9c3.48,1.84,7.7,2.76,11.56,1.51a15.67,15.67,0,0,0,9-6.89Z"/><path class="cls-1" d="M625.28,420.92a17.43,17.43,0,0,0,0-8.31,15.43,15.43,0,0,0-4.09-6.88,31.18,31.18,0,0,0-3.15-2.4,11.45,11.45,0,0,0-5.7-1.83,16.19,16.19,0,0,0-6.49.33,14.78,14.78,0,0,0-8,5.58,15.44,15.44,0,0,0-3,5.66,48.32,48.32,0,0,0-.89,6.83,128.75,128.75,0,0,0-.55,14c.1,9.29.85,18.58,1.45,27.85l1,16,29.46-4q-.35-1.59-.57-3.21l.53,4a53.22,53.22,0,0,1,.11-13.87l-.54,4a98.63,98.63,0,0,1,3.48-15.17c1.43-4.7,2.92-9.44,4.8-14l-1.52,3.58a30.62,30.62,0,0,1,3.59-6.45l-2.35,3a20.24,20.24,0,0,1,3.42-3.44l-3,2.35a24.37,24.37,0,0,1,5.2-3l-3.58,1.51a48.37,48.37,0,0,1,11.92-2.94l-4,.54a70.31,70.31,0,0,1,18.16.05l-4-.53a41.69,41.69,0,0,1,9.2,2l-3.58-1.51a9.81,9.81,0,0,1,2.12,1.24l-3-2.34a8.17,8.17,0,0,1,.93.93l-2.35-3a6,6,0,0,1,.46.77l-1.51-3.58a3,3,0,0,1,.16.53l-.54-4a1.62,1.62,0,0,1,0,.54l.54-4a2.12,2.12,0,0,1-.13.54l1.51-3.59a2.35,2.35,0,0,1-.29.54,15,15,0,0,0,5.38,20.52c3.49,1.84,7.7,2.76,11.56,1.51a16.14,16.14,0,0,0,9-6.89l.23-.4a30.48,30.48,0,0,0,1.57-3.72,19.92,19.92,0,0,0,.66-4.66,20.83,20.83,0,0,0-.6-4.52,14.51,14.51,0,0,0-1.84-4.37,19.41,19.41,0,0,0-3.53-4.35,22.76,22.76,0,0,0-4.84-3.45c-5.79-2.75-11.94-3.56-18.25-4.32a68.85,68.85,0,0,0-12.35-.35A85,85,0,0,0,632,402.59c-10.44,2.66-19.82,8.84-24.88,18.58a95.9,95.9,0,0,0-5.43,13.62c-1.34,4-2.61,8-3.66,12a100.16,100.16,0,0,0-2.9,17.37,62,62,0,0,0,1.37,17.6,15.05,15.05,0,0,0,6.9,9l3.58,1.51a11.27,11.27,0,0,0,6,.27,7.53,7.53,0,0,0,3.79-1,11.22,11.22,0,0,0,4.82-3.11c2.6-2.82,4.65-6.64,4.4-10.6-.65-10-1.34-20-1.94-30s-.94-20.08.24-30.06l-.54,4a4.3,4.3,0,0,1,.23-.94l-1.51,3.59.16-.26-2.34,3,.23-.2-6.62,3.86.24-.09-4,.54.26,0-7.57-2.05.24.11-3-2.35.18.17-3.86-6.62.09.2v-8l0,.23c-.8,4-.6,8,1.51,11.56a15.32,15.32,0,0,0,9,6.89c3.84.87,8.15.68,11.56-1.51,3.15-2,6.14-5.16,6.89-9Z"/><path class="cls-1" d="M753.87,339.86l.22-.2-3,2.35a1.93,1.93,0,0,1,.49-.26L748,343.26a2.08,2.08,0,0,1,.54-.11l-4,.53a2.72,2.72,0,0,1,.57,0l-4-.53a4.89,4.89,0,0,1,.85.25l-3.59-1.51a5.58,5.58,0,0,1,.77.49l-3-2.35a2.89,2.89,0,0,1,.42.44l-2.34-3a4.72,4.72,0,0,1,.49.88l-1.51-3.58a7.23,7.23,0,0,1,.29,1.2l-.54-4a10.62,10.62,0,0,1-.06,2.11l.54-4a159.09,159.09,0,0,1-4.62,19.73c-1.81,6.43-3.83,12.81-5.89,19.16-4.16,12.84-8.49,25.65-11.48,38.82-3.13,13.84-5.07,28.34-3.63,42.52.85,8.29,2,16.87,6.51,24.12,5.1,8.28,13.45,13.48,22.93,15.27,18.41,3.46,37.39,2.81,55.7-.9,3.55-.72,7.19-3.86,9-6.9a15.3,15.3,0,0,0,1.51-11.56c-1.17-3.63-3.42-7.13-6.89-9l-3.59-1.51a15,15,0,0,0-8,0c-3,.61-6,1.11-9,1.52l4-.53a133.39,133.39,0,0,1-34.69,0l4,.54a41.31,41.31,0,0,1-10.07-2.34l3.58,1.51a18.53,18.53,0,0,1-4.16-2.4l3,2.34a17,17,0,0,1-2.66-2.7l2.35,3a21.67,21.67,0,0,1-2.61-4.59l1.51,3.59a44,44,0,0,1-2.58-10.69l.53,4a105.57,105.57,0,0,1,.24-27.51l-.54,4c3.89-28.71,16.45-55.27,22.87-83.39,1.38-6,3.15-12.48,1.64-18.64a18.14,18.14,0,0,0-12.38-13.07,16.91,16.91,0,0,0-9.38-.28c-3.19.68-5.48,2.33-7.87,4.42-2.78,2.43-4.4,7-4.4,10.61a15.29,15.29,0,0,0,4.4,10.61c2.86,2.62,6.61,4.57,10.6,4.39l4-.54a14.94,14.94,0,0,0,6.62-3.85Z"/><path class="cls-1" d="M708.53,391q28.58-2.49,57.26-3.41a15.69,15.69,0,0,0,10.61-4.4,15.23,15.23,0,0,0,4.39-10.6c-.17-3.88-1.45-7.91-4.39-10.61a15.23,15.23,0,0,0-10.61-4.39q-28.66.93-57.26,3.41a16.7,16.7,0,0,0-10.61,4.39A15.25,15.25,0,0,0,693.53,376c.17,3.88,1.45,7.9,4.39,10.61,2.79,2.55,6.69,4.73,10.61,4.39Z"/></g><g id="Highlight"><path class="cls-2" d="M32,46.54a276.23,276.23,0,0,0-4,32.17c-.59,9.66-.59,19.35-.39,29,.41,19.25,1.38,38.48.72,57.74-.36,10.69-1.16,21.36-2.57,32l.54-4q-1.22,8.9-3,17.71l29.46,4-1.88-65L49,85.35l-.52-18.19a105.25,105.25,0,0,1,.39-16.75l-.53,4a37.93,37.93,0,0,1,2.35-9L49.21,49a35.53,35.53,0,0,1,4.63-7.86l-2.35,3a46.61,46.61,0,0,1,8-7.91l-3,2.35a51.45,51.45,0,0,1,11.1-6.49l-3.58,1.52a54.88,54.88,0,0,1,13.85-3.77l-4,.54a54.71,54.71,0,0,1,14.35,0l-4-.54a51.42,51.42,0,0,1,12.75,3.49l-3.59-1.51a48.88,48.88,0,0,1,10.36,6.06l-3-2.35a52.59,52.59,0,0,1,9.19,9.19l-2.34-3a55.69,55.69,0,0,1,7.13,12.18l-1.51-3.59a54,54,0,0,1,3.71,13.59l-.53-4a50,50,0,0,1,0,13l.54-4a46.43,46.43,0,0,1-3,11l1.51-3.58a37.21,37.21,0,0,1-4.6,8l2.35-3a38.05,38.05,0,0,1-6.6,6.58l3-2.35a49.41,49.41,0,0,1-10.86,6.23l3.58-1.51C94.72,93.48,86.66,95,78.56,96.07l4-.53c-7.55,1-15.14,1.75-22.66,3a17.54,17.54,0,0,0-14.1,12.58,17.18,17.18,0,0,0-.63,4.67,15,15,0,0,0,3.33,9.36A11.14,11.14,0,0,0,52.78,129a16,16,0,0,0,5.68,1.8,16.52,16.52,0,0,0,6.1-.28,14.83,14.83,0,0,0,3.91-1.67,15,15,0,0,0,5.39-20.53c-2.07-3.2-5.14-6-9-6.89A15.8,15.8,0,0,0,53.33,103l-.17.1,3.58-1.51-.15.06,4-.54-.13,0,4,.53-.11,0,3.59,1.51-.08-.05,5.38,5.38-.06-.09,1.51,3.58,0-.11.53,4a1,1,0,0,1,0-.3l-.54,4a3.35,3.35,0,0,1,.21-.75l-1.51,3.59a4.2,4.2,0,0,1,.48-.78l-2.35,3a2.57,2.57,0,0,1,.33-.33l-3,2.35a1.92,1.92,0,0,1,.38-.25l-3.58,1.51a14.3,14.3,0,0,1,3.28-.61c1.27-.2,2.54-.38,3.82-.55l-4,.54c8.59-1.15,17.23-1.93,25.75-3.49a87.28,87.28,0,0,0,21.63-7,52.78,52.78,0,0,0,29-35.7,60.69,60.69,0,0,0,1.35-20.8,75.89,75.89,0,0,0-2.13-11.79A79.64,79.64,0,0,0,140,37.42a66.82,66.82,0,0,0-11.21-16.67A62.16,62.16,0,0,0,113.1,8.21C87.81-6,53.57-1.48,33.29,19.47A50.64,50.64,0,0,0,20.27,42c-2,7.89-2,16.05-1.79,24.12L19.8,112l2.65,91.68.33,11.46c.11,3.75,1.56,8,4.4,10.61l3,2.35a11.21,11.21,0,0,0,5.58,1.78,7.71,7.71,0,0,0,4,0,11.21,11.21,0,0,0,5.57-1.78c3.17-2,6.1-5.15,6.9-9,4.31-20.66,6.08-41.82,6.35-62.9.25-20.23-1.13-40.44-1.06-60.67a263.39,263.39,0,0,1,2.18-33.91l-.54,4q.75-5.58,1.75-11.12a11.31,11.31,0,0,0,.27-6A11.11,11.11,0,0,0,59.42,43a15.33,15.33,0,0,0-9-6.9c-3.84-.87-8.15-.68-11.56,1.52-3.12,2-6.21,5.17-6.89,9Z"/><path class="cls-2" d="M176.53,138.61a21.06,21.06,0,0,0,.61-4.21c.31-6.82-.16-2.6-.61-4.19a15,15,0,0,0-8.87-9.89,9.22,9.22,0,0,0-4-1.13,9.25,9.25,0,0,0-4.25,0,14.73,14.73,0,0,0-10.23,6,16.53,16.53,0,0,0-3.33,11.36l.3,4.22,1.22,17.1,2.44,34.2,1.38,19.34,29.47-4c-.42-2.26-.79-4.54-1.1-6.82l.54,4a93.84,93.84,0,0,1-.26-24.32l-.54,4a65.34,65.34,0,0,1,4.4-16.6l-1.51,3.58a56.36,56.36,0,0,1,7.17-12.28L187,162a49.92,49.92,0,0,1,8.64-8.67l-3,2.35a43,43,0,0,1,9.23-5.41l-3.58,1.51a37.44,37.44,0,0,1,9.19-2.49l-4,.54a38.27,38.27,0,0,1,9.8,0l-4-.54a36.91,36.91,0,0,1,9.39,2.55l-3.59-1.52a33.26,33.26,0,0,1,6.83,4l-3-2.34A29.36,29.36,0,0,1,224,157l-2.34-3,.42.56a16.71,16.71,0,0,0,9,6.89,15.35,15.35,0,0,0,11.56-1.51c3.2-2.07,6-5.14,6.89-9,.84-3.67.86-8.39-1.51-11.55a48.62,48.62,0,0,0-6.05-7.14,52,52,0,0,0-7.43-5.63,55.48,55.48,0,0,0-8.51-4,37.14,37.14,0,0,0-5.64-1.74,51.13,51.13,0,0,0-15.5-1.23,62.5,62.5,0,0,0-9.51,1.49,57.73,57.73,0,0,0-9,3.35A55.85,55.85,0,0,0,173,133.25a64.38,64.38,0,0,0-10.67,12,63.34,63.34,0,0,0-6.8,12.57,71,71,0,0,0-4.71,15.46,101.74,101.74,0,0,0-1.61,20.9,143.45,143.45,0,0,0,2.52,21.15,16.84,16.84,0,0,0,6.89,9l3.59,1.51a11.27,11.27,0,0,0,6,.27,7.5,7.5,0,0,0,3.78-1,11.26,11.26,0,0,0,4.83-3.11c2.58-2.81,4.68-6.65,4.39-10.6q-2.13-30-4.28-60l-.58-8.18a80.93,80.93,0,0,1-.56-8.36l-.53,4,.06-.32-1.52,3.58.13-.29-2.35,3,.21-.24-3,2.35.24-.11-7.57,2h.26l-4-.53.24.1-6.62-3.86.19.17-3.86-6.62.08.21v-8l-.07.22a15,15,0,0,0,10.47,18.45c3.84.87,8.15.68,11.56-1.51a16.31,16.31,0,0,0,6.89-9Z"/><path class="cls-2" d="M321.55,158.83A33.75,33.75,0,0,0,335.22,141a19,19,0,0,0,.7-2.94,36.27,36.27,0,0,0,.69-6.82c-.2-5.58-1.88-11.26-6.13-15.14-6.44-5.87-15.78-7-23.8-3.94a56.14,56.14,0,0,0-9.21,4.27,66.15,66.15,0,0,0-8.14,6,68.4,68.4,0,0,0-11.24,12.71,75.39,75.39,0,0,0-8.2,15.44A61.49,61.49,0,0,0,266,163.8a60.47,60.47,0,0,0-1,16.87,59,59,0,0,0,1.72,10.05,49.2,49.2,0,0,0,3.82,9.26c3.17,5.9,7.85,10.4,13.22,14.27a30.06,30.06,0,0,0,5.46,3.11,52.59,52.59,0,0,0,9.22,3.4,47.78,47.78,0,0,0,16.59,1.11,63.33,63.33,0,0,0,10.69-2,76.8,76.8,0,0,0,9.63-3.81,66.39,66.39,0,0,0,14.27-9.29,60.54,60.54,0,0,0,10.8-12.07,39.47,39.47,0,0,0,3.22-5.42,56.22,56.22,0,0,0,3.6-9c3.2-11.17,1.59-23.84-5-33.54C356.3,138,348,131.51,338.88,126.41c-1.73-1-3.49-1.88-5.26-2.77a15.94,15.94,0,0,0-11.56-1.51,15.29,15.29,0,0,0-9,6.89c-1.84,3.48-2.77,7.7-1.52,11.56,1.16,3.58,3.42,7.22,6.9,9a90.53,90.53,0,0,1,14.38,8.68l-3-2.35a43.42,43.42,0,0,1,7.56,7.34l-2.35-3a30.1,30.1,0,0,1,3.82,6.41L337.33,163a26,26,0,0,1,1.77,6.36l-.54-4a26.74,26.74,0,0,1,0,7l.54-4a32.34,32.34,0,0,1-2.08,7.48l1.51-3.58a40.7,40.7,0,0,1-5.22,8.86l2.34-3a48,48,0,0,1-8.21,8.21l3-2.35a53.68,53.68,0,0,1-11.52,6.75l3.59-1.51A45.54,45.54,0,0,1,311,192.4l4-.53a37.35,37.35,0,0,1-9.39,0l4,.53a34.33,34.33,0,0,1-8.5-2.32l3.58,1.51a31.08,31.08,0,0,1-6.57-3.83l3,2.35a27.6,27.6,0,0,1-4.82-4.84l2.34,3a28.71,28.71,0,0,1-3.36-5.81l1.51,3.58a34,34,0,0,1-2.25-8.42l.53,4a45.74,45.74,0,0,1,.06-11.69l-.54,4a60.52,60.52,0,0,1,4.27-15.38l-1.51,3.58a62.92,62.92,0,0,1,8-13.57l-2.35,3a52.46,52.46,0,0,1,8.88-9l-3,2.35a38.45,38.45,0,0,1,8.33-4.94l-3.58,1.51a21.24,21.24,0,0,1,4.87-1.48l-4,.54a11.19,11.19,0,0,1,2.65,0l-4-.53a7.77,7.77,0,0,1,1.51.38L311,138.92a6,6,0,0,1,1.06.57l-3-2.34a5.39,5.39,0,0,1,.87.85l-2.34-3a6,6,0,0,1,.55.95l-1.51-3.58a8,8,0,0,1,.48,1.92l-.54-4a17.42,17.42,0,0,1-.08,3.82l.53-4a18.19,18.19,0,0,1-1.24,4.35l1.51-3.58a18.73,18.73,0,0,1-2.1,3.59l2.35-3a18,18,0,0,1-3.2,3.2l3-2.34c-.3.22-.61.44-.93.65a15.87,15.87,0,0,0-6.89,9A15.35,15.35,0,0,0,301,153.45c2.07,3.2,5.14,6,9,6.89s8.19.72,11.55-1.51Z"/><path class="cls-2" d="M460.92,145.31a18.74,18.74,0,0,0,5.35-8.85,21.74,21.74,0,0,0,0-10.72c-1.19-5.64-5.31-10.7-10.14-13.68-5.8-3.58-13-3.74-19.45-2.28a52,52,0,0,0-12.35,5,81.58,81.58,0,0,0-30.6,28.75,63.31,63.31,0,0,0-4.16,7.74,75.23,75.23,0,0,0-4.67,12.39,45.93,45.93,0,0,0-1.62,14.18,47.17,47.17,0,0,0,1.22,8.38,45.83,45.83,0,0,0,2.88,7.46,41,41,0,0,0,6.85,9.87,53,53,0,0,0,9.58,8.11,45.39,45.39,0,0,0,7.54,4.24,69.13,69.13,0,0,0,11.23,4.16A66.45,66.45,0,0,0,435.71,222a58.74,58.74,0,0,0,13-1.09,46.07,46.07,0,0,0,22.81-11.66,15,15,0,0,0,0-21.21c-2.86-2.63-6.62-4.57-10.61-4.4a16.23,16.23,0,0,0-10.61,4.4c-.62.57-1.26,1.12-1.92,1.64l3-2.35a31.18,31.18,0,0,1-6.74,3.95l3.59-1.51a36.13,36.13,0,0,1-8.94,2.44l4-.54a43.7,43.7,0,0,1-11.65,0l4,.54a48.48,48.48,0,0,1-12.05-3.34l3.58,1.51a46.08,46.08,0,0,1-9.75-5.66l3,2.34a36,36,0,0,1-6.2-6.07l2.34,3a27.5,27.5,0,0,1-3.59-6.07l1.51,3.58a24.47,24.47,0,0,1-1.58-5.82l.54,4a29.81,29.81,0,0,1,0-7.55l-.54,4a47.35,47.35,0,0,1,3.41-11.82l-1.51,3.58a66.43,66.43,0,0,1,8.49-14.46l-2.34,3a68,68,0,0,1,11.87-11.86l-3,2.35a64.52,64.52,0,0,1,14.22-8.36l-3.58,1.51a24.57,24.57,0,0,1,5.45-1.61l-4,.53a14.24,14.24,0,0,1,3.39-.06l-4-.53a11,11,0,0,1,2.45.66l-3.58-1.51a7.48,7.48,0,0,1,1.25.74l-3-2.35a8.14,8.14,0,0,1,1.26,1.23l-2.35-3a8.6,8.6,0,0,1,1.07,1.77l-1.52-3.58a8.1,8.1,0,0,1,.54,1.94l-.54-4a7.08,7.08,0,0,1,0,1.38l.53-4a5.4,5.4,0,0,1-.33,1.3l1.52-3.59a5,5,0,0,1-.54.93l2.35-3a4.92,4.92,0,0,1-.79.79c-2.79,2.33-4.39,7.12-4.39,10.61a15.28,15.28,0,0,0,4.39,10.61c2.86,2.62,6.61,4.57,10.61,4.39l4-.53a15.11,15.11,0,0,0,6.62-3.86Z"/><path class="cls-2" d="M519.66,181.46a107.68,107.68,0,0,0,15.42-1.53,58.2,58.2,0,0,0,14.62-4.76,30.85,30.85,0,0,0,4.94-2.81,42.18,42.18,0,0,0,7-5.7,40.59,40.59,0,0,0,8.59-14.52,33,33,0,0,0,1.4-6.7,27.74,27.74,0,0,0,.34-6.56,33.43,33.43,0,0,0-1.56-8.31,43.51,43.51,0,0,0-2.31-5.31,34.74,34.74,0,0,0-3.56-4.91,28.45,28.45,0,0,0-6.45-5.53,15.49,15.49,0,0,0-2.25-1.25,43.27,43.27,0,0,0-6-2.4,36.72,36.72,0,0,0-9-1.28,41.18,41.18,0,0,0-9.26,1,44,44,0,0,0-8.86,3.25,37.6,37.6,0,0,0-5.29,3,90.56,90.56,0,0,0-12.26,10c-7.62,7.32-14.12,15.7-17.55,25.8a28.55,28.55,0,0,0-1.25,5.3,47.41,47.41,0,0,0-.75,9,45.19,45.19,0,0,0,2.66,13.9c3.42,8.95,8.69,17.31,16.25,23.35a55.63,55.63,0,0,0,12.45,8,70,70,0,0,0,15.09,5,91.32,91.32,0,0,0,28.76.87c3.31-.43,6.63-.88,9.92-1.48,3.51-.65,7.22-3.91,9-6.89a15.32,15.32,0,0,0,1.51-11.56c-1.17-3.63-3.42-7.13-6.89-9l-3.58-1.51a15.21,15.21,0,0,0-8,0c-1.83.34-3.66.63-5.5.89l4-.54a84,84,0,0,1-21.84.26l4,.54a57.06,57.06,0,0,1-14.28-3.79l3.59,1.51a43.92,43.92,0,0,1-9.43-5.41l3,2.34a42.32,42.32,0,0,1-7.53-7.54l2.35,3a39.85,39.85,0,0,1-5-8.48l1.51,3.58a34.2,34.2,0,0,1-2.37-8.6l.53,4a30,30,0,0,1,0-7.45l-.54,4a30,30,0,0,1,2.06-7.42l-1.51,3.59a41.6,41.6,0,0,1,5.28-8.8l-2.34,3A81.79,81.79,0,0,1,533,142.51l-3,2.35a40.41,40.41,0,0,1,8.24-5l-3.59,1.51a26.84,26.84,0,0,1,6.39-1.83l-4,.54a23.41,23.41,0,0,1,6,0l-4-.54a20.19,20.19,0,0,1,4.65,1.23l-3.58-1.51a17.44,17.44,0,0,1,3.51,2l-3-2.35a15.63,15.63,0,0,1,2.67,2.66l-2.35-3a15.71,15.71,0,0,1,1.9,3.3l-1.52-3.58a17.75,17.75,0,0,1,1.07,4l-.54-4a21.12,21.12,0,0,1,0,5.21l.53-4a24.36,24.36,0,0,1-1.68,6.12l1.51-3.58a25,25,0,0,1-2.88,4.95l2.34-3a23.74,23.74,0,0,1-4.25,4.19l3-2.34a32.68,32.68,0,0,1-6.79,3.9l3.59-1.51a48.73,48.73,0,0,1-12.34,3.18l4-.54a86.6,86.6,0,0,1-9.24.67,15.61,15.61,0,0,0-10.6,4.4,15.24,15.24,0,0,0-4.4,10.6c.18,3.88,1.45,7.91,4.4,10.61a15.27,15.27,0,0,0,10.6,4.39Z"/><path class="cls-2" d="M647.52,139.58a17,17,0,0,0,17.38-.14c5.45-3.26,8.41-9.19,8.75-15.39a15.79,15.79,0,0,0-.71-5.46,17.8,17.8,0,0,0-4.93-7.93,21,21,0,0,0-8-4.64,24.91,24.91,0,0,0-6.16-1,24.45,24.45,0,0,0-5,.27,84.72,84.72,0,0,0-8.7,1.4A65.84,65.84,0,0,0,627,111.54a53.26,53.26,0,0,0-20.53,17.75,31.38,31.38,0,0,0-2.64,4.52c-1.85,3.86-3.55,7.85-3.29,12.24a21.26,21.26,0,0,0,.76,4.94,18.76,18.76,0,0,0,1.91,4.36,19.38,19.38,0,0,0,3.94,4.72,57.38,57.38,0,0,0,7.75,5.3c8.31,4.78,17.18,8.65,24.83,14.5l-3-2.34a46.53,46.53,0,0,1,8.38,8.21l-2.35-3a32.45,32.45,0,0,1,4.05,6.89L645.22,186a28.63,28.63,0,0,1,1.86,6.87l-.54-4a25.3,25.3,0,0,1,0,6.27l.54-4a22.1,22.1,0,0,1-1.4,5.23l1.52-3.59a19.11,19.11,0,0,1-2.31,4l2.35-3a16.2,16.2,0,0,1-2.65,2.65l3-2.34a13.79,13.79,0,0,1-2.54,1.5l3.59-1.51a11.22,11.22,0,0,1-2.47.7l4-.54a11,11,0,0,1-2.87,0l4,.54a17.08,17.08,0,0,1-3.69-1.12l3.58,1.51c-3-1.32-5.78-3-8.63-4.63l-9.06-5.06A15.66,15.66,0,0,0,622,183.93a15.35,15.35,0,0,0-9,6.89c-1.84,3.49-2.76,7.7-1.51,11.56a15.46,15.46,0,0,0,6.89,9L630.26,218c1.8,1,3.57,2,5.43,2.89a32.9,32.9,0,0,0,12.51,3.44,25.72,25.72,0,0,0,6.19-.63,18.76,18.76,0,0,0,4.07-1.43,27.46,27.46,0,0,0,8.51-5.58,28.7,28.7,0,0,0,5.31-6.94,34.68,34.68,0,0,0,3.28-8.09,41.21,41.21,0,0,0,.27-17.89,28,28,0,0,0-1.46-5.15,50.59,50.59,0,0,0-3.84-8.2c-5.13-8.31-12.55-14.72-20.72-19.93-4-2.55-8.22-4.75-12.42-7s-8.42-4.2-12.11-7l3,2.35a10.17,10.17,0,0,1-1.29-1.25l2.34,3a6.35,6.35,0,0,1-.7-1.21l1.52,3.58a3.86,3.86,0,0,1-.2-.74l.54,4a6.31,6.31,0,0,1,0-1.23l-.53,4a10.13,10.13,0,0,1,.68-2.42l-1.51,3.58a32.88,32.88,0,0,1,4.05-6.89l-2.34,3a36.87,36.87,0,0,1,6.64-6.57l-3,2.34a44.37,44.37,0,0,1,9.5-5.46l-3.59,1.51a50.23,50.23,0,0,1,12.45-3.37l-4,.54a23.22,23.22,0,0,1,5.33-.24l-4-.53a8.94,8.94,0,0,1,2,.48l-3.58-1.52a7.48,7.48,0,0,1,1.14.63l-3-2.34a5.12,5.12,0,0,1,.93.93l-2.34-3a3.72,3.72,0,0,1,.27.48L644,126.57a3.44,3.44,0,0,1,.2.78l-.54-4a5.57,5.57,0,0,1,0,.82l.53-4a4.52,4.52,0,0,1-.22.8l1.51-3.59a4.67,4.67,0,0,1-.54,1l2.35-3a4.76,4.76,0,0,1-.55.55l3-2.34a3.88,3.88,0,0,1-.63.35l3.58-1.51a1.65,1.65,0,0,1-.45.11l4-.54a1.42,1.42,0,0,1-.46,0l4,.54-.24-.07,3.59,1.52a2.08,2.08,0,0,1-.47-.24,15,15,0,0,0-20.52,5.38c-1.84,3.48-2.76,7.7-1.51,11.56a15.82,15.82,0,0,0,6.89,9Z"/><path class="cls-2" d="M736.29,140.16a16.84,16.84,0,0,0,12.7-1.5,17.29,17.29,0,0,0,6.58-6.51A18.67,18.67,0,0,0,758,123a17.41,17.41,0,0,0-.75-4.79A21.37,21.37,0,0,0,753,111a19.23,19.23,0,0,0-4.64-3.78,38.47,38.47,0,0,0-5.84-2.61,35.39,35.39,0,0,0-6.1-1.84c-11.45-2.36-23.66-1.33-34,4.37a35.28,35.28,0,0,0-7.08,5.24,18.88,18.88,0,0,0-1.69,1.88,30.91,30.91,0,0,0-3.57,5,29.23,29.23,0,0,0-3.29,12.17,22.19,22.19,0,0,0,.34,4.38,27.14,27.14,0,0,0,.89,4.74c3.34,10.44,11.2,18.17,18.84,25.65,7,6.84,14.14,13.56,20.14,21.32l-2.35-3a71,71,0,0,1,9,15.14l-1.51-3.58a48.78,48.78,0,0,1,3.44,12.38l-.53-4a27.64,27.64,0,0,1,.2,6.74l.54-4a11,11,0,0,1-.54,2l1.51-3.58a8.24,8.24,0,0,1-.9,1.55l2.35-3a9.72,9.72,0,0,1-1.2,1.2l3-2.34a9.86,9.86,0,0,1-2.08,1.22l3.58-1.51a12.09,12.09,0,0,1-2.71.74l4-.54a14.15,14.15,0,0,1-3.12,0l4,.53a27.87,27.87,0,0,1-7-2.12l3.58,1.52c-6.63-2.8-13.22-5.68-19.83-8.51a11.11,11.11,0,0,0-5.58-1.78,11.27,11.27,0,0,0-6,.27,15.27,15.27,0,0,0-9,6.89c-1.83,3.48-2.76,7.7-1.51,11.56l1.51,3.58a15.1,15.1,0,0,0,5.39,5.38l13.12,5.64,6.5,2.78c3,1.29,6.18,2.82,9.45,3.5a37.93,37.93,0,0,0,6.7.86,32.22,32.22,0,0,0,6.27-.72,19.06,19.06,0,0,0,4-1.41,17.23,17.23,0,0,0,3.87-2,25.3,25.3,0,0,0,6.58-6.59,7.5,7.5,0,0,0,.64-1,27.14,27.14,0,0,0,2-4.92,27.74,27.74,0,0,0,.84-9.48,67.12,67.12,0,0,0-9.44-29.74C751,169,744.64,161.56,738,154.74c-3.45-3.52-7-6.93-10.54-10.38a111.29,111.29,0,0,1-10-10.68l2.34,3a30,30,0,0,1-3.72-6.18l1.52,3.59a17.8,17.8,0,0,1-1.19-4.28l.54,4a14.18,14.18,0,0,1,0-3.19l-.53,4a13.37,13.37,0,0,1,.79-3l-1.51,3.58a13.94,13.94,0,0,1,1.6-2.78l-2.34,3a17.49,17.49,0,0,1,3.08-3.06l-3,2.35a24.41,24.41,0,0,1,4.83-2.78l-3.58,1.51a33.28,33.28,0,0,1,8.44-2.23l-4,.53a37.43,37.43,0,0,1,9.22,0l-4-.53a36.32,36.32,0,0,1,8.91,2.37l-3.59-1.52a13.09,13.09,0,0,1,2.66,1.43l-3-2.34a6,6,0,0,1,1,1l-2.34-3a3.7,3.7,0,0,1,.35.61l-1.51-3.58a3,3,0,0,1,.2.64l-.54-4a2.22,2.22,0,0,1,0,.63l.54-4a4.31,4.31,0,0,1-.27.93l1.51-3.58a3,3,0,0,1-.33.54l2.34-3a2.55,2.55,0,0,1-.43.44l3-2.35a2.16,2.16,0,0,1-.51.29l3.58-1.51-.27.08,4-.54a1.42,1.42,0,0,1-.58,0l4,.54-.3-.09a15.43,15.43,0,0,0-11.55,1.52,15.26,15.26,0,0,0-6.9,9c-.87,3.84-.68,8.15,1.52,11.56a15.89,15.89,0,0,0,9,6.89Z"/><path class="cls-2" d="M111.4,314.47a27.48,27.48,0,0,0,1-6,10.76,10.76,0,0,0,0-2.27,27.77,27.77,0,0,0-3.3-11.24,16.3,16.3,0,0,0-1.33-2,44.87,44.87,0,0,0-3.76-4.62,42.46,42.46,0,0,0-6.76-5.34,45.81,45.81,0,0,0-13.09-5.58A84.22,84.22,0,0,0,68.75,275a63,63,0,0,0-12,.19A84.34,84.34,0,0,0,41.48,278a81.69,81.69,0,0,0-14.23,5.84,64.88,64.88,0,0,0-11.47,8,51.83,51.83,0,0,0-9.15,10.45,28.85,28.85,0,0,0-2.51,4.43,45.84,45.84,0,0,0-3,8c-2.66,11-.24,22.13,5.44,31.77a89.16,89.16,0,0,0,9.05,12.22c2.43,2.86,5,5.63,7.56,8.35,5.18,5.43,10.58,10.64,16,15.8C50,393.13,61,403.28,70.5,414.78c1.17,1.42,2.33,2.86,3.45,4.32l-2.34-3a106.84,106.84,0,0,1,14,23.11l-1.51-3.58A47.41,47.41,0,0,1,87.31,447l-.54-4a30.46,30.46,0,0,1,0,7.75l.54-4a25.27,25.27,0,0,1-1.58,5.86l1.51-3.58a24,24,0,0,1-2.89,5l2.34-3a25.85,25.85,0,0,1-4.47,4.46l3-2.35A30.4,30.4,0,0,1,78.64,457l3.59-1.51a36.21,36.21,0,0,1-8.86,2.4l4-.53a38.38,38.38,0,0,1-9.93,0l4,.53a36.71,36.71,0,0,1-9.31-2.59l3.58,1.52a52.62,52.62,0,0,1-11.09-6.59l3,2.34A84.08,84.08,0,0,1,43,437.43l2.34,3c-2.53-3.29-4.9-6.7-7.19-10.16a15.89,15.89,0,0,0-9-6.89,15.32,15.32,0,0,0-11.55,1.51c-3.21,2.07-6,5.14-6.9,9s-.71,8.19,1.51,11.56C17.41,453.29,23,461,29.63,467.74a86.6,86.6,0,0,0,11.88,9.91,63.17,63.17,0,0,0,13.91,7.11,48.84,48.84,0,0,0,13.29,2.75,52.57,52.57,0,0,0,13.59-.86,48.92,48.92,0,0,0,12.63-4.28,40.51,40.51,0,0,0,10.6-7.47A38.34,38.34,0,0,0,117,445.84c-.51-11.29-4.85-21.84-10.46-31.51C97.8,399.2,85.77,386.13,73.3,374,61.46,362.47,49,351.5,38.13,339.05q-2.07-2.35-4-4.84l2.35,3A49.46,49.46,0,0,1,30,326.52l1.52,3.59a29.44,29.44,0,0,1-2-7.07l.54,4a24.28,24.28,0,0,1,0-5.84l-.53,4a25.06,25.06,0,0,1,1.7-6.25l-1.52,3.58a30.73,30.73,0,0,1,3.89-6.58l-2.35,3a41,41,0,0,1,7.19-7.11l-3,2.34A52.35,52.35,0,0,1,47,307.58l-3.58,1.51a64.3,64.3,0,0,1,15.66-4.26l-4,.54a65.11,65.11,0,0,1,17.08,0l-4-.54A52.81,52.81,0,0,1,81,308l-3.58-1.51A28.92,28.92,0,0,1,83.59,310l-3-2.34a21.35,21.35,0,0,1,3.61,3.5l-2.34-3a14.9,14.9,0,0,1,1.9,3.16l-1.52-3.58a10.76,10.76,0,0,1,.69,2.48l-.54-4a9.77,9.77,0,0,1,0,2.59l.54-4a11.87,11.87,0,0,1-.42,1.66A15,15,0,0,0,93,325c3.84.88,8.15.69,11.56-1.51a16.31,16.31,0,0,0,6.89-9Z"/><path class="cls-2" d="M158.62,438.17l4.47-1.95-22.57-13a141,141,0,0,0,2.79,35.19,123.72,123.72,0,0,0,4,15.14q1.26,3.72,2.74,7.35a46.79,46.79,0,0,0,4.25,8.78,33.18,33.18,0,0,0,8.88,9.18,24.46,24.46,0,0,0,5.69,2.68,20.39,20.39,0,0,0,6.49,1c8.35.11,15.16-4.86,20.55-10.74a88.7,88.7,0,0,0,10.26-13.57,91.68,91.68,0,0,0,7.41-15.6,71.38,71.38,0,0,0,3.87-14.89,87.14,87.14,0,0,0,1.09-19.15c-.28-3.83-1.44-7.89-4.39-10.6l-3-2.35a11.21,11.21,0,0,0-5.58-1.78,7.71,7.71,0,0,0-4,0,11.21,11.21,0,0,0-5.57,1.78,16.25,16.25,0,0,0-6.9,9,44.19,44.19,0,0,0-1.59,7.73,48.07,48.07,0,0,0-.6,7.67,60.1,60.1,0,0,0,1.14,9.64,35.23,35.23,0,0,0,1.59,5.68,56.61,56.61,0,0,0,3.92,8.66,58,58,0,0,0,5.28,7.26,48,48,0,0,0,10.79,9.36,34.29,34.29,0,0,0,5.36,2.91,55,55,0,0,0,9.19,3.38,15.78,15.78,0,0,0,11.56-1.51,15.34,15.34,0,0,0,6.89-9c.87-3.84.68-8.15-1.51-11.56a15.26,15.26,0,0,0-9-6.89,36,36,0,0,1-5.43-1.79l3.59,1.51a36.22,36.22,0,0,1-7.56-4.42l3,2.34a35.55,35.55,0,0,1-6.21-6.17l2.34,3a34.91,34.91,0,0,1-4.4-7.54L219,448.6a36,36,0,0,1-2.32-8.52l.53,4a36.41,36.41,0,0,1,0-9.67l-.54,4a36.47,36.47,0,0,1,1.33-5.74l-29.46-4a70.43,70.43,0,0,1-.44,14.37l.54-4a73.33,73.33,0,0,1-5,18.09l1.52-3.58A71.67,71.67,0,0,1,176,469.41l2.35-3a49,49,0,0,1-7.94,8.46l3-2.34a12.83,12.83,0,0,1-2.72,1.61l3.58-1.52a8.78,8.78,0,0,1-1.89.5l4-.53a8.65,8.65,0,0,1-2,0l4,.54a8.92,8.92,0,0,1-1.83-.53l3.59,1.51a10.58,10.58,0,0,1-2-1.14l3,2.34a15.22,15.22,0,0,1-2.64-2.68l2.34,3a28.63,28.63,0,0,1-3.34-5.9l1.52,3.58a123.32,123.32,0,0,1-8.21-30.54l.53,4a126.14,126.14,0,0,1-.95-23.47c.28-5.2-3.05-10.39-7.43-12.95a15,15,0,0,0-15.14,0l-4.47,1.95a16.8,16.8,0,0,0-6.9,9,15.34,15.34,0,0,0,1.51,11.56c2.07,3.21,5.14,6,9,6.9l4,.53a14.94,14.94,0,0,0,7.57-2.05Z"/><path class="cls-2" d="M290.53,418.47c-2.86-2.2-7-2.57-10.46-2.11a15.36,15.36,0,0,0-6,1.93,20.5,20.5,0,0,0-3.55,2.76c-3.73,3.53-5.34,8.71-5.61,13.69-.25,4.47-.2,9-.29,13.44q-.27,13.57-.45,27.14-.37,27-.43,54,0,15.18,0,30.38a15.48,15.48,0,0,0,4.4,10.6,15.24,15.24,0,0,0,10.6,4.4c3.88-.18,7.9-1.45,10.61-4.4l2.34-3a14.94,14.94,0,0,0,2.05-7.57c3.23-27.58.54-55.35,1.42-83A230.11,230.11,0,0,1,297,453.56l-.54,4c1.22-9,2.8-18.28,6.32-26.66l-1.51,3.59a38.23,38.23,0,0,1,4.61-8.11l-2.34,3a23.91,23.91,0,0,1,4.11-4.18l-3,2.34a17.58,17.58,0,0,1,3.5-2.06L304.52,427a15.13,15.13,0,0,1,3.63-1l-4,.54a15.71,15.71,0,0,1,3.69,0l-4-.54A18.93,18.93,0,0,1,308,427.2l-3.58-1.52a27.65,27.65,0,0,1,5.93,3.49l-3-2.35a32.15,32.15,0,0,1,5.56,5.56l-2.35-3a34.41,34.41,0,0,1,4.32,7.42l-1.51-3.58a35,35,0,0,1,2.29,8.28l-.54-4a32.36,32.36,0,0,1,0,8.57l.53-4a30,30,0,0,1-2,7.21l1.51-3.59a32.31,32.31,0,0,1-4.1,7l2.35-3a35.41,35.41,0,0,1-6,6l3-2.35a34,34,0,0,1-7.34,4.3l3.59-1.51a31.56,31.56,0,0,1-7.86,2.13l4-.53-1.06.12a16.7,16.7,0,0,0-10.61,4.39,15.23,15.23,0,0,0-4.39,10.61c.17,3.88,1.45,7.9,4.39,10.6,2.77,2.54,6.71,4.78,10.61,4.4a43,43,0,0,0,17.46-4.74A45.73,45.73,0,0,0,331,475a34.92,34.92,0,0,0,3.71-4.07,53.49,53.49,0,0,0,5.06-7.19,41.69,41.69,0,0,0,4.86-13.48,52.22,52.22,0,0,0,.84-9.17,58.71,58.71,0,0,0-1.06-9,33.22,33.22,0,0,0-1.47-5.36,59.23,59.23,0,0,0-3.67-8.32,54.83,54.83,0,0,0-5.1-7.23,32.91,32.91,0,0,0-3.77-4.06A41.47,41.47,0,0,0,314,397.56a26.63,26.63,0,0,0-9.64-1,38.58,38.58,0,0,0-6,.93,38,38,0,0,0-5.63,2.25,32.36,32.36,0,0,0-6.74,4.68,23.83,23.83,0,0,0-3.51,3.66,55,55,0,0,0-5.07,7.18,73.79,73.79,0,0,0-3.64,8A75.69,75.69,0,0,0,270.19,435c-4.58,19.64-5.34,39.94-5.17,60,.17,19.26,1.05,38.56-.56,57.77-.19,2.34-.43,4.66-.7,7h30q-.22-49.07.6-98.11.11-6.72.24-13.45c.09-4.57,0-9.19.31-13.75l-.54,4a6.7,6.7,0,0,1,.44-1.59l-1.51,3.58a6.24,6.24,0,0,1,.47-.84l-2.34,3A4.3,4.3,0,0,1,292,442l-3,2.35a1.37,1.37,0,0,1,.43-.23l-3.58,1.51.22-.05-4,.53h.23l-4-.54.23.06-3.59-1.51a1.18,1.18,0,0,1,.45.28,11.21,11.21,0,0,0,5.58,1.78,11.37,11.37,0,0,0,6-.27,15.35,15.35,0,0,0,9-6.89c1.83-3.48,2.76-7.7,1.51-11.56l-1.51-3.58a15.13,15.13,0,0,0-5.39-5.39Z"/><path class="cls-2" d="M363.22,422.23l-2,53.57-2,53.58L358,559.78a15,15,0,0,0,15,15c3.88-.18,7.91-1.45,10.61-4.4l2.35-3a14.93,14.93,0,0,0,2-7.57l6.51-98c.57-8.63.8-17.36,1.9-25.94l-.53,4a39.47,39.47,0,0,1,2.47-9.87l-1.51,3.58a23.27,23.27,0,0,1,2.87-5l-2.34,3a20.2,20.2,0,0,1,3.29-3.31l-3,2.35a21.84,21.84,0,0,1,4.79-2.78l-3.58,1.51a26.41,26.41,0,0,1,6.11-1.64l-4,.54a31.29,31.29,0,0,1,8.26,0l-4-.54a34.31,34.31,0,0,1,8.33,2.29L410,428.46a39.44,39.44,0,0,1,8.45,4.92l-3-2.35a41.86,41.86,0,0,1,7.43,7.44l-2.34-3a41.63,41.63,0,0,1,5.28,9.08l-1.51-3.58a38.53,38.53,0,0,1,2.57,9.43l-.53-4a31.73,31.73,0,0,1,.06,8l.54-4a24.17,24.17,0,0,1-1.51,5.74l1.51-3.58a18.86,18.86,0,0,1-2.38,4.07l2.35-3a18.54,18.54,0,0,1-3,2.95l3-2.34a20.53,20.53,0,0,1-4.41,2.52l3.58-1.51A30.22,30.22,0,0,1,419,457l4-.54a74.21,74.21,0,0,1-15,.1l-20-1.43c-3.67-.27-8.08,1.86-10.61,4.39a15.23,15.23,0,0,0-4.39,10.61c.17,3.88,1.45,7.9,4.39,10.6l3,2.35a14.91,14.91,0,0,0,7.57,2l16.56,1.18a130.23,130.23,0,0,0,13.39.56,78.37,78.37,0,0,0,9.78-1.05,28.79,28.79,0,0,0,5.77-1.49,35.21,35.21,0,0,0,8.36-4.08,43.09,43.09,0,0,0,4.86-3.91,38.42,38.42,0,0,0,4.26-5.26,17.2,17.2,0,0,0,1.58-2.72,44.28,44.28,0,0,0,2.62-6.53,41.74,41.74,0,0,0,1.48-10.31,55.53,55.53,0,0,0-.95-10.05,38.53,38.53,0,0,0-1.48-6,53,53,0,0,0-7-14.19,67.21,67.21,0,0,0-6.07-7.5,54.49,54.49,0,0,0-6-5.16c-8.77-6.78-19.69-11-30.91-10.7-13,.36-25.54,6.4-32.05,18-5.88,10.46-6.07,22.68-6.84,34.34l-2.23,33.6-4.47,67.43-.57,8.46h30l2-53.58,2-53.57,1.14-30.4a15,15,0,0,0-15-15c-3.88.17-7.9,1.45-10.6,4.39a16.14,16.14,0,0,0-4.4,10.61Z"/><path class="cls-2" d="M538.23,425.42a22.42,22.42,0,0,0,2.31-5.43c.09-.34.14-.68.2-1a30.93,30.93,0,0,0,.58-4.89,25.41,25.41,0,0,0-3-11.42,20.3,20.3,0,0,0-2.34-3.42,23,23,0,0,0-2.71-3.19,28.31,28.31,0,0,0-10.19-6,21.37,21.37,0,0,0-4.36-.82,22.39,22.39,0,0,0-4.83-.32,31.55,31.55,0,0,0-9.49,2,40.54,40.54,0,0,0-8.67,4.44,66.25,66.25,0,0,0-7.4,6.06,65.2,65.2,0,0,0-16,26,63,63,0,0,0-2.87,15.34,41.39,41.39,0,0,0,0,6.2,58.54,58.54,0,0,0,1.48,9.67,39.9,39.9,0,0,0,19.94,25.33,43.51,43.51,0,0,0,13.64,4.58,55.64,55.64,0,0,0,9.1.79,59.16,59.16,0,0,0,9.18-1.11,54.43,54.43,0,0,0,14.55-5.37,70.71,70.71,0,0,0,12.78-8.92,72.09,72.09,0,0,0,10.65-11.56,39.66,39.66,0,0,0,7-14.16c1.58-6.22,1.58-13.2-.85-19.22a41.35,41.35,0,0,0-4.43-8.72,90.51,90.51,0,0,0-6-7.64,67.68,67.68,0,0,0-9-8.55,88.78,88.78,0,0,0-13.1-8.93c-1.83-1-3.7-1.87-5.61-2.69a16.82,16.82,0,0,0-11.56-1.51,15.35,15.35,0,0,0-9,6.89c-1.84,3.48-2.76,7.7-1.51,11.56l1.51,3.58a15.18,15.18,0,0,0,5.38,5.39,69.92,69.92,0,0,1,15,8.75l-3-2.34a69.12,69.12,0,0,1,12.1,11.95l-2.35-3a31.86,31.86,0,0,1,4.19,6.85L538,436.91a20.41,20.41,0,0,1,1.26,4.43l-.54-4a18.24,18.24,0,0,1,0,4.84l.54-4a23.37,23.37,0,0,1-1.43,5.06l1.51-3.59a34.17,34.17,0,0,1-4.5,7.5l2.35-3A60,60,0,0,1,527,454.19l3-2.34a51,51,0,0,1-11.12,6.57l3.58-1.52a39.08,39.08,0,0,1-9.6,2.64l4-.53a33.65,33.65,0,0,1-8.39,0l4,.54a33.26,33.26,0,0,1-8.08-2.15l3.58,1.51a28.89,28.89,0,0,1-6.21-3.6l3,2.35a26.17,26.17,0,0,1-4.31-4.3l2.35,3a25.5,25.5,0,0,1-3.19-5.52l1.51,3.59a31.93,31.93,0,0,1-2-7.49l.54,4a40.7,40.7,0,0,1,0-10.69l-.54,4A49.2,49.2,0,0,1,502.51,432L501,435.56a50.5,50.5,0,0,1,6.4-11l-2.34,3a46.55,46.55,0,0,1,7.86-8l-3,2.35a29.35,29.35,0,0,1,6.09-3.69l-3.58,1.51a19.69,19.69,0,0,1,4.71-1.35l-4,.54a15.83,15.83,0,0,1,3.64,0l-4-.54a12.21,12.21,0,0,1,2.66.67l-3.58-1.51a11.94,11.94,0,0,1,2.52,1.45l-3-2.35a12.73,12.73,0,0,1,2.28,2.3l-2.34-3a12.44,12.44,0,0,1,1.42,2.48l-1.51-3.59a10.85,10.85,0,0,1,.63,2.38l-.54-4a9,9,0,0,1,0,1.8l.54-4a8.51,8.51,0,0,1-.55,2l1.51-3.59c-.14.29-.28.56-.44.84a15.54,15.54,0,0,0-1.52,11.56,15.27,15.27,0,0,0,6.9,9c3.48,1.84,7.7,2.76,11.56,1.51a15.67,15.67,0,0,0,9-6.89Z"/><path class="cls-2" d="M613.28,409.92a17.43,17.43,0,0,0,0-8.31,15.43,15.43,0,0,0-4.09-6.88,31.18,31.18,0,0,0-3.15-2.4,11.45,11.45,0,0,0-5.7-1.83,16.19,16.19,0,0,0-6.49.33,14.78,14.78,0,0,0-8,5.58,15.44,15.44,0,0,0-3,5.66,48.32,48.32,0,0,0-.89,6.83,128.75,128.75,0,0,0-.55,14c.1,9.29.85,18.58,1.45,27.85l1,16,29.46-4q-.35-1.59-.57-3.21l.53,4a53.22,53.22,0,0,1,.11-13.87l-.54,4a98.63,98.63,0,0,1,3.48-15.17c1.43-4.7,2.92-9.44,4.8-14l-1.52,3.58a30.62,30.62,0,0,1,3.59-6.45l-2.35,3a20.24,20.24,0,0,1,3.42-3.44l-3,2.35a24.37,24.37,0,0,1,5.2-3l-3.58,1.51a48.37,48.37,0,0,1,11.92-2.94l-4,.54a70.31,70.31,0,0,1,18.16.05l-4-.53a41.69,41.69,0,0,1,9.2,2l-3.58-1.51a9.81,9.81,0,0,1,2.12,1.24l-3-2.34a8.17,8.17,0,0,1,.93.93l-2.35-3a6,6,0,0,1,.46.77l-1.51-3.58a3,3,0,0,1,.16.53l-.54-4a1.62,1.62,0,0,1,0,.54l.54-4a2.12,2.12,0,0,1-.13.54l1.51-3.59a2.35,2.35,0,0,1-.29.54,15,15,0,0,0,5.38,20.52c3.49,1.84,7.7,2.76,11.56,1.51a16.14,16.14,0,0,0,9-6.89l.23-.4a30.48,30.48,0,0,0,1.57-3.72,19.92,19.92,0,0,0,.66-4.66,20.83,20.83,0,0,0-.6-4.52,14.51,14.51,0,0,0-1.84-4.37,19.41,19.41,0,0,0-3.53-4.35,22.76,22.76,0,0,0-4.84-3.45c-5.79-2.75-11.94-3.56-18.25-4.32a68.85,68.85,0,0,0-12.35-.35A85,85,0,0,0,620,391.59c-10.44,2.66-19.82,8.84-24.88,18.58a95.9,95.9,0,0,0-5.43,13.62c-1.34,4-2.61,8-3.66,12a100.16,100.16,0,0,0-2.9,17.37,62,62,0,0,0,1.37,17.6,15.05,15.05,0,0,0,6.9,9l3.58,1.51a11.27,11.27,0,0,0,6,.27,7.53,7.53,0,0,0,3.79-1,11.22,11.22,0,0,0,4.82-3.11c2.6-2.82,4.65-6.64,4.4-10.6-.65-10-1.34-20-1.94-30s-.94-20.08.24-30.06l-.54,4a4.3,4.3,0,0,1,.23-.94l-1.51,3.59.16-.26-2.34,3,.23-.2-6.62,3.86.24-.09-4,.54.26,0-7.57-2.05.24.11-3-2.35.18.17-3.86-6.62.09.2v-8l0,.23c-.8,4-.6,8,1.51,11.56a15.32,15.32,0,0,0,9,6.89c3.84.87,8.15.68,11.56-1.51,3.15-2,6.14-5.16,6.89-9Z"/><path class="cls-2" d="M741.87,328.86l.22-.2-3,2.35a1.93,1.93,0,0,1,.49-.26L736,332.26a2.08,2.08,0,0,1,.54-.11l-4,.53a2.72,2.72,0,0,1,.57,0l-4-.53a4.89,4.89,0,0,1,.85.25l-3.59-1.51a5.58,5.58,0,0,1,.77.49l-3-2.35a2.89,2.89,0,0,1,.42.44l-2.34-3a4.72,4.72,0,0,1,.49.88l-1.51-3.58a7.23,7.23,0,0,1,.29,1.2l-.54-4a10.62,10.62,0,0,1-.06,2.11l.54-4a159.09,159.09,0,0,1-4.62,19.73c-1.81,6.43-3.83,12.81-5.89,19.16-4.16,12.84-8.49,25.65-11.48,38.82-3.13,13.84-5.07,28.34-3.63,42.52.85,8.29,2,16.87,6.51,24.12,5.1,8.28,13.45,13.48,22.93,15.27,18.41,3.46,37.39,2.81,55.7-.9,3.55-.72,7.19-3.86,9-6.9a15.3,15.3,0,0,0,1.51-11.56c-1.17-3.63-3.42-7.13-6.89-9l-3.59-1.51a15,15,0,0,0-8,0c-3,.61-6,1.11-9,1.52l4-.53a133.39,133.39,0,0,1-34.69,0l4,.54a41.31,41.31,0,0,1-10.07-2.34l3.58,1.51a18.53,18.53,0,0,1-4.16-2.4l3,2.34a17,17,0,0,1-2.66-2.7l2.35,3a21.67,21.67,0,0,1-2.61-4.59l1.51,3.59a44,44,0,0,1-2.58-10.69l.53,4a105.57,105.57,0,0,1,.24-27.51l-.54,4c3.89-28.71,16.45-55.27,22.87-83.39,1.38-6,3.15-12.48,1.64-18.64a18.14,18.14,0,0,0-12.38-13.07,16.91,16.91,0,0,0-9.38-.28c-3.19.68-5.48,2.33-7.87,4.42-2.78,2.43-4.4,7-4.4,10.61a15.29,15.29,0,0,0,4.4,10.61c2.86,2.62,6.61,4.57,10.6,4.39l4-.54a14.94,14.94,0,0,0,6.62-3.85Z"/><path class="cls-2" d="M696.53,380q28.58-2.49,57.26-3.41a15.69,15.69,0,0,0,10.61-4.4,15.23,15.23,0,0,0,4.39-10.6c-.17-3.88-1.45-7.91-4.39-10.61a15.23,15.23,0,0,0-10.61-4.39q-28.66.93-57.26,3.41a16.7,16.7,0,0,0-10.61,4.39A15.25,15.25,0,0,0,681.53,365c.17,3.88,1.45,7.9,4.39,10.61,2.79,2.55,6.69,4.73,10.61,4.39Z"/></g><g id="Original"><path class="cls-3" d="M37,50.54a276.23,276.23,0,0,0-4,32.17c-.59,9.66-.59,19.35-.39,29,.41,19.25,1.38,38.48.72,57.74-.36,10.69-1.16,21.36-2.57,32l.54-4q-1.22,8.9-3,17.71l29.46,4-1.88-65L54,89.35l-.52-18.19a105.25,105.25,0,0,1,.39-16.75l-.53,4a37.93,37.93,0,0,1,2.35-9L54.21,53a35.53,35.53,0,0,1,4.63-7.86l-2.35,3a46.61,46.61,0,0,1,8-7.91l-3,2.35a51.45,51.45,0,0,1,11.1-6.49l-3.58,1.52a54.88,54.88,0,0,1,13.85-3.77l-4,.54a54.71,54.71,0,0,1,14.35,0l-4-.54a51.42,51.42,0,0,1,12.75,3.49l-3.59-1.51a48.88,48.88,0,0,1,10.36,6.06l-3-2.35a52.59,52.59,0,0,1,9.19,9.19l-2.34-3a55.69,55.69,0,0,1,7.13,12.18l-1.51-3.59a54,54,0,0,1,3.71,13.59l-.53-4a50,50,0,0,1,0,13l.54-4a46.43,46.43,0,0,1-3,11l1.51-3.58a37.21,37.21,0,0,1-4.6,8l2.35-3a38.05,38.05,0,0,1-6.6,6.58l3-2.35a49.41,49.41,0,0,1-10.86,6.23l3.58-1.51c-7.58,3.16-15.64,4.66-23.74,5.75l4-.53c-7.55,1-15.14,1.75-22.66,3a17.54,17.54,0,0,0-14.1,12.58,17.18,17.18,0,0,0-.63,4.67,15,15,0,0,0,3.33,9.36A11.14,11.14,0,0,0,57.78,133a16,16,0,0,0,5.68,1.8,16.52,16.52,0,0,0,6.1-.28,14.83,14.83,0,0,0,3.91-1.67,15,15,0,0,0,5.39-20.53c-2.07-3.2-5.14-6-9-6.89A15.8,15.8,0,0,0,58.33,107l-.17.1,3.58-1.51-.15.06,4-.54-.13,0,4,.53-.11,0,3.59,1.51-.08-.05,5.38,5.38-.06-.09,1.51,3.58,0-.11.53,4a1,1,0,0,1,0-.3l-.54,4a3.35,3.35,0,0,1,.21-.75l-1.51,3.59a4.2,4.2,0,0,1,.48-.78l-2.35,3a2.57,2.57,0,0,1,.33-.33l-3,2.35a1.92,1.92,0,0,1,.38-.25l-3.58,1.51a14.3,14.3,0,0,1,3.28-.61c1.27-.2,2.54-.38,3.82-.55l-4,.54c8.59-1.15,17.23-1.93,25.75-3.49a87.28,87.28,0,0,0,21.63-7,52.78,52.78,0,0,0,29-35.7,60.69,60.69,0,0,0,1.35-20.8,75.89,75.89,0,0,0-2.13-11.79A79.64,79.64,0,0,0,145,41.42a66.82,66.82,0,0,0-11.21-16.67A62.16,62.16,0,0,0,118.1,12.21C92.81-2,58.57,2.52,38.29,23.47A50.64,50.64,0,0,0,25.27,46c-2,7.89-2,16.05-1.79,24.12L24.8,116l2.65,91.68.33,11.46c.11,3.75,1.56,8,4.4,10.61l3,2.35a11.21,11.21,0,0,0,5.58,1.78,7.71,7.71,0,0,0,4,0,11.21,11.21,0,0,0,5.57-1.78c3.17-2,6.1-5.15,6.9-9,4.31-20.66,6.08-41.82,6.35-62.9.25-20.23-1.13-40.44-1.06-60.67a263.39,263.39,0,0,1,2.18-33.91l-.54,4q.75-5.58,1.75-11.12a11.31,11.31,0,0,0,.27-6A11.11,11.11,0,0,0,64.42,47a15.33,15.33,0,0,0-9-6.9c-3.84-.87-8.15-.68-11.56,1.52-3.12,2-6.21,5.17-6.89,9Z"/><path class="cls-3" d="M181.53,142.61a21.06,21.06,0,0,0,.61-4.21c.31-6.82-.16-2.6-.61-4.19a15,15,0,0,0-8.87-9.89,9.22,9.22,0,0,0-4-1.13,9.25,9.25,0,0,0-4.25,0,14.73,14.73,0,0,0-10.23,6,16.53,16.53,0,0,0-3.33,11.36l.3,4.22,1.22,17.1,2.44,34.2,1.38,19.34,29.47-4c-.42-2.26-.79-4.54-1.1-6.82l.54,4a93.84,93.84,0,0,1-.26-24.32l-.54,4a65.34,65.34,0,0,1,4.4-16.6l-1.51,3.58a56.36,56.36,0,0,1,7.17-12.28L192,166a49.92,49.92,0,0,1,8.64-8.67l-3,2.35a43,43,0,0,1,9.23-5.41l-3.58,1.51a37.44,37.44,0,0,1,9.19-2.49l-4,.54a38.27,38.27,0,0,1,9.8,0l-4-.54a36.91,36.91,0,0,1,9.39,2.55l-3.59-1.52a33.26,33.26,0,0,1,6.83,4l-3-2.34A29.36,29.36,0,0,1,229,161l-2.34-3,.42.56a16.71,16.71,0,0,0,9,6.89,15.35,15.35,0,0,0,11.56-1.51c3.2-2.07,6-5.14,6.89-9,.84-3.67.86-8.39-1.51-11.55a48.62,48.62,0,0,0-6.05-7.14,52,52,0,0,0-7.43-5.63,55.48,55.48,0,0,0-8.51-4,37.14,37.14,0,0,0-5.64-1.74,51.13,51.13,0,0,0-15.5-1.23,62.5,62.5,0,0,0-9.51,1.49,57.73,57.73,0,0,0-9,3.35A55.85,55.85,0,0,0,178,137.25a64.38,64.38,0,0,0-10.67,12,63.34,63.34,0,0,0-6.8,12.57,71,71,0,0,0-4.71,15.46,101.74,101.74,0,0,0-1.61,20.9,143.45,143.45,0,0,0,2.52,21.15,16.84,16.84,0,0,0,6.89,9l3.59,1.51a11.27,11.27,0,0,0,6,.27,7.5,7.5,0,0,0,3.78-1,11.26,11.26,0,0,0,4.83-3.11c2.58-2.81,4.68-6.65,4.39-10.6q-2.13-30-4.28-60l-.58-8.18a80.93,80.93,0,0,1-.56-8.36l-.53,4,.06-.32-1.52,3.58.13-.29-2.35,3,.21-.24-3,2.35.24-.11-7.57,2h.26l-4-.53.24.1-6.62-3.86.19.17-3.86-6.62.08.21v-8l-.07.22a15,15,0,0,0,10.47,18.45c3.84.87,8.15.68,11.56-1.51a16.31,16.31,0,0,0,6.89-9Z"/><path class="cls-3" d="M326.55,162.83A33.75,33.75,0,0,0,340.22,145a19,19,0,0,0,.7-2.94,36.27,36.27,0,0,0,.69-6.82c-.2-5.58-1.88-11.26-6.13-15.14-6.44-5.87-15.78-7-23.8-3.94a56.14,56.14,0,0,0-9.21,4.27,66.15,66.15,0,0,0-8.14,6,68.4,68.4,0,0,0-11.24,12.71,75.39,75.39,0,0,0-8.2,15.44A61.49,61.49,0,0,0,271,167.8a60.47,60.47,0,0,0-1,16.87,59,59,0,0,0,1.72,10.05,49.2,49.2,0,0,0,3.82,9.26c3.17,5.9,7.85,10.4,13.22,14.27a30.06,30.06,0,0,0,5.46,3.11,52.59,52.59,0,0,0,9.22,3.4,47.78,47.78,0,0,0,16.59,1.11,63.33,63.33,0,0,0,10.69-2,76.8,76.8,0,0,0,9.63-3.81,66.39,66.39,0,0,0,14.27-9.29,60.54,60.54,0,0,0,10.8-12.07,39.47,39.47,0,0,0,3.22-5.42,56.22,56.22,0,0,0,3.6-9c3.2-11.17,1.59-23.84-5-33.54C361.3,142,353,135.51,343.88,130.41c-1.73-1-3.49-1.88-5.26-2.77a15.94,15.94,0,0,0-11.56-1.51,15.29,15.29,0,0,0-9,6.89c-1.84,3.48-2.77,7.7-1.52,11.56,1.16,3.58,3.42,7.22,6.9,9a90.53,90.53,0,0,1,14.38,8.68l-3-2.35a43.42,43.42,0,0,1,7.56,7.34l-2.35-3a30.1,30.1,0,0,1,3.82,6.41L342.33,167a26,26,0,0,1,1.77,6.36l-.54-4a26.74,26.74,0,0,1,0,7l.54-4a32.34,32.34,0,0,1-2.08,7.48l1.51-3.58a40.7,40.7,0,0,1-5.22,8.86l2.34-3a48,48,0,0,1-8.21,8.21l3-2.35a53.68,53.68,0,0,1-11.52,6.75l3.59-1.51A45.54,45.54,0,0,1,316,196.4l4-.53a37.35,37.35,0,0,1-9.39,0l4,.53a34.33,34.33,0,0,1-8.5-2.32l3.58,1.51a31.08,31.08,0,0,1-6.57-3.83l3,2.35a27.6,27.6,0,0,1-4.82-4.84l2.34,3a28.71,28.71,0,0,1-3.36-5.81l1.51,3.58a34,34,0,0,1-2.25-8.42l.53,4a45.74,45.74,0,0,1,.06-11.69l-.54,4a60.52,60.52,0,0,1,4.27-15.38l-1.51,3.58a62.92,62.92,0,0,1,8-13.57l-2.35,3a52.46,52.46,0,0,1,8.88-9l-3,2.35a38.45,38.45,0,0,1,8.33-4.94l-3.58,1.51a21.24,21.24,0,0,1,4.87-1.48l-4,.54a11.19,11.19,0,0,1,2.65,0l-4-.53a7.77,7.77,0,0,1,1.51.38L316,142.92a6,6,0,0,1,1.06.57l-3-2.34a5.39,5.39,0,0,1,.87.85l-2.34-3a6,6,0,0,1,.55.95l-1.51-3.58a8,8,0,0,1,.48,1.92l-.54-4a17.42,17.42,0,0,1-.08,3.82l.53-4a18.19,18.19,0,0,1-1.24,4.35l1.51-3.58a18.73,18.73,0,0,1-2.1,3.59l2.35-3a18,18,0,0,1-3.2,3.2l3-2.34c-.3.22-.61.44-.93.65a15.87,15.87,0,0,0-6.89,9A15.35,15.35,0,0,0,306,157.45c2.07,3.2,5.14,6,9,6.89s8.19.72,11.55-1.51Z"/><path class="cls-3" d="M465.92,149.31a18.74,18.74,0,0,0,5.35-8.85,21.74,21.74,0,0,0,0-10.72c-1.19-5.64-5.31-10.7-10.14-13.68-5.8-3.58-13-3.74-19.45-2.28a52,52,0,0,0-12.35,5,81.58,81.58,0,0,0-30.6,28.75,63.31,63.31,0,0,0-4.16,7.74,75.23,75.23,0,0,0-4.67,12.39,45.93,45.93,0,0,0-1.62,14.18,47.17,47.17,0,0,0,1.22,8.38,45.83,45.83,0,0,0,2.88,7.46,41,41,0,0,0,6.85,9.87,53,53,0,0,0,9.58,8.11,45.39,45.39,0,0,0,7.54,4.24,69.13,69.13,0,0,0,11.23,4.16A66.45,66.45,0,0,0,440.71,226a58.74,58.74,0,0,0,13-1.09,46.07,46.07,0,0,0,22.81-11.66,15,15,0,0,0,0-21.21c-2.86-2.63-6.62-4.57-10.61-4.4a16.23,16.23,0,0,0-10.61,4.4c-.62.57-1.26,1.12-1.92,1.64l3-2.35a31.18,31.18,0,0,1-6.74,3.95l3.59-1.51a36.13,36.13,0,0,1-8.94,2.44l4-.54a43.7,43.7,0,0,1-11.65,0l4,.54a48.48,48.48,0,0,1-12.05-3.34l3.58,1.51a46.08,46.08,0,0,1-9.75-5.66l3,2.34a36,36,0,0,1-6.2-6.07l2.34,3a27.5,27.5,0,0,1-3.59-6.07l1.51,3.58a24.47,24.47,0,0,1-1.58-5.82l.54,4a29.81,29.81,0,0,1,0-7.55l-.54,4a47.35,47.35,0,0,1,3.41-11.82l-1.51,3.58a66.43,66.43,0,0,1,8.49-14.46l-2.34,3a68,68,0,0,1,11.87-11.86l-3,2.35a64.52,64.52,0,0,1,14.22-8.36l-3.58,1.51a24.57,24.57,0,0,1,5.45-1.61l-4,.53a14.24,14.24,0,0,1,3.39-.06l-4-.53a11,11,0,0,1,2.45.66l-3.58-1.51a7.48,7.48,0,0,1,1.25.74l-3-2.35a8.14,8.14,0,0,1,1.26,1.23l-2.35-3a8.6,8.6,0,0,1,1.07,1.77l-1.52-3.58a8.1,8.1,0,0,1,.54,1.94l-.54-4a7.08,7.08,0,0,1,0,1.38l.53-4a5.4,5.4,0,0,1-.33,1.3l1.52-3.59a5,5,0,0,1-.54.93l2.35-3a4.92,4.92,0,0,1-.79.79c-2.79,2.33-4.39,7.12-4.39,10.61a15.28,15.28,0,0,0,4.39,10.61c2.86,2.62,6.61,4.57,10.61,4.39l4-.53a15.11,15.11,0,0,0,6.62-3.86Z"/><path class="cls-3" d="M524.66,185.46a107.68,107.68,0,0,0,15.42-1.53,58.2,58.2,0,0,0,14.62-4.76,30.85,30.85,0,0,0,4.94-2.81,42.18,42.18,0,0,0,7-5.7,40.59,40.59,0,0,0,8.59-14.52,33,33,0,0,0,1.4-6.7,27.74,27.74,0,0,0,.34-6.56,33.43,33.43,0,0,0-1.56-8.31,43.51,43.51,0,0,0-2.31-5.31,34.74,34.74,0,0,0-3.56-4.91,28.45,28.45,0,0,0-6.45-5.53,15.49,15.49,0,0,0-2.25-1.25,43.27,43.27,0,0,0-6-2.4,36.72,36.72,0,0,0-9-1.28,41.18,41.18,0,0,0-9.26,1,44,44,0,0,0-8.86,3.25,37.6,37.6,0,0,0-5.29,3,90.56,90.56,0,0,0-12.26,10c-7.62,7.32-14.12,15.7-17.55,25.8a28.55,28.55,0,0,0-1.25,5.3,47.41,47.41,0,0,0-.75,9,45.19,45.19,0,0,0,2.66,13.9c3.42,8.95,8.69,17.31,16.25,23.35a55.63,55.63,0,0,0,12.45,8,70,70,0,0,0,15.09,5,91.32,91.32,0,0,0,28.76.87c3.31-.43,6.63-.88,9.92-1.48,3.51-.65,7.22-3.91,9-6.89a15.32,15.32,0,0,0,1.51-11.56c-1.17-3.63-3.42-7.13-6.89-9l-3.58-1.51a15.21,15.21,0,0,0-8,0c-1.83.34-3.66.63-5.5.89l4-.54a84,84,0,0,1-21.84.26l4,.54a57.06,57.06,0,0,1-14.28-3.79l3.59,1.51a43.92,43.92,0,0,1-9.43-5.41l3,2.34a42.32,42.32,0,0,1-7.53-7.54l2.35,3a39.85,39.85,0,0,1-5-8.48l1.51,3.58a34.2,34.2,0,0,1-2.37-8.6l.53,4a30,30,0,0,1,0-7.45l-.54,4a30,30,0,0,1,2.06-7.42l-1.51,3.59a41.6,41.6,0,0,1,5.28-8.8l-2.34,3A81.79,81.79,0,0,1,538,146.51l-3,2.35a40.41,40.41,0,0,1,8.24-5l-3.59,1.51a26.84,26.84,0,0,1,6.39-1.83l-4,.54a23.41,23.41,0,0,1,6,0l-4-.54a20.19,20.19,0,0,1,4.65,1.23l-3.58-1.51a17.44,17.44,0,0,1,3.51,2l-3-2.35a15.63,15.63,0,0,1,2.67,2.66l-2.35-3a15.71,15.71,0,0,1,1.9,3.3l-1.52-3.58a17.75,17.75,0,0,1,1.07,4l-.54-4a21.12,21.12,0,0,1,0,5.21l.53-4a24.36,24.36,0,0,1-1.68,6.12l1.51-3.58a25,25,0,0,1-2.88,4.95l2.34-3a23.74,23.74,0,0,1-4.25,4.19l3-2.34a32.68,32.68,0,0,1-6.79,3.9l3.59-1.51a48.73,48.73,0,0,1-12.34,3.18l4-.54a86.6,86.6,0,0,1-9.24.67,15.61,15.61,0,0,0-10.6,4.4,15.24,15.24,0,0,0-4.4,10.6c.18,3.88,1.45,7.91,4.4,10.61a15.27,15.27,0,0,0,10.6,4.39Z"/><path class="cls-3" d="M652.52,143.58a17,17,0,0,0,17.38-.14c5.45-3.26,8.41-9.19,8.75-15.39a15.79,15.79,0,0,0-.71-5.46,17.8,17.8,0,0,0-4.93-7.93,21,21,0,0,0-8-4.64,24.91,24.91,0,0,0-6.16-1,24.45,24.45,0,0,0-5,.27,84.72,84.72,0,0,0-8.7,1.4A65.84,65.84,0,0,0,632,115.54a53.26,53.26,0,0,0-20.53,17.75,31.38,31.38,0,0,0-2.64,4.52c-1.85,3.86-3.55,7.85-3.29,12.24a21.26,21.26,0,0,0,.76,4.94,18.76,18.76,0,0,0,1.91,4.36,19.38,19.38,0,0,0,3.94,4.72,57.38,57.38,0,0,0,7.75,5.3c8.31,4.78,17.18,8.65,24.83,14.5l-3-2.34a46.53,46.53,0,0,1,8.38,8.21l-2.35-3a32.45,32.45,0,0,1,4.05,6.89L650.22,190a28.63,28.63,0,0,1,1.86,6.87l-.54-4a25.3,25.3,0,0,1,0,6.27l.54-4a22.1,22.1,0,0,1-1.4,5.23l1.52-3.59a19.11,19.11,0,0,1-2.31,4l2.35-3a16.2,16.2,0,0,1-2.65,2.65l3-2.34a13.79,13.79,0,0,1-2.54,1.5l3.59-1.51a11.22,11.22,0,0,1-2.47.7l4-.54a11,11,0,0,1-2.87,0l4,.54a17.08,17.08,0,0,1-3.69-1.12l3.58,1.51c-3-1.32-5.78-3-8.63-4.63l-9.06-5.06A15.66,15.66,0,0,0,627,187.93a15.35,15.35,0,0,0-9,6.89c-1.84,3.49-2.76,7.7-1.51,11.56a15.46,15.46,0,0,0,6.89,9L635.26,222c1.8,1,3.57,2,5.43,2.89a32.9,32.9,0,0,0,12.51,3.44,25.72,25.72,0,0,0,6.19-.63,18.76,18.76,0,0,0,4.07-1.43,27.46,27.46,0,0,0,8.51-5.58,28.7,28.7,0,0,0,5.31-6.94,34.68,34.68,0,0,0,3.28-8.09,41.21,41.21,0,0,0,.27-17.89,28,28,0,0,0-1.46-5.15,50.59,50.59,0,0,0-3.84-8.2c-5.13-8.31-12.55-14.72-20.72-19.93-4-2.55-8.22-4.75-12.42-7s-8.42-4.2-12.11-7l3,2.35a10.17,10.17,0,0,1-1.29-1.25l2.34,3a6.35,6.35,0,0,1-.7-1.21l1.52,3.58a3.86,3.86,0,0,1-.2-.74l.54,4a6.31,6.31,0,0,1,0-1.23l-.53,4a10.13,10.13,0,0,1,.68-2.42l-1.51,3.58a32.88,32.88,0,0,1,4.05-6.89l-2.34,3a36.87,36.87,0,0,1,6.64-6.57l-3,2.34a44.37,44.37,0,0,1,9.5-5.46l-3.59,1.51a50.23,50.23,0,0,1,12.45-3.37l-4,.54a23.22,23.22,0,0,1,5.33-.24l-4-.53a8.94,8.94,0,0,1,2,.48l-3.58-1.52a7.48,7.48,0,0,1,1.14.63l-3-2.34a5.12,5.12,0,0,1,.93.93l-2.34-3a3.72,3.72,0,0,1,.27.48L649,130.57a3.44,3.44,0,0,1,.2.78l-.54-4a5.57,5.57,0,0,1,0,.82l.53-4a4.52,4.52,0,0,1-.22.8l1.51-3.59a4.67,4.67,0,0,1-.54,1l2.35-3a4.76,4.76,0,0,1-.55.55l3-2.34a3.88,3.88,0,0,1-.63.35l3.58-1.51a1.65,1.65,0,0,1-.45.11l4-.54a1.42,1.42,0,0,1-.46,0l4,.54-.24-.07,3.59,1.52a2.08,2.08,0,0,1-.47-.24,15,15,0,0,0-20.52,5.38c-1.84,3.48-2.76,7.7-1.51,11.56a15.82,15.82,0,0,0,6.89,9Z"/><path class="cls-3" d="M741.29,144.16a16.84,16.84,0,0,0,12.7-1.5,17.29,17.29,0,0,0,6.58-6.51A18.67,18.67,0,0,0,763,127a17.41,17.41,0,0,0-.75-4.79A21.37,21.37,0,0,0,758,115a19.23,19.23,0,0,0-4.64-3.78,38.47,38.47,0,0,0-5.84-2.61,35.39,35.39,0,0,0-6.1-1.84c-11.45-2.36-23.66-1.33-34,4.37a35.28,35.28,0,0,0-7.08,5.24,18.88,18.88,0,0,0-1.69,1.88,30.91,30.91,0,0,0-3.57,5,29.23,29.23,0,0,0-3.29,12.17,22.19,22.19,0,0,0,.34,4.38,27.14,27.14,0,0,0,.89,4.74c3.34,10.44,11.2,18.17,18.84,25.65,7,6.84,14.14,13.56,20.14,21.32l-2.35-3a71,71,0,0,1,9,15.14l-1.51-3.58a48.78,48.78,0,0,1,3.44,12.38l-.53-4a27.64,27.64,0,0,1,.2,6.74l.54-4a11,11,0,0,1-.54,2l1.51-3.58a8.24,8.24,0,0,1-.9,1.55l2.35-3a9.72,9.72,0,0,1-1.2,1.2l3-2.34a9.86,9.86,0,0,1-2.08,1.22l3.58-1.51a12.09,12.09,0,0,1-2.71.74l4-.54a14.15,14.15,0,0,1-3.12,0l4,.53a27.87,27.87,0,0,1-7-2.12l3.58,1.52c-6.63-2.8-13.22-5.68-19.83-8.51a11.11,11.11,0,0,0-5.58-1.78,11.27,11.27,0,0,0-6,.27,15.27,15.27,0,0,0-9,6.89c-1.83,3.48-2.76,7.7-1.51,11.56l1.51,3.58a15.1,15.1,0,0,0,5.39,5.38l13.12,5.64,6.5,2.78c3,1.29,6.18,2.82,9.45,3.5a37.93,37.93,0,0,0,6.7.86,32.22,32.22,0,0,0,6.27-.72,19.06,19.06,0,0,0,4-1.41,17.23,17.23,0,0,0,3.87-2,25.3,25.3,0,0,0,6.58-6.59,7.5,7.5,0,0,0,.64-1,27.14,27.14,0,0,0,2-4.92,27.74,27.74,0,0,0,.84-9.48,67.12,67.12,0,0,0-9.44-29.74C756,173,749.64,165.56,743,158.74c-3.45-3.52-7-6.93-10.54-10.38a111.29,111.29,0,0,1-10-10.68l2.34,3a30,30,0,0,1-3.72-6.18l1.52,3.59a17.8,17.8,0,0,1-1.19-4.28l.54,4a14.18,14.18,0,0,1,0-3.19l-.53,4a13.37,13.37,0,0,1,.79-3l-1.51,3.58a13.94,13.94,0,0,1,1.6-2.78l-2.34,3a17.49,17.49,0,0,1,3.08-3.06l-3,2.35a24.41,24.41,0,0,1,4.83-2.78l-3.58,1.51a33.28,33.28,0,0,1,8.44-2.23l-4,.53a37.43,37.43,0,0,1,9.22,0l-4-.53a36.32,36.32,0,0,1,8.91,2.37l-3.59-1.52a13.09,13.09,0,0,1,2.66,1.43l-3-2.34a6,6,0,0,1,1,1l-2.34-3a3.7,3.7,0,0,1,.35.61l-1.51-3.58a3,3,0,0,1,.2.64l-.54-4a2.22,2.22,0,0,1,0,.63l.54-4a4.31,4.31,0,0,1-.27.93l1.51-3.58a3,3,0,0,1-.33.54l2.34-3a2.55,2.55,0,0,1-.43.44l3-2.35a2.16,2.16,0,0,1-.51.29l3.58-1.51-.27.08,4-.54a1.42,1.42,0,0,1-.58,0l4,.54-.3-.09a15.43,15.43,0,0,0-11.55,1.52,15.26,15.26,0,0,0-6.9,9c-.87,3.84-.68,8.15,1.52,11.56a15.89,15.89,0,0,0,9,6.89Z"/><path class="cls-3" d="M116.4,318.47a27.48,27.48,0,0,0,1-6,10.76,10.76,0,0,0,0-2.27,27.77,27.77,0,0,0-3.3-11.24,16.3,16.3,0,0,0-1.33-2,44.87,44.87,0,0,0-3.76-4.62,42.46,42.46,0,0,0-6.76-5.34,45.81,45.81,0,0,0-13.09-5.58A84.22,84.22,0,0,0,73.75,279a63,63,0,0,0-12,.19A84.34,84.34,0,0,0,46.48,282a81.69,81.69,0,0,0-14.23,5.84,64.88,64.88,0,0,0-11.47,8,51.83,51.83,0,0,0-9.15,10.45,28.85,28.85,0,0,0-2.51,4.43,45.84,45.84,0,0,0-3,8c-2.66,11-.24,22.13,5.44,31.77a89.16,89.16,0,0,0,9.05,12.22c2.43,2.86,5,5.63,7.56,8.35,5.18,5.43,10.58,10.64,16,15.8C55,397.13,66,407.28,75.5,418.78c1.17,1.42,2.33,2.86,3.45,4.32l-2.34-3a106.84,106.84,0,0,1,14,23.11l-1.51-3.58A47.41,47.41,0,0,1,92.31,451l-.54-4a30.46,30.46,0,0,1,0,7.75l.54-4a25.27,25.27,0,0,1-1.58,5.86l1.51-3.58a24,24,0,0,1-2.89,5l2.34-3a25.85,25.85,0,0,1-4.47,4.46l3-2.35A30.4,30.4,0,0,1,83.64,461l3.59-1.51a36.21,36.21,0,0,1-8.86,2.4l4-.53a38.38,38.38,0,0,1-9.93,0l4,.53a36.71,36.71,0,0,1-9.31-2.59l3.58,1.52a52.62,52.62,0,0,1-11.09-6.59l3,2.34A84.08,84.08,0,0,1,48,441.43l2.34,3c-2.53-3.29-4.9-6.7-7.19-10.16a15.89,15.89,0,0,0-9-6.89,15.32,15.32,0,0,0-11.55,1.51c-3.21,2.07-6,5.14-6.9,9s-.71,8.19,1.51,11.56C22.41,457.29,28,465,34.63,471.74a86.6,86.6,0,0,0,11.88,9.91,63.17,63.17,0,0,0,13.91,7.11,48.84,48.84,0,0,0,13.29,2.75,52.57,52.57,0,0,0,13.59-.86,48.92,48.92,0,0,0,12.63-4.28,40.51,40.51,0,0,0,10.6-7.47A38.34,38.34,0,0,0,122,449.84c-.51-11.29-4.85-21.84-10.46-31.51C102.8,403.2,90.77,390.13,78.3,378,66.46,366.47,54,355.5,43.13,343.05q-2.07-2.35-4-4.84l2.35,3A49.46,49.46,0,0,1,35,330.52l1.52,3.59A29.44,29.44,0,0,1,34.56,327l.54,4a24.28,24.28,0,0,1,0-5.84l-.53,4a25.06,25.06,0,0,1,1.7-6.25l-1.52,3.58a30.73,30.73,0,0,1,3.89-6.58l-2.35,3a41,41,0,0,1,7.19-7.11l-3,2.34A52.35,52.35,0,0,1,52,311.58l-3.58,1.51a64.3,64.3,0,0,1,15.66-4.26l-4,.54a65.11,65.11,0,0,1,17.08,0l-4-.54A52.81,52.81,0,0,1,86,312l-3.58-1.51A28.92,28.92,0,0,1,88.59,314l-3-2.34a21.35,21.35,0,0,1,3.61,3.5l-2.34-3a14.9,14.9,0,0,1,1.9,3.16l-1.52-3.58a10.76,10.76,0,0,1,.69,2.48l-.54-4a9.77,9.77,0,0,1,0,2.59l.54-4a11.87,11.87,0,0,1-.42,1.66A15,15,0,0,0,98,329c3.84.88,8.15.69,11.56-1.51a16.31,16.31,0,0,0,6.89-9Z"/><path class="cls-3" d="M163.62,442.17l4.47-1.95-22.57-13a141,141,0,0,0,2.79,35.19,123.72,123.72,0,0,0,4,15.14q1.26,3.72,2.74,7.35a46.79,46.79,0,0,0,4.25,8.78,33.18,33.18,0,0,0,8.88,9.18,24.46,24.46,0,0,0,5.69,2.68,20.39,20.39,0,0,0,6.49,1c8.35.11,15.16-4.86,20.55-10.74a88.7,88.7,0,0,0,10.26-13.57,91.68,91.68,0,0,0,7.41-15.6,71.38,71.38,0,0,0,3.87-14.89,87.14,87.14,0,0,0,1.09-19.15c-.28-3.83-1.44-7.89-4.39-10.6l-3-2.35a11.21,11.21,0,0,0-5.58-1.78,7.71,7.71,0,0,0-4,0,11.21,11.21,0,0,0-5.57,1.78,16.25,16.25,0,0,0-6.9,9,44.19,44.19,0,0,0-1.59,7.73,48.07,48.07,0,0,0-.6,7.67,60.1,60.1,0,0,0,1.14,9.64,35.23,35.23,0,0,0,1.59,5.68,56.61,56.61,0,0,0,3.92,8.66,58,58,0,0,0,5.28,7.26,48,48,0,0,0,10.79,9.36,34.29,34.29,0,0,0,5.36,2.91,55,55,0,0,0,9.19,3.38,15.78,15.78,0,0,0,11.56-1.51,15.34,15.34,0,0,0,6.89-9c.87-3.84.68-8.15-1.51-11.56a15.26,15.26,0,0,0-9-6.89,36,36,0,0,1-5.43-1.79l3.59,1.51a36.22,36.22,0,0,1-7.56-4.42l3,2.34a35.55,35.55,0,0,1-6.21-6.17l2.34,3a34.91,34.91,0,0,1-4.4-7.54L224,452.6a36,36,0,0,1-2.32-8.52l.53,4a36.41,36.41,0,0,1,0-9.67l-.54,4a36.47,36.47,0,0,1,1.33-5.74l-29.46-4a70.43,70.43,0,0,1-.44,14.37l.54-4a73.33,73.33,0,0,1-5,18.09l1.52-3.58A71.67,71.67,0,0,1,181,473.41l2.35-3a49,49,0,0,1-7.94,8.46l3-2.34a12.83,12.83,0,0,1-2.72,1.61l3.58-1.52a8.78,8.78,0,0,1-1.89.5l4-.53a8.65,8.65,0,0,1-2,0l4,.54a8.92,8.92,0,0,1-1.83-.53l3.59,1.51a10.58,10.58,0,0,1-2-1.14l3,2.34a15.22,15.22,0,0,1-2.64-2.68l2.34,3a28.63,28.63,0,0,1-3.34-5.9l1.52,3.58a123.32,123.32,0,0,1-8.21-30.54l.53,4a126.14,126.14,0,0,1-.95-23.47c.28-5.2-3.05-10.39-7.43-12.95a15,15,0,0,0-15.14,0l-4.47,1.95a16.8,16.8,0,0,0-6.9,9,15.34,15.34,0,0,0,1.51,11.56c2.07,3.21,5.14,6,9,6.9l4,.53a14.94,14.94,0,0,0,7.57-2.05Z"/><path class="cls-3" d="M295.53,422.47c-2.86-2.2-7-2.57-10.46-2.11a15.36,15.36,0,0,0-6,1.93,20.5,20.5,0,0,0-3.55,2.76c-3.73,3.53-5.34,8.71-5.61,13.69-.25,4.47-.2,9-.29,13.44q-.27,13.57-.45,27.14-.37,27-.43,54,0,15.18,0,30.38a15.48,15.48,0,0,0,4.4,10.6,15.24,15.24,0,0,0,10.6,4.4c3.88-.18,7.9-1.45,10.61-4.4l2.34-3a14.94,14.94,0,0,0,2.05-7.57c3.23-27.58.54-55.35,1.42-83A230.11,230.11,0,0,1,302,457.56l-.54,4c1.22-9,2.8-18.28,6.32-26.66l-1.51,3.59a38.23,38.23,0,0,1,4.61-8.11l-2.34,3a23.91,23.91,0,0,1,4.11-4.18l-3,2.34a17.58,17.58,0,0,1,3.5-2.06L309.52,431a15.13,15.13,0,0,1,3.63-1l-4,.54a15.71,15.71,0,0,1,3.69,0l-4-.54A18.93,18.93,0,0,1,313,431.2l-3.58-1.52a27.65,27.65,0,0,1,5.93,3.49l-3-2.35a32.15,32.15,0,0,1,5.56,5.56l-2.35-3a34.41,34.41,0,0,1,4.32,7.42l-1.51-3.58a35,35,0,0,1,2.29,8.28l-.54-4a32.36,32.36,0,0,1,0,8.57l.53-4a30,30,0,0,1-2,7.21l1.51-3.59a32.31,32.31,0,0,1-4.1,7l2.35-3a35.41,35.41,0,0,1-6,6l3-2.35a34,34,0,0,1-7.34,4.3l3.59-1.51a31.56,31.56,0,0,1-7.86,2.13l4-.53-1.06.12a16.7,16.7,0,0,0-10.61,4.39,15.23,15.23,0,0,0-4.39,10.61c.17,3.88,1.45,7.9,4.39,10.6,2.77,2.54,6.71,4.78,10.61,4.4a43,43,0,0,0,17.46-4.74A45.73,45.73,0,0,0,336,479a34.92,34.92,0,0,0,3.71-4.07,53.49,53.49,0,0,0,5.06-7.19,41.69,41.69,0,0,0,4.86-13.48,52.22,52.22,0,0,0,.84-9.17,58.71,58.71,0,0,0-1.06-9,33.22,33.22,0,0,0-1.47-5.36,59.23,59.23,0,0,0-3.67-8.32,54.83,54.83,0,0,0-5.1-7.23,32.91,32.91,0,0,0-3.77-4.06A41.47,41.47,0,0,0,319,401.56a26.63,26.63,0,0,0-9.64-1,38.58,38.58,0,0,0-6,.93,38,38,0,0,0-5.63,2.25,32.36,32.36,0,0,0-6.74,4.68,23.83,23.83,0,0,0-3.51,3.66,55,55,0,0,0-5.07,7.18,73.79,73.79,0,0,0-3.64,8A75.69,75.69,0,0,0,275.19,439c-4.58,19.64-5.34,39.94-5.17,60,.17,19.26,1.05,38.56-.56,57.77-.19,2.34-.43,4.66-.7,7h30q-.22-49.07.6-98.11.11-6.72.24-13.45c.09-4.57,0-9.19.31-13.75l-.54,4a6.7,6.7,0,0,1,.44-1.59l-1.51,3.58a6.24,6.24,0,0,1,.47-.84l-2.34,3A4.3,4.3,0,0,1,297,446l-3,2.35a1.37,1.37,0,0,1,.43-.23l-3.58,1.51.22-.05-4,.53h.23l-4-.54.23.06-3.59-1.51a1.18,1.18,0,0,1,.45.28,11.21,11.21,0,0,0,5.58,1.78,11.37,11.37,0,0,0,6-.27,15.35,15.35,0,0,0,9-6.89c1.83-3.48,2.76-7.7,1.51-11.56l-1.51-3.58a15.13,15.13,0,0,0-5.39-5.39Z"/><path class="cls-3" d="M368.22,426.23l-2,53.57-2,53.58L363,563.78a15,15,0,0,0,15,15c3.88-.18,7.91-1.45,10.61-4.4l2.35-3a14.93,14.93,0,0,0,2-7.57l6.51-98c.57-8.63.8-17.36,1.9-25.94l-.53,4a39.47,39.47,0,0,1,2.47-9.87l-1.51,3.58a23.27,23.27,0,0,1,2.87-5l-2.34,3a20.2,20.2,0,0,1,3.29-3.31l-3,2.35a21.84,21.84,0,0,1,4.79-2.78l-3.58,1.51a26.41,26.41,0,0,1,6.11-1.64l-4,.54a31.29,31.29,0,0,1,8.26,0l-4-.54a34.31,34.31,0,0,1,8.33,2.29L415,432.46a39.44,39.44,0,0,1,8.45,4.92l-3-2.35a41.86,41.86,0,0,1,7.43,7.44l-2.34-3a41.63,41.63,0,0,1,5.28,9.08l-1.51-3.58a38.53,38.53,0,0,1,2.57,9.43l-.53-4a31.73,31.73,0,0,1,.06,8l.54-4a24.17,24.17,0,0,1-1.51,5.74l1.51-3.58a18.86,18.86,0,0,1-2.38,4.07l2.35-3a18.54,18.54,0,0,1-3,2.95l3-2.34a20.53,20.53,0,0,1-4.41,2.52l3.58-1.51A30.22,30.22,0,0,1,424,461l4-.54a74.21,74.21,0,0,1-15,.1l-20-1.43c-3.67-.27-8.08,1.86-10.61,4.39a15.23,15.23,0,0,0-4.39,10.61c.17,3.88,1.45,7.9,4.39,10.6l3,2.35a14.91,14.91,0,0,0,7.57,2l16.56,1.18a130.23,130.23,0,0,0,13.39.56,78.37,78.37,0,0,0,9.78-1.05,28.79,28.79,0,0,0,5.77-1.49,35.21,35.21,0,0,0,8.36-4.08,43.09,43.09,0,0,0,4.86-3.91,38.42,38.42,0,0,0,4.26-5.26,17.2,17.2,0,0,0,1.58-2.72,44.28,44.28,0,0,0,2.62-6.53,41.74,41.74,0,0,0,1.48-10.31,55.53,55.53,0,0,0-.95-10.05,38.53,38.53,0,0,0-1.48-6,53,53,0,0,0-7-14.19,67.21,67.21,0,0,0-6.07-7.5,54.49,54.49,0,0,0-6-5.16c-8.77-6.78-19.69-11-30.91-10.7-13,.36-25.54,6.4-32.05,18-5.88,10.46-6.07,22.68-6.84,34.34l-2.23,33.6-4.47,67.43-.57,8.46h30l2-53.58,2-53.57,1.14-30.4a15,15,0,0,0-15-15c-3.88.17-7.9,1.45-10.6,4.39a16.14,16.14,0,0,0-4.4,10.61Z"/><path class="cls-3" d="M543.23,429.42a22.42,22.42,0,0,0,2.31-5.43c.09-.34.14-.68.2-1a30.93,30.93,0,0,0,.58-4.89,25.41,25.41,0,0,0-3-11.42,20.3,20.3,0,0,0-2.34-3.42,23,23,0,0,0-2.71-3.19,28.31,28.31,0,0,0-10.19-6,21.37,21.37,0,0,0-4.36-.82,22.39,22.39,0,0,0-4.83-.32,31.55,31.55,0,0,0-9.49,2,40.54,40.54,0,0,0-8.67,4.44,66.25,66.25,0,0,0-7.4,6.06,65.2,65.2,0,0,0-16,26,63,63,0,0,0-2.87,15.34,41.39,41.39,0,0,0,0,6.2,58.54,58.54,0,0,0,1.48,9.67,39.9,39.9,0,0,0,19.94,25.33,43.51,43.51,0,0,0,13.64,4.58,55.64,55.64,0,0,0,9.1.79,59.16,59.16,0,0,0,9.18-1.11,54.43,54.43,0,0,0,14.55-5.37,70.71,70.71,0,0,0,12.78-8.92,72.09,72.09,0,0,0,10.65-11.56,39.66,39.66,0,0,0,7-14.16c1.58-6.22,1.58-13.2-.85-19.22a41.35,41.35,0,0,0-4.43-8.72,90.51,90.51,0,0,0-6-7.64,67.68,67.68,0,0,0-9-8.55,88.78,88.78,0,0,0-13.1-8.93c-1.83-1-3.7-1.87-5.61-2.69a16.82,16.82,0,0,0-11.56-1.51,15.35,15.35,0,0,0-9,6.89c-1.84,3.48-2.76,7.7-1.51,11.56l1.51,3.58a15.18,15.18,0,0,0,5.38,5.39,69.92,69.92,0,0,1,15,8.75l-3-2.34a69.12,69.12,0,0,1,12.1,11.95l-2.35-3a31.86,31.86,0,0,1,4.19,6.85L543,440.91a20.41,20.41,0,0,1,1.26,4.43l-.54-4a18.24,18.24,0,0,1,0,4.84l.54-4a23.37,23.37,0,0,1-1.43,5.06l1.51-3.59a34.17,34.17,0,0,1-4.5,7.5l2.35-3A60,60,0,0,1,532,458.19l3-2.34a51,51,0,0,1-11.12,6.57l3.58-1.52a39.08,39.08,0,0,1-9.6,2.64l4-.53a33.65,33.65,0,0,1-8.39,0l4,.54a33.26,33.26,0,0,1-8.08-2.15l3.58,1.51a28.89,28.89,0,0,1-6.21-3.6l3,2.35a26.17,26.17,0,0,1-4.31-4.3l2.35,3a25.5,25.5,0,0,1-3.19-5.52l1.51,3.59a31.93,31.93,0,0,1-2-7.49l.54,4a40.7,40.7,0,0,1,0-10.69l-.54,4A49.2,49.2,0,0,1,507.51,436L506,439.56a50.5,50.5,0,0,1,6.4-11l-2.34,3a46.55,46.55,0,0,1,7.86-8l-3,2.35a29.35,29.35,0,0,1,6.09-3.69l-3.58,1.51a19.69,19.69,0,0,1,4.71-1.35l-4,.54a15.83,15.83,0,0,1,3.64,0l-4-.54a12.21,12.21,0,0,1,2.66.67l-3.58-1.51a11.94,11.94,0,0,1,2.52,1.45l-3-2.35a12.73,12.73,0,0,1,2.28,2.3l-2.34-3a12.44,12.44,0,0,1,1.42,2.48l-1.51-3.59a10.85,10.85,0,0,1,.63,2.38l-.54-4a9,9,0,0,1,0,1.8l.54-4a8.51,8.51,0,0,1-.55,2l1.51-3.59c-.14.29-.28.56-.44.84a15.54,15.54,0,0,0-1.52,11.56,15.27,15.27,0,0,0,6.9,9c3.48,1.84,7.7,2.76,11.56,1.51a15.67,15.67,0,0,0,9-6.89Z"/><path class="cls-3" d="M618.28,413.92a17.43,17.43,0,0,0,0-8.31,15.43,15.43,0,0,0-4.09-6.88,31.18,31.18,0,0,0-3.15-2.4,11.45,11.45,0,0,0-5.7-1.83,16.19,16.19,0,0,0-6.49.33,14.78,14.78,0,0,0-8,5.58,15.44,15.44,0,0,0-3,5.66,48.32,48.32,0,0,0-.89,6.83,128.75,128.75,0,0,0-.55,14c.1,9.29.85,18.58,1.45,27.85l1,16,29.46-4q-.35-1.59-.57-3.21l.53,4a53.22,53.22,0,0,1,.11-13.87l-.54,4a98.63,98.63,0,0,1,3.48-15.17c1.43-4.7,2.92-9.44,4.8-14l-1.52,3.58a30.62,30.62,0,0,1,3.59-6.45l-2.35,3a20.24,20.24,0,0,1,3.42-3.44l-3,2.35a24.37,24.37,0,0,1,5.2-3l-3.58,1.51a48.37,48.37,0,0,1,11.92-2.94l-4,.54a70.31,70.31,0,0,1,18.16.05l-4-.53a41.69,41.69,0,0,1,9.2,2l-3.58-1.51a9.81,9.81,0,0,1,2.12,1.24l-3-2.34a8.17,8.17,0,0,1,.93.93l-2.35-3a6,6,0,0,1,.46.77l-1.51-3.58a3,3,0,0,1,.16.53l-.54-4a1.62,1.62,0,0,1,0,.54l.54-4a2.12,2.12,0,0,1-.13.54l1.51-3.59a2.35,2.35,0,0,1-.29.54,15,15,0,0,0,5.38,20.52c3.49,1.84,7.7,2.76,11.56,1.51a16.14,16.14,0,0,0,9-6.89l.23-.4a30.48,30.48,0,0,0,1.57-3.72,19.92,19.92,0,0,0,.66-4.66,20.83,20.83,0,0,0-.6-4.52,14.51,14.51,0,0,0-1.84-4.37,19.41,19.41,0,0,0-3.53-4.35,22.76,22.76,0,0,0-4.84-3.45c-5.79-2.75-11.94-3.56-18.25-4.32a68.85,68.85,0,0,0-12.35-.35A85,85,0,0,0,625,395.59c-10.44,2.66-19.82,8.84-24.88,18.58a95.9,95.9,0,0,0-5.43,13.62c-1.34,4-2.61,8-3.66,12a100.16,100.16,0,0,0-2.9,17.37,62,62,0,0,0,1.37,17.6,15.05,15.05,0,0,0,6.9,9l3.58,1.51a11.27,11.27,0,0,0,6,.27,7.53,7.53,0,0,0,3.79-1,11.22,11.22,0,0,0,4.82-3.11c2.6-2.82,4.65-6.64,4.4-10.6-.65-10-1.34-20-1.94-30s-.94-20.08.24-30.06l-.54,4a4.3,4.3,0,0,1,.23-.94l-1.51,3.59.16-.26-2.34,3,.23-.2-6.62,3.86.24-.09-4,.54.26,0-7.57-2.05.24.11-3-2.35.18.17-3.86-6.62.09.2v-8l0,.23c-.8,4-.6,8,1.51,11.56a15.32,15.32,0,0,0,9,6.89c3.84.87,8.15.68,11.56-1.51,3.15-2,6.14-5.16,6.89-9Z"/><path class="cls-3" d="M746.87,332.86l.22-.2-3,2.35a1.93,1.93,0,0,1,.49-.26L741,336.26a2.08,2.08,0,0,1,.54-.11l-4,.53a2.72,2.72,0,0,1,.57,0l-4-.53a4.89,4.89,0,0,1,.85.25l-3.59-1.51a5.58,5.58,0,0,1,.77.49l-3-2.35a2.89,2.89,0,0,1,.42.44l-2.34-3a4.72,4.72,0,0,1,.49.88l-1.51-3.58a7.23,7.23,0,0,1,.29,1.2l-.54-4a10.62,10.62,0,0,1-.06,2.11l.54-4a159.09,159.09,0,0,1-4.62,19.73c-1.81,6.43-3.83,12.81-5.89,19.16-4.16,12.84-8.49,25.65-11.48,38.82-3.13,13.84-5.07,28.34-3.63,42.52.85,8.29,2,16.87,6.51,24.12,5.1,8.28,13.45,13.48,22.93,15.27,18.41,3.46,37.39,2.81,55.7-.9,3.55-.72,7.19-3.86,9-6.9a15.3,15.3,0,0,0,1.51-11.56c-1.17-3.63-3.42-7.13-6.89-9l-3.59-1.51a15,15,0,0,0-8,0c-3,.61-6,1.11-9,1.52l4-.53a133.39,133.39,0,0,1-34.69,0l4,.54a41.31,41.31,0,0,1-10.07-2.34l3.58,1.51a18.53,18.53,0,0,1-4.16-2.4l3,2.34a17,17,0,0,1-2.66-2.7l2.35,3a21.67,21.67,0,0,1-2.61-4.59l1.51,3.59a44,44,0,0,1-2.58-10.69l.53,4a105.57,105.57,0,0,1,.24-27.51l-.54,4c3.89-28.71,16.45-55.27,22.87-83.39,1.38-6,3.15-12.48,1.64-18.64a18.14,18.14,0,0,0-12.38-13.07,16.91,16.91,0,0,0-9.38-.28c-3.19.68-5.48,2.33-7.87,4.42-2.78,2.43-4.4,7-4.4,10.61a15.29,15.29,0,0,0,4.4,10.61c2.86,2.62,6.61,4.57,10.6,4.39l4-.54a14.94,14.94,0,0,0,6.62-3.85Z"/><path class="cls-3" d="M701.53,384q28.58-2.49,57.26-3.41a15.69,15.69,0,0,0,10.61-4.4,15.23,15.23,0,0,0,4.39-10.6c-.17-3.88-1.45-7.91-4.39-10.61a15.23,15.23,0,0,0-10.61-4.39q-28.66.93-57.26,3.41a16.7,16.7,0,0,0-10.61,4.39A15.25,15.25,0,0,0,686.53,369c.17,3.88,1.45,7.9,4.39,10.61,2.79,2.55,6.69,4.73,10.61,4.39Z"/><path class="cls-4" d="M66.43,13.43A52.55,52.55,0,0,0,32.66,39.94,49.93,49.93,0,0,0,28.21,51.8a3.07,3.07,0,0,0,2.1,3.69A3,3,0,0,0,34,53.4,46.67,46.67,0,0,1,57.62,23.1,42.69,42.69,0,0,1,68,19.22c3.75-.9,2.16-6.68-1.6-5.79Z"/><path class="cls-4" d="M168.85,129.46a22.25,22.25,0,0,0-13.58,14.79,3,3,0,1,0,5.79,1.59c.19-.69.43-1.36.68-2,.13-.35-.28.61-.05.12l.23-.51c.16-.34.34-.67.52-1a17.46,17.46,0,0,1,1.09-1.74c.1-.15.24-.3.33-.45l-.24.31.23-.3.67-.78A20,20,0,0,1,166,138l.78-.66c.48-.4-.48.35,0,0l.46-.33A16.36,16.36,0,0,1,169,136c.32-.18.66-.35,1-.5l.17-.08c.29-.13.22-.11-.2.08a2.83,2.83,0,0,0,.52-.21,3.24,3.24,0,0,0,1.79-1.38,3,3,0,0,0,.3-2.31c-.46-1.42-2.12-2.7-3.69-2.09Z"/><path class="cls-4" d="M313,124.25c-13.89,6-26.44,17.36-29.3,32.81a34.5,34.5,0,0,0,.13,13.47,3,3,0,0,0,5.78-1.6c-2.86-13.52,5.35-26.51,16.18-33.92A60.82,60.82,0,0,1,316,129.43c1.49-.65,1.83-2.83,1.08-4.11a3.08,3.08,0,0,0-4.11-1.07Z"/><path class="cls-4" d="M439.14,123.17a62.22,62.22,0,0,0-34.74,35.29A59,59,0,0,0,401,172.32c-.21,1.61,1.53,3,3,3a3.08,3.08,0,0,0,3-3,54.2,54.2,0,0,1,7.54-20.87,56.34,56.34,0,0,1,15.12-16.35A53.21,53.21,0,0,1,440.74,129a3.1,3.1,0,0,0,2.1-3.69,3,3,0,0,0-3.7-2.1Z"/><path class="cls-4" d="M536.38,123q-5.89,3.75-11.75,7.54c-3.65,2.35-7.36,4.63-10.88,7.17a34.45,34.45,0,0,0-8.74,8.54,31.7,31.7,0,0,0-4.43,10.83,89.28,89.28,0,0,0-1.66,13.54,3,3,0,0,0,6,0c.46-6.89,1-14.27,4.63-20.33a25.5,25.5,0,0,1,7.06-7.28c3.3-2.4,6.79-4.54,10.22-6.76q6.27-4,12.58-8.07a3,3,0,1,0-3-5.18Z"/><path class="cls-4" d="M640,127.67a6.16,6.16,0,0,0,.93-5.17c-.52-2.37-3.4-2.68-5-1.32l-11,9.33c-3.3,2.79-6.81,5.43-9.41,8.92a13.19,13.19,0,0,0-2.63,10.68,9.58,9.58,0,0,0,6.79,7.52c3.75.91,5.35-4.87,1.6-5.79a2.67,2.67,0,0,1-1.87-1.34,5.82,5.82,0,0,1-.8-2.57,10.09,10.09,0,0,1,0-1.1c0-.21,0-.2,0,0,0-.15.05-.3.08-.45a8.84,8.84,0,0,1,.65-1.83A14.86,14.86,0,0,1,622,141c2.61-2.65,5.61-4.95,8.45-7.35l9.72-8.21-5-1.32c0-.06,0-.07.06-.09s-.29.5-.39.63c-1,1.28-.2,3.36,1.07,4.1a3.07,3.07,0,0,0,4.11-1.07Z"/><path class="cls-4" d="M717.81,115.25c-4.28,0-7.49,2.76-9.95,6A45.8,45.8,0,0,0,701.55,132a16.6,16.6,0,0,0-.61,11.47,12.07,12.07,0,0,0,7.45,7.79,3,3,0,0,0,1.6-5.79c-.56-.19,0,0-.48-.2a7.46,7.46,0,0,1-.82-.5c.31.23-.37-.36-.37-.35a8.67,8.67,0,0,1-.64-.72,8.21,8.21,0,0,1-1.2-2.63,12,12,0,0,1,.89-7.56,45.14,45.14,0,0,1,5-8.37,13.92,13.92,0,0,1,2.77-3,4.27,4.27,0,0,1,2.68-.94c3.86,0,3.87-6,0-6Z"/><path class="cls-4" d="M35.71,294.91C21.83,301,14,317.66,17.63,332.27c.92,3.75,6.71,2.16,5.79-1.59a27.2,27.2,0,0,1,15.31-30.59c1.49-.65,1.83-2.81,1.08-4.1a3.08,3.08,0,0,0-4.1-1.08Z"/><path class="cls-4" d="M34.86,435.32c-5.9.05-11.65,4.61-12.62,10.52a3.34,3.34,0,0,0,.3,2.32,3.06,3.06,0,0,0,1.8,1.37,3,3,0,0,0,2.31-.3A3,3,0,0,0,28,447.44a9.6,9.6,0,0,1,.6-2.11l-.3.72a10.5,10.5,0,0,1,1.31-2.24l-.47.61A11.1,11.1,0,0,1,31,442.58l-.61.47a11,11,0,0,1,2.36-1.39l-.71.3a10.23,10.23,0,0,1,2.36-.66l-.79.11q.61-.07,1.23-.09a3,3,0,1,0,0-6Z"/><path class="cls-4" d="M631.53,195.18a18.49,18.49,0,0,0-9.08,11.37,3,3,0,1,0,5.78,1.59,15.07,15.07,0,0,1,.67-1.92l-.31.72a16.06,16.06,0,0,1,2-3.38l-.46.61a16.24,16.24,0,0,1,2.86-2.88l-.61.47a15.85,15.85,0,0,1,2.21-1.4,3,3,0,0,0,1.07-4.11,3.07,3.07,0,0,0-4.1-1.07Z"/><path class="cls-4" d="M721.27,203a15.88,15.88,0,0,0-9,4.83,16.52,16.52,0,0,0-4.48,9.84,3,3,0,0,0,3,3,3.08,3.08,0,0,0,3-3c0-.11,0-.22,0-.33l-.07.46a3.78,3.78,0,0,0,.1-.57c.08-.36.16-.71.26-1.05s.2-.64.32-.95.36-.68,0,.1c.07-.14.13-.3.21-.45a13.43,13.43,0,0,1,1-1.8l.3-.4c.14-.18.06-.09-.21.27l.21-.25c.21-.26.44-.51.67-.75s.47-.47.72-.69.25-.23.38-.33l.26-.21-.34.26c.63-.34,1.19-.82,1.83-1.16.29-.16.61-.27.9-.43-.74.4-.33.13-.1,0l.47-.16a11.75,11.75,0,0,1,2.11-.49,3,3,0,0,0,1.79-1.38,3,3,0,0,0-1.07-4.11,3.54,3.54,0,0,0-2.31-.3Z"/><path class="cls-4" d="M740.84,323.2c3.86,0,3.87-6,0-6s-3.86,6,0,6Z"/><path class="cls-4" d="M743.45,315.76a15.78,15.78,0,0,0-15.7,11.35,3,3,0,1,0,5.78,1.59q.13-.48.3-1c0-.1.24-.73.09-.23s0,0,.08-.14a11.45,11.45,0,0,1,1-1.72l.16-.22-.19.25c.1,0,.23-.28.3-.35.22-.26.45-.5.68-.74s.49-.46.75-.68c.1-.08.28-.17.35-.29-.34.27-.42.33-.24.2l.22-.16a12.14,12.14,0,0,1,1.73-1l.41-.2c.34-.17-.63.24-.12.05.34-.13.68-.25,1-.36s.58-.16.88-.22l.54-.11c.54-.1-.55,0-.17,0a12.26,12.26,0,0,1,2.1-.05,3,3,0,0,0,3-3,3.07,3.07,0,0,0-3-3Z"/><path class="cls-4" d="M704.89,361.16l-.06-.06.47.61,0-.06.3.72v-.06l.1.8v-.06l-.11.8,0-.06-.31.72,0-.06-.47.61,0-.05-.6.47a1,1,0,0,1,.2-.12l-.72.3.16,0-.8.11h.08l-.79-.1a.35.35,0,0,1,.14,0l-.72-.3.07,0-.61-.47.05.05-.47-.61,0,.08-.3-.72,0,.12-.11-.8a.65.65,0,0,1,0,.24l.11-.79,0,.11.31-.72a1.16,1.16,0,0,1-.13.22l.46-.61a.81.81,0,0,1-.18.19l.6-.46a2,2,0,0,1-.35.2l.72-.3a4.94,4.94,0,0,1-.76.18,5,5,0,0,0-1.34.46,9,9,0,0,0-1.32.9,17.2,17.2,0,0,0-2.84,2.55,11.39,11.39,0,0,0-2.16,3.66,7.53,7.53,0,0,0-.1,4.26,3,3,0,0,0,3.69,2.09,3.05,3.05,0,0,0,2.1-3.69,5.23,5.23,0,0,1-.12-.54l.11.79a4.82,4.82,0,0,1,0-1.2l-.11.8a5.75,5.75,0,0,1,.36-1.29l-.3.72a7.73,7.73,0,0,1,1-1.68l-.47.6a14.42,14.42,0,0,1,2.35-2.27l-.61.47a7.84,7.84,0,0,1,1.44-1l-.72.31a11.32,11.32,0,0,1,1.12-.26,4.4,4.4,0,0,0,1.94-1.06,3.67,3.67,0,0,0,.52-4.9,3.46,3.46,0,0,0-4.51-.79,3.29,3.29,0,0,0-.69,5.15,3,3,0,0,0,4.25-4.24Z"/><path class="cls-4" d="M602.21,402.59a29,29,0,0,0-11.15,16.83,3,3,0,1,0,5.78,1.6,27.23,27.23,0,0,1,1.3-4.14c.14-.35-.23.48,0,0,.09-.18.17-.36.25-.54s.31-.63.47-.94c.35-.66.73-1.3,1.13-1.93.19-.3.39-.59.59-.88l.27-.38s.46-.6.19-.26.16-.18.21-.25l.3-.36c.25-.3.51-.59.78-.88.48-.51,1-1,1.5-1.48.29-.27.59-.53.89-.77l.36-.3c.62-.5-.49.37.14-.1a3.08,3.08,0,0,0,1.08-4.11c-.8-1.24-2.76-2.08-4.11-1.07Z"/><path class="cls-4" d="M521.84,402.37c-9.38-2.71-19.23,1.61-25.58,8.57a47.81,47.81,0,0,0-7.65,11.72,58.94,58.94,0,0,0-4.84,13.92c-1.08,5.64-1.1,11.56,1.05,17a3.08,3.08,0,0,0,3.69,2.09c1.43-.39,2.7-2.17,2.09-3.69-3.2-8.05-1-16.92,2.41-24.54,3.24-7.33,7.79-14.54,15.26-18.08a17,17,0,0,1,12-1.17c3.72,1.07,5.3-4.72,1.59-5.78Z"/><path class="cls-4" d="M405.16,410.15a131.72,131.72,0,0,0-11.22,7.55,79.92,79.92,0,0,0-9.67,8.23c-6,6.24-10.07,14.41-8.57,23.24a3,3,0,0,0,3.69,2.09,3.06,3.06,0,0,0,2.09-3.69c-1.19-7,3.15-13.61,7.92-18.29a100.21,100.21,0,0,1,18.79-13.95c3.31-2,.3-7.17-3-5.18Z"/><path class="cls-4" d="M311.93,411a4.75,4.75,0,0,0-5.57-2c-2,.58-3.53,2-5.07,3.34a129.08,129.08,0,0,0-9.54,9.17c-5.91,6.28-11.83,13.17-14.8,21.39a22.3,22.3,0,0,0-.58,14.09c1.14,3.68,6.93,2.11,5.78-1.59-2.59-8.37,2.88-16.76,8-23a131.59,131.59,0,0,1,9.7-10.6q2.61-2.55,5.36-5c.46-.4.92-.8,1.39-1.19l.69-.59c-.21.17-.16.15.14-.06s.36-.2.55-.29c-.23.11-.18.11.15,0-.32,0-.32,0,0,0a1.71,1.71,0,0,1-1.38-.7c2,3.32,7.15.3,5.18-3Z"/><path class="cls-4" d="M205.83,425.25A20.45,20.45,0,0,0,198.56,439a3,3,0,0,0,3,3,3.09,3.09,0,0,0,3-3c.06-.54-.09.55,0,.17l.06-.36c0-.27.09-.53.15-.8.12-.53.26-1.06.43-1.58.08-.26.17-.51.27-.77s.08-.23.13-.34c.17-.44.06-.08-.06.13.27-.47.46-1,.73-1.46s.52-.89.8-1.32l.48-.66c.37-.51-.32.38-.08.1l.23-.28a17.12,17.12,0,0,1,2.4-2.34,3,3,0,0,0,.88-2.12,3,3,0,0,0-.88-2.12,3,3,0,0,0-2.12-.88,3.44,3.44,0,0,0-2.12.88Z"/><path class="cls-4" d="M157.56,420.68a18.76,18.76,0,0,0-6,10.67,3.26,3.26,0,0,0,.3,2.31,3.05,3.05,0,0,0,1.79,1.38c1.46.33,3.4-.44,3.69-2.1a16.55,16.55,0,0,1,1-3.44l-.31.72a17,17,0,0,1,2.11-3.62l-.47.61a16.07,16.07,0,0,1,2.15-2.29,3,3,0,0,0,0-4.24,3.07,3.07,0,0,0-4.24,0Z"/></g></g></svg>